<?xml version="1.0" encoding="utf-8"?>
<!-- Generator: Adobe Illustrator 18.0.0, SVG Export Plug-In . SVG Version: 6.00 Build 0)  -->
<!DOCTYPE svg PUBLIC "-//W3C//DTD SVG 1.0//EN" "http://www.w3.org/TR/2001/REC-SVG-20010904/DTD/svg10.dtd">
<svg version="1.0" xmlns="http://www.w3.org/2000/svg" xmlns:xlink="http://www.w3.org/1999/xlink" x="0px" y="0px"
	 viewBox="0 0 1004 820" enable-background="new 0 0 1004 820" xml:space="preserve">
<g id="background">
</g>
<g id="grid" display="none">
	
		<rect x="-297.6" y="34" display="inline" opacity="0.4" fill="none" stroke="#3A50A3" stroke-miterlimit="10" width="89.3" height="89.3"/>
	
		<rect x="-208.3" y="34" display="inline" opacity="0.4" fill="none" stroke="#3A50A3" stroke-miterlimit="10" width="89.3" height="89.3"/>
	
		<rect x="-119.1" y="34" display="inline" opacity="0.4" fill="none" stroke="#3A50A3" stroke-miterlimit="10" width="89.3" height="89.3"/>
	
		<rect x="-29.8" y="34" display="inline" opacity="0.4" fill="none" stroke="#3A50A3" stroke-miterlimit="10" width="89.3" height="89.3"/>
	
		<rect x="59.4" y="34" display="inline" opacity="0.4" fill="none" stroke="#3A50A3" stroke-miterlimit="10" width="89.3" height="89.3"/>
	
		<rect x="148.7" y="34" display="inline" opacity="0.4" fill="none" stroke="#3A50A3" stroke-miterlimit="10" width="89.3" height="89.3"/>
	
		<rect x="238" y="34" display="inline" opacity="0.4" fill="none" stroke="#3A50A3" stroke-miterlimit="10" width="89.3" height="89.3"/>
	
		<rect x="327.2" y="34" display="inline" opacity="0.4" fill="none" stroke="#3A50A3" stroke-miterlimit="10" width="89.3" height="89.3"/>
	
		<rect x="416.5" y="34" display="inline" opacity="0.4" fill="none" stroke="#3A50A3" stroke-miterlimit="10" width="89.3" height="89.3"/>
	
		<rect x="505.7" y="34" display="inline" opacity="0.4" fill="none" stroke="#3A50A3" stroke-miterlimit="10" width="89.3" height="89.3"/>
	
		<rect x="-297.6" y="123.2" display="inline" opacity="0.4" fill="none" stroke="#3A50A3" stroke-miterlimit="10" width="89.3" height="89.3"/>
	
		<rect x="-208.3" y="123.2" display="inline" opacity="0.4" fill="none" stroke="#3A50A3" stroke-miterlimit="10" width="89.3" height="89.3"/>
	
		<rect x="-119.1" y="123.2" display="inline" opacity="0.4" fill="none" stroke="#3A50A3" stroke-miterlimit="10" width="89.3" height="89.3"/>
	
		<rect x="-29.8" y="123.2" display="inline" opacity="0.4" fill="none" stroke="#3A50A3" stroke-miterlimit="10" width="89.3" height="89.3"/>
	
		<rect x="59.4" y="123.2" display="inline" opacity="0.4" fill="none" stroke="#3A50A3" stroke-miterlimit="10" width="89.3" height="89.3"/>
	
		<rect x="148.7" y="123.2" display="inline" opacity="0.4" fill="none" stroke="#3A50A3" stroke-miterlimit="10" width="89.3" height="89.3"/>
	
		<rect x="238" y="123.2" display="inline" opacity="0.4" fill="none" stroke="#3A50A3" stroke-miterlimit="10" width="89.3" height="89.3"/>
	
		<rect x="327.2" y="123.2" display="inline" opacity="0.4" fill="none" stroke="#3A50A3" stroke-miterlimit="10" width="89.3" height="89.3"/>
	
		<rect x="416.5" y="123.2" display="inline" opacity="0.4" fill="none" stroke="#3A50A3" stroke-miterlimit="10" width="89.3" height="89.3"/>
	
		<rect x="505.7" y="123.2" display="inline" opacity="0.4" fill="none" stroke="#3A50A3" stroke-miterlimit="10" width="89.3" height="89.3"/>
	
		<rect x="-297.6" y="212.5" display="inline" opacity="0.4" fill="none" stroke="#3A50A3" stroke-miterlimit="10" width="89.3" height="89.3"/>
	
		<rect x="-208.3" y="212.5" display="inline" opacity="0.4" fill="none" stroke="#3A50A3" stroke-miterlimit="10" width="89.3" height="89.3"/>
	
		<rect x="-119.1" y="212.5" display="inline" opacity="0.4" fill="none" stroke="#3A50A3" stroke-miterlimit="10" width="89.3" height="89.3"/>
	
		<rect x="-29.8" y="212.5" display="inline" opacity="0.4" fill="none" stroke="#3A50A3" stroke-miterlimit="10" width="89.3" height="89.3"/>
	
		<rect x="59.4" y="212.5" display="inline" opacity="0.4" fill="none" stroke="#3A50A3" stroke-miterlimit="10" width="89.3" height="89.3"/>
	
		<rect x="148.7" y="212.5" display="inline" opacity="0.4" fill="none" stroke="#3A50A3" stroke-miterlimit="10" width="89.3" height="89.3"/>
	
		<rect x="238" y="212.5" display="inline" opacity="0.4" fill="none" stroke="#3A50A3" stroke-miterlimit="10" width="89.3" height="89.3"/>
	
		<rect x="327.2" y="212.5" display="inline" opacity="0.4" fill="none" stroke="#3A50A3" stroke-miterlimit="10" width="89.3" height="89.3"/>
	
		<rect x="416.5" y="212.5" display="inline" opacity="0.4" fill="none" stroke="#3A50A3" stroke-miterlimit="10" width="89.3" height="89.3"/>
	
		<rect x="505.7" y="212.5" display="inline" opacity="0.4" fill="none" stroke="#3A50A3" stroke-miterlimit="10" width="89.3" height="89.3"/>
	
		<rect x="-297.6" y="301.7" display="inline" opacity="0.4" fill="none" stroke="#3A50A3" stroke-miterlimit="10" width="89.3" height="89.3"/>
	
		<rect x="-208.3" y="301.7" display="inline" opacity="0.4" fill="none" stroke="#3A50A3" stroke-miterlimit="10" width="89.3" height="89.3"/>
	
		<rect x="-119.1" y="301.7" display="inline" opacity="0.4" fill="none" stroke="#3A50A3" stroke-miterlimit="10" width="89.3" height="89.3"/>
	
		<rect x="-29.8" y="301.7" display="inline" opacity="0.4" fill="none" stroke="#3A50A3" stroke-miterlimit="10" width="89.3" height="89.3"/>
	
		<rect x="59.4" y="301.7" display="inline" opacity="0.4" fill="none" stroke="#3A50A3" stroke-miterlimit="10" width="89.3" height="89.3"/>
	
		<rect x="148.7" y="301.7" display="inline" opacity="0.4" fill="none" stroke="#3A50A3" stroke-miterlimit="10" width="89.3" height="89.3"/>
	
		<rect x="238" y="301.7" display="inline" opacity="0.4" fill="none" stroke="#3A50A3" stroke-miterlimit="10" width="89.3" height="89.3"/>
	
		<rect x="327.2" y="301.7" display="inline" opacity="0.4" fill="none" stroke="#3A50A3" stroke-miterlimit="10" width="89.3" height="89.3"/>
	
		<rect x="416.5" y="301.7" display="inline" opacity="0.4" fill="none" stroke="#3A50A3" stroke-miterlimit="10" width="89.3" height="89.3"/>
	
		<rect x="505.7" y="301.7" display="inline" opacity="0.4" fill="none" stroke="#3A50A3" stroke-miterlimit="10" width="89.3" height="89.3"/>
	
		<rect x="-297.6" y="391" display="inline" opacity="0.4" fill="none" stroke="#3A50A3" stroke-miterlimit="10" width="89.3" height="89.3"/>
	
		<rect x="-208.3" y="391" display="inline" opacity="0.4" fill="none" stroke="#3A50A3" stroke-miterlimit="10" width="89.3" height="89.3"/>
	
		<rect x="-119.1" y="391" display="inline" opacity="0.4" fill="none" stroke="#3A50A3" stroke-miterlimit="10" width="89.3" height="89.3"/>
	
		<rect x="-29.8" y="391" display="inline" opacity="0.4" fill="none" stroke="#3A50A3" stroke-miterlimit="10" width="89.3" height="89.3"/>
	
		<rect x="59.4" y="391" display="inline" opacity="0.4" fill="none" stroke="#3A50A3" stroke-miterlimit="10" width="89.3" height="89.3"/>
	
		<rect x="148.7" y="391" display="inline" opacity="0.4" fill="none" stroke="#3A50A3" stroke-miterlimit="10" width="89.3" height="89.3"/>
	
		<rect x="238" y="391" display="inline" opacity="0.4" fill="none" stroke="#3A50A3" stroke-miterlimit="10" width="89.3" height="89.3"/>
	
		<rect x="327.2" y="391" display="inline" opacity="0.4" fill="none" stroke="#3A50A3" stroke-miterlimit="10" width="89.3" height="89.3"/>
	
		<rect x="416.5" y="391" display="inline" opacity="0.4" fill="none" stroke="#3A50A3" stroke-miterlimit="10" width="89.3" height="89.3"/>
	
		<rect x="505.7" y="391" display="inline" opacity="0.4" fill="none" stroke="#3A50A3" stroke-miterlimit="10" width="89.3" height="89.3"/>
	
		<rect x="-297.6" y="480.2" display="inline" opacity="0.4" fill="none" stroke="#3A50A3" stroke-miterlimit="10" width="89.3" height="89.3"/>
	
		<rect x="-208.3" y="480.2" display="inline" opacity="0.4" fill="none" stroke="#3A50A3" stroke-miterlimit="10" width="89.3" height="89.3"/>
	
		<rect x="-119.1" y="480.2" display="inline" opacity="0.4" fill="none" stroke="#3A50A3" stroke-miterlimit="10" width="89.3" height="89.3"/>
	
		<rect x="-29.8" y="480.2" display="inline" opacity="0.4" fill="none" stroke="#3A50A3" stroke-miterlimit="10" width="89.3" height="89.3"/>
	
		<rect x="59.4" y="480.2" display="inline" opacity="0.4" fill="none" stroke="#3A50A3" stroke-miterlimit="10" width="89.3" height="89.3"/>
	
		<rect x="148.7" y="480.2" display="inline" opacity="0.4" fill="none" stroke="#3A50A3" stroke-miterlimit="10" width="89.3" height="89.3"/>
	
		<rect x="238" y="480.2" display="inline" opacity="0.4" fill="none" stroke="#3A50A3" stroke-miterlimit="10" width="89.3" height="89.3"/>
	
		<rect x="327.2" y="480.2" display="inline" opacity="0.4" fill="none" stroke="#3A50A3" stroke-miterlimit="10" width="89.3" height="89.3"/>
	
		<rect x="416.5" y="480.2" display="inline" opacity="0.4" fill="none" stroke="#3A50A3" stroke-miterlimit="10" width="89.3" height="89.3"/>
	
		<rect x="505.7" y="480.2" display="inline" opacity="0.4" fill="none" stroke="#3A50A3" stroke-miterlimit="10" width="89.3" height="89.3"/>
	
		<rect x="-297.6" y="569.5" display="inline" opacity="0.4" fill="none" stroke="#3A50A3" stroke-miterlimit="10" width="89.3" height="89.3"/>
	
		<rect x="-208.3" y="569.5" display="inline" opacity="0.4" fill="none" stroke="#3A50A3" stroke-miterlimit="10" width="89.3" height="89.3"/>
	
		<rect x="-119.1" y="569.5" display="inline" opacity="0.4" fill="none" stroke="#3A50A3" stroke-miterlimit="10" width="89.3" height="89.3"/>
	
		<rect x="-29.8" y="569.5" display="inline" opacity="0.4" fill="none" stroke="#3A50A3" stroke-miterlimit="10" width="89.3" height="89.3"/>
	
		<rect x="59.4" y="569.5" display="inline" opacity="0.4" fill="none" stroke="#3A50A3" stroke-miterlimit="10" width="89.3" height="89.3"/>
	
		<rect x="148.7" y="569.5" display="inline" opacity="0.4" fill="none" stroke="#3A50A3" stroke-miterlimit="10" width="89.3" height="89.3"/>
	
		<rect x="238" y="569.5" display="inline" opacity="0.4" fill="none" stroke="#3A50A3" stroke-miterlimit="10" width="89.3" height="89.3"/>
	
		<rect x="327.2" y="569.5" display="inline" opacity="0.4" fill="none" stroke="#3A50A3" stroke-miterlimit="10" width="89.3" height="89.3"/>
	
		<rect x="416.5" y="569.5" display="inline" opacity="0.4" fill="none" stroke="#3A50A3" stroke-miterlimit="10" width="89.3" height="89.3"/>
	
		<rect x="505.7" y="569.5" display="inline" opacity="0.4" fill="none" stroke="#3A50A3" stroke-miterlimit="10" width="89.3" height="89.3"/>
	
		<rect x="-297.6" y="658.8" display="inline" opacity="0.4" fill="none" stroke="#3A50A3" stroke-miterlimit="10" width="89.3" height="89.3"/>
	
		<rect x="-208.3" y="658.8" display="inline" opacity="0.4" fill="none" stroke="#3A50A3" stroke-miterlimit="10" width="89.3" height="89.3"/>
	
		<rect x="-119.1" y="658.8" display="inline" opacity="0.4" fill="none" stroke="#3A50A3" stroke-miterlimit="10" width="89.3" height="89.3"/>
	
		<rect x="-29.8" y="658.8" display="inline" opacity="0.4" fill="none" stroke="#3A50A3" stroke-miterlimit="10" width="89.3" height="89.3"/>
	
		<rect x="59.4" y="658.8" display="inline" opacity="0.4" fill="none" stroke="#3A50A3" stroke-miterlimit="10" width="89.3" height="89.3"/>
	
		<rect x="148.7" y="658.8" display="inline" opacity="0.4" fill="none" stroke="#3A50A3" stroke-miterlimit="10" width="89.3" height="89.3"/>
	
		<rect x="238" y="658.8" display="inline" opacity="0.4" fill="none" stroke="#3A50A3" stroke-miterlimit="10" width="89.3" height="89.3"/>
	
		<rect x="327.2" y="658.8" display="inline" opacity="0.4" fill="none" stroke="#3A50A3" stroke-miterlimit="10" width="89.3" height="89.3"/>
	
		<rect x="416.5" y="658.8" display="inline" opacity="0.4" fill="none" stroke="#3A50A3" stroke-miterlimit="10" width="89.3" height="89.3"/>
	
		<rect x="505.7" y="658.8" display="inline" opacity="0.4" fill="none" stroke="#3A50A3" stroke-miterlimit="10" width="89.3" height="89.3"/>
	
		<rect x="-297.6" y="748" display="inline" opacity="0.4" fill="none" stroke="#3A50A3" stroke-miterlimit="10" width="89.3" height="89.3"/>
	
		<rect x="-208.3" y="748" display="inline" opacity="0.4" fill="none" stroke="#3A50A3" stroke-miterlimit="10" width="89.3" height="89.3"/>
	
		<rect x="-119.1" y="748" display="inline" opacity="0.4" fill="none" stroke="#3A50A3" stroke-miterlimit="10" width="89.3" height="89.3"/>
	
		<rect x="-29.8" y="748" display="inline" opacity="0.4" fill="none" stroke="#3A50A3" stroke-miterlimit="10" width="89.3" height="89.3"/>
	
		<rect x="59.4" y="748" display="inline" opacity="0.4" fill="none" stroke="#3A50A3" stroke-miterlimit="10" width="89.3" height="89.3"/>
	
		<rect x="148.7" y="748" display="inline" opacity="0.4" fill="none" stroke="#3A50A3" stroke-miterlimit="10" width="89.3" height="89.3"/>
	
		<rect x="238" y="748" display="inline" opacity="0.4" fill="none" stroke="#3A50A3" stroke-miterlimit="10" width="89.3" height="89.3"/>
	
		<rect x="327.2" y="748" display="inline" opacity="0.4" fill="none" stroke="#3A50A3" stroke-miterlimit="10" width="89.3" height="89.3"/>
	
		<rect x="416.5" y="748" display="inline" opacity="0.4" fill="none" stroke="#3A50A3" stroke-miterlimit="10" width="89.3" height="89.3"/>
	
		<rect x="505.7" y="748" display="inline" opacity="0.4" fill="none" stroke="#3A50A3" stroke-miterlimit="10" width="89.3" height="89.3"/>
	
		<rect x="-297.6" y="837.3" display="inline" opacity="0.4" fill="none" stroke="#3A50A3" stroke-miterlimit="10" width="89.3" height="89.3"/>
	
		<rect x="-208.3" y="837.3" display="inline" opacity="0.4" fill="none" stroke="#3A50A3" stroke-miterlimit="10" width="89.3" height="89.3"/>
	
		<rect x="-119.1" y="837.3" display="inline" opacity="0.4" fill="none" stroke="#3A50A3" stroke-miterlimit="10" width="89.3" height="89.3"/>
	
		<rect x="-29.8" y="837.3" display="inline" opacity="0.4" fill="none" stroke="#3A50A3" stroke-miterlimit="10" width="89.3" height="89.3"/>
	
		<rect x="59.4" y="837.3" display="inline" opacity="0.4" fill="none" stroke="#3A50A3" stroke-miterlimit="10" width="89.3" height="89.3"/>
	
		<rect x="148.7" y="837.3" display="inline" opacity="0.4" fill="none" stroke="#3A50A3" stroke-miterlimit="10" width="89.3" height="89.3"/>
	
		<rect x="238" y="837.3" display="inline" opacity="0.4" fill="none" stroke="#3A50A3" stroke-miterlimit="10" width="89.3" height="89.3"/>
	
		<rect x="327.2" y="837.3" display="inline" opacity="0.4" fill="none" stroke="#3A50A3" stroke-miterlimit="10" width="89.3" height="89.3"/>
	
		<rect x="416.5" y="837.3" display="inline" opacity="0.4" fill="none" stroke="#3A50A3" stroke-miterlimit="10" width="89.3" height="89.3"/>
	
		<rect x="505.7" y="837.3" display="inline" opacity="0.4" fill="none" stroke="#3A50A3" stroke-miterlimit="10" width="89.3" height="89.3"/>
</g>
<g id="graph">
	<g id="asymptots">
		<g>
			<rect x="593.8" y="0" fill="#DEDDDD" width="2" height="10"/>
			<path fill="#DEDDDD" d="M595.8,768.5h-2v-20h2V768.5z M595.8,728.6h-2v-20h2V728.6z M595.8,688.7h-2v-20h2V688.7z M595.8,648.7
				h-2v-20h2V648.7z M595.8,608.8h-2v-20h2V608.8z M595.8,568.9h-2v-20h2V568.9z M595.8,529h-2v-20h2V529z M595.8,489.1h-2v-20h2
				V489.1z M595.8,449.1h-2v-20h2V449.1z M595.8,409.2h-2v-20h2V409.2z M595.8,369.3h-2v-20h2V369.3z M595.8,329.4h-2v-20h2V329.4z
				 M595.8,289.4h-2v-20h2V289.4z M595.8,249.5h-2v-20h2V249.5z M595.8,209.6h-2v-20h2V209.6z M595.8,169.7h-2v-20h2V169.7z
				 M595.8,129.8h-2v-20h2V129.8z M595.8,89.8h-2v-20h2V89.8z M595.8,49.9h-2V30h2V49.9z"/>
			<rect x="593.8" y="788.5" fill="#DEDDDD" width="2" height="10"/>
		</g>
		<g>
			<rect x="407.8" y="76.2" fill="#DEDDDD" width="2" height="10"/>
			<path fill="#DEDDDD" d="M409.8,472.7h-2v-19.3h2V472.7z M409.8,434h-2v-19.3h2V434z M409.8,395.4h-2V376h2V395.4z M409.8,356.7
				h-2v-19.3h2V356.7z M409.8,318.1h-2v-19.3h2V318.1z M409.8,279.4h-2v-19.3h2V279.4z M409.8,240.8h-2v-19.3h2V240.8z M409.8,202.1
				h-2v-19.3h2V202.1z M409.8,163.5h-2v-19.3h2V163.5z M409.8,124.8h-2v-19.3h2V124.8z"/>
			<rect x="407.8" y="492" fill="#DEDDDD" width="2" height="10"/>
		</g>
		<rect x="238" y="390" display="none" fill="#414EA1" width="194.3" height="388.3"/>
		<rect x="144.7" y="204.8" display="none" fill="#EE1E51" width="93.2" height="186.2"/>
		<path fill="#DEDDDD" d="M638.1,775.1l-9-17.9l1.8-0.9l9,17.9L638.1,775.1z M620.2,739.4l-9-17.9l1.8-0.9l9,17.9L620.2,739.4z
			 M602.2,703.6l-9-17.9l1.8-0.9l9,17.9L602.2,703.6z M584.3,667.8l-9-17.9l1.8-0.9l9,17.9L584.3,667.8z M566.4,632.1l-9-17.9
			l1.8-0.9l9,17.9L566.4,632.1z M548.5,596.3l-9-17.9l1.8-0.9l9,17.9L548.5,596.3z M530.6,560.5l-9-17.9l1.8-0.9l9,17.9L530.6,560.5
			z M512.7,524.8l-9-17.9l1.8-0.9l9,17.9L512.7,524.8z M494.8,489l-9-17.9l1.8-0.9l9,17.9L494.8,489z M476.9,453.2l-9-17.9l1.8-0.9
			l9,17.9L476.9,453.2z M459,417.5l-9-17.9l1.8-0.9l9,17.9L459,417.5z M441.1,381.7l-9-17.9l1.8-0.9l9,17.9L441.1,381.7z
			 M423.2,345.9l-9-17.9l1.8-0.9l9,17.9L423.2,345.9z M405.3,310.2l-9-17.9l1.8-0.9l9,17.9L405.3,310.2z M387.3,274.4l-9-17.9
			l1.8-0.9l9,17.9L387.3,274.4z M369.4,238.6l-9-17.9l1.8-0.9l9,17.9L369.4,238.6z M351.5,202.9l-9-17.9l1.8-0.9l9,17.9L351.5,202.9
			z M333.6,167.1l-9-17.9l1.8-0.9l9,17.9L333.6,167.1z M315.7,131.3l-9-17.9l1.8-0.9l9,17.9L315.7,131.3z"/>
		<path fill="#DEDDDD" d="M1000.2,815.7L986,801.5l1.4-1.4l14.1,14.1L1000.2,815.7z M971.9,787.4l-14.1-14.1l1.4-1.4l14.1,14.1
			L971.9,787.4z M943.6,759.1L929.5,745l1.4-1.4l14.1,14.1L943.6,759.1z M915.3,730.8l-14.1-14.1l1.4-1.4l14.1,14.1L915.3,730.8z
			 M887,702.5l-14.1-14.1l1.4-1.4l14.1,14.1L887,702.5z M858.7,674.2l-14.1-14.1l1.4-1.4l14.1,14.1L858.7,674.2z M830.5,646
			l-14.1-14.1l1.4-1.4l14.1,14.1L830.5,646z M802.2,617.7L788,603.5l1.4-1.4l14.1,14.1L802.2,617.7z M773.9,589.4l-14.1-14.1
			l1.4-1.4l14.1,14.1L773.9,589.4z M745.6,561.1L731.5,547l1.4-1.4l14.1,14.1L745.6,561.1z M717.3,532.8l-14.1-14.1l1.4-1.4
			l14.1,14.1L717.3,532.8z M689,504.5l-14.1-14.1l1.4-1.4l14.1,14.1L689,504.5z M660.8,476.3l-14.1-14.1l1.4-1.4l14.1,14.1
			L660.8,476.3z M632.5,448l-14.1-14.1l1.4-1.4l14.1,14.1L632.5,448z M604.2,419.7L590,405.5l1.4-1.4l14.1,14.1L604.2,419.7z
			 M575.9,391.4l-14.1-14.1l1.4-1.4l14.1,14.1L575.9,391.4z M547.6,363.1L533.5,349l1.4-1.4l14.1,14.1L547.6,363.1z M519.3,334.8
			l-14.1-14.1l1.4-1.4l14.1,14.1L519.3,334.8z M491,306.6l-14.1-14.1l1.4-1.4l14.1,14.1L491,306.6z M462.8,278.3l-3.6-3.6l1.4-1.4
			l3.6,3.6L462.8,278.3z"/>
		<path fill="#DEDDDD" d="M799.3,728.1l-8.9-17.9l1.8-0.9l8.9,17.9L799.3,728.1z M781.5,692.3l-8.9-17.9l1.8-0.9l8.9,17.9
			L781.5,692.3z M763.6,656.5l-8.9-17.9l1.8-0.9l8.9,17.9L763.6,656.5z M745.7,620.7l-8.9-17.9l1.8-0.9l8.9,17.9L745.7,620.7z
			 M727.9,585l-8.9-17.9l1.8-0.9l8.9,17.9L727.9,585z M710,549.2l-8.9-17.9l1.8-0.9l8.9,17.9L710,549.2z M692.1,513.4l-8.9-17.9
			l1.8-0.9l8.9,17.9L692.1,513.4z M674.3,477.6l-8.9-17.9l1.8-0.9l8.9,17.9L674.3,477.6z M656.4,441.8l-8.9-17.9l1.8-0.9l8.9,17.9
			L656.4,441.8z M638.6,406l-8.9-17.9l1.8-0.9l8.9,17.9L638.6,406z M620.7,370.2l-8.9-17.9l1.8-0.9l8.9,17.9L620.7,370.2z
			 M602.8,334.4l-8.9-17.9l1.8-0.9l8.9,17.9L602.8,334.4z"/>
		<g>
			<rect x="2" y="314.8" fill="#DEDDDD" width="10" height="2"/>
			<path fill="#DEDDDD" d="M549.8,316.8h-20.7v-2h20.7V316.8z M508.4,316.8h-20.7v-2h20.7V316.8z M467.1,316.8h-20.7v-2h20.7V316.8z
				 M425.7,316.8H405v-2h20.7V316.8z M384.3,316.8h-20.7v-2h20.7V316.8z M343,316.8h-20.7v-2H343V316.8z M301.6,316.8h-20.7v-2h20.7
				V316.8z M260.2,316.8h-20.7v-2h20.7V316.8z M218.9,316.8h-20.7v-2h20.7V316.8z M177.5,316.8h-20.7v-2h20.7V316.8z M136.1,316.8
				h-20.7v-2h20.7V316.8z M94.7,316.8H74.1v-2h20.7V316.8z M53.4,316.8H32.7v-2h20.7V316.8z"/>
			<rect x="570.5" y="314.8" fill="#DEDDDD" width="10" height="2"/>
		</g>
	</g>
	<g id="points">
		<path fill="#ED177D" d="M594.8,325.4c-4.8,0-8.7-3.9-8.7-8.7s3.9-8.7,8.7-8.7c4.8,0,8.7,3.9,8.7,8.7S599.6,325.4,594.8,325.4z
			 M594.8,311.6c-2.8,0-5.2,2.3-5.2,5.2s2.3,5.2,5.2,5.2s5.2-2.3,5.2-5.2S597.6,311.6,594.8,311.6z"/>
	</g>
</g>
<g id="axis">
	<rect x="2" y="501" fill="#8E8E8E" width="1000" height="2"/>
	<rect x="501" y="2" fill="#8E8E8E" width="2" height="808.5"/>
	<g id="horizontal_marks_1_">
		<rect x="593.8" y="495.1" fill="#8E8E8E" width="2" height="13.8"/>
		<rect x="687" y="495.1" fill="#8E8E8E" width="2" height="13.8"/>
		<rect x="779.8" y="495.1" fill="#8E8E8E" width="2" height="13.8"/>
		<rect x="873" y="495.1" fill="#8E8E8E" width="2" height="13.8"/>
		<rect x="965.8" y="495.1" fill="#8E8E8E" width="2" height="13.8"/>
		<rect x="128.6" y="495.1" fill="#8E8E8E" width="2" height="13.8"/>
		<rect x="221.8" y="495.1" fill="#8E8E8E" width="2" height="13.8"/>
		<rect x="314.6" y="495.1" fill="#8E8E8E" width="2" height="13.8"/>
		<rect x="407.8" y="495.1" fill="#8E8E8E" width="2" height="13.8"/>
		<rect x="35.8" y="495.1" fill="#8E8E8E" width="2" height="13.8"/>
	</g>
	<g id="vertical_marks_1_">
		<rect x="495.1" y="408" fill="#8E8E8E" width="13.8" height="2"/>
		<rect x="495.1" y="314.8" fill="#8E8E8E" width="13.8" height="2"/>
		<rect x="495.1" y="222" fill="#8E8E8E" width="13.8" height="2"/>
		<rect x="495.1" y="128.8" fill="#8E8E8E" width="13.8" height="2"/>
		<rect x="495.1" y="36" fill="#8E8E8E" width="13.8" height="2"/>
		<rect x="495.1" y="780" fill="#8E8E8E" width="13.8" height="2"/>
		<rect x="495.1" y="687.2" fill="#8E8E8E" width="13.8" height="2"/>
		<rect x="495.1" y="594" fill="#8E8E8E" width="13.8" height="2"/>
	</g>
	<g id="horizontal_labels">
		<g>
			<path fill="#383838" d="M595.9,515.3v9.3h1.8v1.2h-5.3v-1.2h2.1V517l-2,1.5l-0.7-1l3.1-2.2H595.9z"/>
		</g>
		<g>
			<path fill="#383838" d="M684.8,525.8c0-0.2,0-0.4,0-0.6c0-3.9,4.7-5.2,4.7-7.5c0-0.8-0.7-1.5-1.7-1.5c-0.8,0-1.5,0.4-2.1,0.9
				l-0.8-0.9c0.8-0.7,1.7-1.2,3-1.2c1.8,0,2.9,1.1,2.9,2.6c0,2.9-4.3,4.2-4.6,6.9h4.6v1.2H684.8z"/>
		</g>
		<g>
			<path fill="#383838" d="M777.3,525.1l0.6-1.1c0.6,0.4,1.3,0.8,2.3,0.8c1.3,0,2.1-0.8,2.1-1.8c0-1.1-0.9-2-2.8-2h-0.8v-1.1h0.8
				c1.8,0,2.6-0.9,2.6-1.9c0-0.9-0.8-1.6-1.8-1.6c-0.9,0-1.7,0.4-2.1,0.8l-0.6-1.1c0.6-0.4,1.5-0.9,2.8-0.9c2,0,3.1,1.2,3.1,2.6
				c0,1.2-0.6,1.9-1.7,2.5c1.3,0.5,2,1.4,2,2.7c0,1.6-1.1,3.1-3.6,3.1C778.9,526,777.9,525.5,777.3,525.1z"/>
		</g>
		<g>
			<path fill="#383838" d="M876.3,523.5v2.2h-1.3v-2.2h-4.5v-1.1l3.1-7.3l1.2,0.5l-2.8,6.6h3v-3h1.3v3h1.2v1.2H876.3z"/>
		</g>
		<g>
			<path fill="#383838" d="M966.3,526c-1.2,0-2.1-0.3-2.8-0.8l0.7-1.2c0.6,0.4,1.2,0.7,2.1,0.7c1.3,0,2.2-0.9,2.2-2.1
				c0-1.2-0.9-2.1-2.5-2.1h-1.9v-5.3h5.2v1.2h-3.9v2.9h0.8c2.3,0,3.7,1.3,3.7,3.2C970,524.5,968.5,526,966.3,526z"/>
		</g>
		<g>
			<path fill="#383838" d="M29.7,522.8v-1.2h5.1v1.2H29.7z"/>
			<path fill="#383838" d="M40.8,527.5c-1.2,0-2.1-0.3-2.8-0.8l0.7-1.2c0.6,0.4,1.2,0.7,2.1,0.7c1.3,0,2.2-0.9,2.2-2.1
				c0-1.2-0.9-2.1-2.5-2.1h-1.9v-5.3H44v1.2H40v2.8h0.8c2.3,0,3.7,1.3,3.7,3.2C44.5,526.1,43,527.5,40.8,527.5z"/>
		</g>
		<g>
			<path fill="#383838" d="M122.9,522.8v-1.2h5.1v1.2H122.9z"/>
			<path fill="#383838" d="M136.8,525.1v2.2h-1.4v-2.2H131V524l3.1-7.3l1.2,0.5l-2.8,6.6h3v-3h1.4v3h1.2v1.2H136.8z"/>
		</g>
		<g>
			<path fill="#383838" d="M215.7,522.8v-1.2h5.1v1.2H215.7z"/>
			<path fill="#383838" d="M223.8,526.6l0.6-1.1c0.6,0.4,1.3,0.8,2.3,0.8c1.3,0,2.1-0.8,2.1-1.8c0-1.1-0.9-2-2.8-2h-0.8v-1.1h0.8
				c1.8,0,2.6-0.9,2.6-1.9c0-0.9-0.8-1.6-1.8-1.6c-0.9,0-1.7,0.4-2.1,0.8l-0.6-1.1c0.6-0.4,1.5-0.9,2.8-0.9c2,0,3.1,1.2,3.1,2.6
				c0,1.2-0.6,2-1.7,2.5c1.3,0.5,2,1.4,2,2.7c0,1.6-1.1,3.1-3.6,3.1C225.4,527.5,224.4,527.1,223.8,526.6z"/>
		</g>
		<g>
			<path fill="#383838" d="M308.9,522.8v-1.2h5.1v1.2H308.9z"/>
			<path fill="#383838" d="M317.3,527.3c0-0.2,0-0.4,0-0.6c0-3.9,4.7-5.2,4.7-7.5c0-0.8-0.7-1.5-1.7-1.5c-0.8,0-1.5,0.4-2.1,0.9
				l-0.8-0.9c0.8-0.7,1.7-1.2,3-1.2c1.8,0,2.9,1.1,2.9,2.6c0,2.9-4.3,4.2-4.6,6.9h4.6v1.2H317.3z"/>
		</g>
		<g>
			<path fill="#383838" d="M401.7,522.8v-1.2h5.1v1.2H401.7z"/>
			<path fill="#383838" d="M414.4,516.8v9.3h1.8v1.2H411v-1.2h2.1v-7.6l-2,1.5l-0.7-1l3.1-2.2H414.4z"/>
		</g>
		<g>
			<path fill="#383838" d="M988.4,520.7l-4.4-5.1l1.8-1.5l4,5.2l3.9-5.1l1.7,1.4l-4.3,5l4.7,5.5l-1.7,1.4l-4.4-5.4l-4.3,5.4
				l-1.6-1.4L988.4,520.7z"/>
		</g>
	</g>
	<g id="vertical_lables">
		<g>
			<path fill="#383838" d="M486.3,402.2v9.3h1.8v1.2h-5.3v-1.2h2.1v-7.6l-2,1.5l-0.7-1l3.1-2.2H486.3z"/>
		</g>
		<g>
			<path fill="#383838" d="M481.9,319.7c0-0.2,0-0.4,0-0.6c0-3.9,4.7-5.2,4.7-7.5c0-0.8-0.7-1.5-1.7-1.5c-0.8,0-1.5,0.4-2.1,0.9
				l-0.8-0.9c0.8-0.7,1.7-1.2,3-1.2c1.8,0,2.9,1.1,2.9,2.6c0,2.9-4.3,4.2-4.6,6.9h4.6v1.2H481.9z"/>
		</g>
		<g>
			<path fill="#383838" d="M481.6,226.3l0.6-1.1c0.6,0.4,1.3,0.8,2.3,0.8c1.3,0,2.1-0.8,2.1-1.8c0-1.1-0.9-2-2.8-2H483V221h0.8
				c1.8,0,2.6-0.9,2.6-1.9c0-0.9-0.8-1.6-1.8-1.6c-0.9,0-1.7,0.4-2.1,0.8l-0.6-1.1c0.6-0.4,1.5-0.9,2.8-0.9c2,0,3.1,1.2,3.1,2.6
				c0,1.2-0.6,1.9-1.7,2.5c1.3,0.5,2,1.4,2,2.7c0,1.6-1.1,3.1-3.6,3.1C483.2,227.2,482.3,226.8,481.6,226.3z"/>
		</g>
		<g>
			<path fill="#383838" d="M487.4,131.8v2.2h-1.4v-2.2h-4.5v-1.1l3.1-7.3l1.2,0.5l-2.8,6.6h3v-3h1.4v3h1.2v1.2H487.4z"/>
		</g>
		<g>
			<path fill="#383838" d="M484.7,41.1c-1.2,0-2.1-0.3-2.8-0.8l0.7-1.2c0.6,0.4,1.2,0.7,2.1,0.7c1.3,0,2.2-0.9,2.2-2.1
				c0-1.2-0.9-2.1-2.5-2.1h-1.9v-5.3h5.2v1.2h-3.9v2.9h0.8c2.3,0,3.7,1.3,3.7,3.2C488.4,39.7,486.9,41.1,484.7,41.1z"/>
		</g>
		<g>
			<path fill="#383838" d="M473.6,781.1v-1.2h5.1v1.2H473.6z"/>
			<path fill="#383838" d="M481.6,784.9l0.6-1.1c0.6,0.4,1.3,0.8,2.3,0.8c1.3,0,2.1-0.8,2.1-1.8c0-1.1-0.9-2-2.8-2H483v-1.1h0.8
				c1.8,0,2.6-0.9,2.6-1.9c0-0.9-0.8-1.6-1.8-1.6c-0.9,0-1.7,0.4-2.1,0.8l-0.6-1.1c0.6-0.4,1.5-0.9,2.8-0.9c2,0,3.1,1.2,3.1,2.6
				c0,1.2-0.6,2-1.7,2.5c1.3,0.5,2,1.4,2,2.7c0,1.6-1.1,3.1-3.6,3.1C483.2,785.8,482.3,785.4,481.6,784.9z"/>
		</g>
		<g>
			<path fill="#383838" d="M473.6,688.1v-1.2h5.1v1.2H473.6z"/>
			<path fill="#383838" d="M481.9,692.7c0-0.2,0-0.4,0-0.6c0-3.9,4.7-5.2,4.7-7.5c0-0.8-0.7-1.5-1.7-1.5c-0.8,0-1.5,0.4-2.1,0.9
				l-0.8-0.9c0.8-0.7,1.7-1.2,3-1.2c1.8,0,2.9,1.1,2.9,2.6c0,2.9-4.3,4.2-4.6,6.9h4.6v1.2H481.9z"/>
		</g>
		<g>
			<path fill="#383838" d="M473.6,595.1v-1.2h5.1v1.2H473.6z"/>
			<path fill="#383838" d="M486.3,589.1v9.3h1.8v1.2h-5.3v-1.2h2.1v-7.6l-2,1.5l-0.7-1l3.1-2.2H486.3z"/>
		</g>
		<g>
			<path fill="#383838" d="M515.3,26.8l0.5-1.9c0.4,0.2,1,0.4,1.8,0.4c1.4,0,2.4-0.7,3.4-3.3l0.6-1.5h-1.2l-5.1-11.4l2-0.9l4.8,10.8
				L526,8.3l2.1,0.8l-4.8,13c-1.5,4-3.2,5.1-5.7,5.1C516.5,27.3,515.8,27,515.3,26.8z"/>
		</g>
		<g>
			<path fill="#ED177D" d="M27.4,283.4c-0.7-0.4-1.5-0.7-2.4-0.7c-1.4,0-2.3,0.9-2.3,2.6v1.7h3.8v1.9h-3.8v10.6h-2.2v-10.6h-2v-1.9
				h2v-1.5c0-2.9,1.8-4.7,4.4-4.7c1.4,0,2.3,0.4,3.3,0.8L27.4,283.4z"/>
			<path fill="#ED177D" d="M32.8,301.8l-1.3,0.8c-2.1-3.7-3.3-7.2-3.3-11.1c0-4.1,1.2-7.6,3.3-11.1l1.3,0.8
				c-1.2,2.8-2.2,6.3-2.2,10.3S31.6,298.9,32.8,301.8z"/>
			<path fill="#ED177D" d="M39.2,292.9l-4.4-5.1l1.7-1.5l4,5.2l3.9-5.1l1.7,1.4l-4.3,5l4.7,5.5l-1.7,1.4l-4.4-5.4l-4.3,5.4l-1.6-1.4
				L39.2,292.9z"/>
			<path fill="#ED177D" d="M48.2,281.1l1.3-0.8c2,3.5,3.3,6.9,3.3,11.1c0,3.9-1.2,7.4-3.3,11.1l-1.3-0.8c1.2-2.9,2.2-6.3,2.2-10.3
				S49.5,283.9,48.2,281.1z"/>
		</g>
	</g>
	<g id="arrow">
		<polygon fill="#8E8E8E" points="508.1,14.5 502,4 495.9,14.5 494.1,13.5 502,0 509.9,13.5 		"/>
		<polygon fill="#8E8E8E" points="13.5,509.9 0,502 13.5,494.1 14.5,495.9 4,502 14.5,508.1 		"/>
		<polygon fill="#8E8E8E" points="502,812.4 494.1,799 495.9,798 502,808.5 508.1,798 509.9,799 		"/>
		<polygon fill="#8E8E8E" points="990.5,509.9 989.5,508.1 1000,502 989.5,495.9 990.5,494.1 1004,502 		"/>
	</g>
</g>
<g id="line">
	<path fill="#ED177D" d="M999.6,811.7C987.8,799.9,709.8,521.9,694,500.8c-19.3-25.8-94.2-171-97.4-177.2l3.1-1.6
		c0.8,1.5,78,151.2,97.1,176.7c15.7,20.9,302.4,307.6,305.3,310.5L999.6,811.7z"/>
	<path fill="#ED177D" d="M554.7,579c-15.3,0-35.2-37.5-50.9-70.2c-1.6-3.4-2.8-5.8-3.3-6.7c-0.3-0.5-0.7-1.2-1.1-2.1
		c-5.4-9.9-21.8-40-46.6-40c-35.3,0-42.1,41.9-42.2,42.3L407,502c0-59.9-10.8-106.5-28.8-124.5C325.4,324.6,5.2,325.5,2,325.6l0-3.5
		c0.8,0,81.9-0.3,168.6,6c116.7,8.5,187.4,24.3,210.1,47c17.4,17.4,28.3,59.9,29.7,114.9c5-13.4,16.7-33.4,42.3-33.4
		c26.9,0,44.1,31.5,49.7,41.8c0.4,0.8,0.8,1.5,1.1,2c0.6,1,1.7,3.4,3.4,7c8.1,16.9,32.7,68.2,47.7,68.2c1.2,0,2.4-0.6,3.6-1.8
		c11.1-11.3,25.5-73.5,30.7-305.6c3.1-139.2,1.3-275.1,1.3-276.5l3.5,0c0.3,22.2,6.9,544.2-33,584.6C558.9,578,556.8,579,554.7,579z
		"/>
</g>
</svg>
