<?xml version="1.0" encoding="utf-8"?>
<!-- Generator: Adobe Illustrator 18.0.0, SVG Export Plug-In . SVG Version: 6.00 Build 0)  -->
<!DOCTYPE svg PUBLIC "-//W3C//DTD SVG 1.0//EN" "http://www.w3.org/TR/2001/REC-SVG-20010904/DTD/svg10.dtd">
<svg version="1.0" xmlns="http://www.w3.org/2000/svg" xmlns:xlink="http://www.w3.org/1999/xlink" x="0px" y="0px"
	 viewBox="0 0 1004 820" enable-background="new 0 0 1004 820" xml:space="preserve">
<g id="background">
</g>
<g id="grid" display="none">
	
		<rect x="-297.6" y="34" display="inline" opacity="0.4" fill="none" stroke="#3A50A3" stroke-miterlimit="10" width="89.3" height="89.3"/>
	
		<rect x="-208.3" y="34" display="inline" opacity="0.4" fill="none" stroke="#3A50A3" stroke-miterlimit="10" width="89.3" height="89.3"/>
	
		<rect x="-119.1" y="34" display="inline" opacity="0.4" fill="none" stroke="#3A50A3" stroke-miterlimit="10" width="89.3" height="89.3"/>
	
		<rect x="-29.8" y="34" display="inline" opacity="0.4" fill="none" stroke="#3A50A3" stroke-miterlimit="10" width="89.3" height="89.3"/>
	
		<rect x="59.4" y="34" display="inline" opacity="0.4" fill="none" stroke="#3A50A3" stroke-miterlimit="10" width="89.3" height="89.3"/>
	
		<rect x="148.7" y="34" display="inline" opacity="0.4" fill="none" stroke="#3A50A3" stroke-miterlimit="10" width="89.3" height="89.3"/>
	
		<rect x="238" y="34" display="inline" opacity="0.4" fill="none" stroke="#3A50A3" stroke-miterlimit="10" width="89.3" height="89.3"/>
	
		<rect x="327.2" y="34" display="inline" opacity="0.4" fill="none" stroke="#3A50A3" stroke-miterlimit="10" width="89.3" height="89.3"/>
	
		<rect x="416.5" y="34" display="inline" opacity="0.4" fill="none" stroke="#3A50A3" stroke-miterlimit="10" width="89.3" height="89.3"/>
	
		<rect x="505.7" y="34" display="inline" opacity="0.4" fill="none" stroke="#3A50A3" stroke-miterlimit="10" width="89.3" height="89.3"/>
	
		<rect x="-297.6" y="123.2" display="inline" opacity="0.4" fill="none" stroke="#3A50A3" stroke-miterlimit="10" width="89.3" height="89.3"/>
	
		<rect x="-208.3" y="123.2" display="inline" opacity="0.4" fill="none" stroke="#3A50A3" stroke-miterlimit="10" width="89.3" height="89.3"/>
	
		<rect x="-119.1" y="123.2" display="inline" opacity="0.4" fill="none" stroke="#3A50A3" stroke-miterlimit="10" width="89.3" height="89.3"/>
	
		<rect x="-29.8" y="123.2" display="inline" opacity="0.4" fill="none" stroke="#3A50A3" stroke-miterlimit="10" width="89.3" height="89.3"/>
	
		<rect x="59.4" y="123.2" display="inline" opacity="0.4" fill="none" stroke="#3A50A3" stroke-miterlimit="10" width="89.3" height="89.3"/>
	
		<rect x="148.7" y="123.2" display="inline" opacity="0.4" fill="none" stroke="#3A50A3" stroke-miterlimit="10" width="89.3" height="89.3"/>
	
		<rect x="238" y="123.2" display="inline" opacity="0.4" fill="none" stroke="#3A50A3" stroke-miterlimit="10" width="89.3" height="89.3"/>
	
		<rect x="327.2" y="123.2" display="inline" opacity="0.4" fill="none" stroke="#3A50A3" stroke-miterlimit="10" width="89.3" height="89.3"/>
	
		<rect x="416.5" y="123.2" display="inline" opacity="0.4" fill="none" stroke="#3A50A3" stroke-miterlimit="10" width="89.3" height="89.3"/>
	
		<rect x="505.7" y="123.2" display="inline" opacity="0.4" fill="none" stroke="#3A50A3" stroke-miterlimit="10" width="89.3" height="89.3"/>
	
		<rect x="-297.6" y="212.5" display="inline" opacity="0.4" fill="none" stroke="#3A50A3" stroke-miterlimit="10" width="89.3" height="89.3"/>
	
		<rect x="-208.3" y="212.5" display="inline" opacity="0.4" fill="none" stroke="#3A50A3" stroke-miterlimit="10" width="89.3" height="89.3"/>
	
		<rect x="-119.1" y="212.5" display="inline" opacity="0.4" fill="none" stroke="#3A50A3" stroke-miterlimit="10" width="89.3" height="89.3"/>
	
		<rect x="-29.8" y="212.5" display="inline" opacity="0.4" fill="none" stroke="#3A50A3" stroke-miterlimit="10" width="89.3" height="89.3"/>
	
		<rect x="59.4" y="212.5" display="inline" opacity="0.4" fill="none" stroke="#3A50A3" stroke-miterlimit="10" width="89.3" height="89.3"/>
	
		<rect x="148.7" y="212.5" display="inline" opacity="0.4" fill="none" stroke="#3A50A3" stroke-miterlimit="10" width="89.3" height="89.3"/>
	
		<rect x="238" y="212.5" display="inline" opacity="0.4" fill="none" stroke="#3A50A3" stroke-miterlimit="10" width="89.3" height="89.3"/>
	
		<rect x="327.2" y="212.5" display="inline" opacity="0.4" fill="none" stroke="#3A50A3" stroke-miterlimit="10" width="89.3" height="89.3"/>
	
		<rect x="416.5" y="212.5" display="inline" opacity="0.4" fill="none" stroke="#3A50A3" stroke-miterlimit="10" width="89.3" height="89.3"/>
	
		<rect x="505.7" y="212.5" display="inline" opacity="0.4" fill="none" stroke="#3A50A3" stroke-miterlimit="10" width="89.3" height="89.3"/>
	
		<rect x="-297.6" y="301.7" display="inline" opacity="0.4" fill="none" stroke="#3A50A3" stroke-miterlimit="10" width="89.3" height="89.3"/>
	
		<rect x="-208.3" y="301.7" display="inline" opacity="0.4" fill="none" stroke="#3A50A3" stroke-miterlimit="10" width="89.3" height="89.3"/>
	
		<rect x="-119.1" y="301.7" display="inline" opacity="0.4" fill="none" stroke="#3A50A3" stroke-miterlimit="10" width="89.3" height="89.3"/>
	
		<rect x="-29.8" y="301.7" display="inline" opacity="0.4" fill="none" stroke="#3A50A3" stroke-miterlimit="10" width="89.3" height="89.3"/>
	
		<rect x="59.4" y="301.7" display="inline" opacity="0.4" fill="none" stroke="#3A50A3" stroke-miterlimit="10" width="89.3" height="89.3"/>
	
		<rect x="148.7" y="301.7" display="inline" opacity="0.4" fill="none" stroke="#3A50A3" stroke-miterlimit="10" width="89.3" height="89.3"/>
	
		<rect x="238" y="301.7" display="inline" opacity="0.4" fill="none" stroke="#3A50A3" stroke-miterlimit="10" width="89.3" height="89.3"/>
	
		<rect x="327.2" y="301.7" display="inline" opacity="0.4" fill="none" stroke="#3A50A3" stroke-miterlimit="10" width="89.3" height="89.3"/>
	
		<rect x="416.5" y="301.7" display="inline" opacity="0.4" fill="none" stroke="#3A50A3" stroke-miterlimit="10" width="89.3" height="89.3"/>
	
		<rect x="505.7" y="301.7" display="inline" opacity="0.4" fill="none" stroke="#3A50A3" stroke-miterlimit="10" width="89.3" height="89.3"/>
	
		<rect x="-297.6" y="391" display="inline" opacity="0.4" fill="none" stroke="#3A50A3" stroke-miterlimit="10" width="89.3" height="89.3"/>
	
		<rect x="-208.3" y="391" display="inline" opacity="0.4" fill="none" stroke="#3A50A3" stroke-miterlimit="10" width="89.3" height="89.3"/>
	
		<rect x="-119.1" y="391" display="inline" opacity="0.4" fill="none" stroke="#3A50A3" stroke-miterlimit="10" width="89.3" height="89.3"/>
	
		<rect x="-29.8" y="391" display="inline" opacity="0.4" fill="none" stroke="#3A50A3" stroke-miterlimit="10" width="89.3" height="89.3"/>
	
		<rect x="59.4" y="391" display="inline" opacity="0.4" fill="none" stroke="#3A50A3" stroke-miterlimit="10" width="89.3" height="89.3"/>
	
		<rect x="148.7" y="391" display="inline" opacity="0.4" fill="none" stroke="#3A50A3" stroke-miterlimit="10" width="89.3" height="89.3"/>
	
		<rect x="238" y="391" display="inline" opacity="0.4" fill="none" stroke="#3A50A3" stroke-miterlimit="10" width="89.3" height="89.3"/>
	
		<rect x="327.2" y="391" display="inline" opacity="0.4" fill="none" stroke="#3A50A3" stroke-miterlimit="10" width="89.3" height="89.3"/>
	
		<rect x="416.5" y="391" display="inline" opacity="0.4" fill="none" stroke="#3A50A3" stroke-miterlimit="10" width="89.3" height="89.3"/>
	
		<rect x="505.7" y="391" display="inline" opacity="0.4" fill="none" stroke="#3A50A3" stroke-miterlimit="10" width="89.3" height="89.3"/>
	
		<rect x="-297.6" y="480.2" display="inline" opacity="0.4" fill="none" stroke="#3A50A3" stroke-miterlimit="10" width="89.3" height="89.3"/>
	
		<rect x="-208.3" y="480.2" display="inline" opacity="0.4" fill="none" stroke="#3A50A3" stroke-miterlimit="10" width="89.3" height="89.3"/>
	
		<rect x="-119.1" y="480.2" display="inline" opacity="0.4" fill="none" stroke="#3A50A3" stroke-miterlimit="10" width="89.3" height="89.3"/>
	
		<rect x="-29.8" y="480.2" display="inline" opacity="0.4" fill="none" stroke="#3A50A3" stroke-miterlimit="10" width="89.3" height="89.3"/>
	
		<rect x="59.4" y="480.2" display="inline" opacity="0.4" fill="none" stroke="#3A50A3" stroke-miterlimit="10" width="89.3" height="89.3"/>
	
		<rect x="148.7" y="480.2" display="inline" opacity="0.4" fill="none" stroke="#3A50A3" stroke-miterlimit="10" width="89.3" height="89.3"/>
	
		<rect x="238" y="480.2" display="inline" opacity="0.4" fill="none" stroke="#3A50A3" stroke-miterlimit="10" width="89.3" height="89.3"/>
	
		<rect x="327.2" y="480.2" display="inline" opacity="0.4" fill="none" stroke="#3A50A3" stroke-miterlimit="10" width="89.3" height="89.3"/>
	
		<rect x="416.5" y="480.2" display="inline" opacity="0.4" fill="none" stroke="#3A50A3" stroke-miterlimit="10" width="89.3" height="89.3"/>
	
		<rect x="505.7" y="480.2" display="inline" opacity="0.4" fill="none" stroke="#3A50A3" stroke-miterlimit="10" width="89.3" height="89.3"/>
	
		<rect x="-297.6" y="569.5" display="inline" opacity="0.4" fill="none" stroke="#3A50A3" stroke-miterlimit="10" width="89.3" height="89.3"/>
	
		<rect x="-208.3" y="569.5" display="inline" opacity="0.4" fill="none" stroke="#3A50A3" stroke-miterlimit="10" width="89.3" height="89.3"/>
	
		<rect x="-119.1" y="569.5" display="inline" opacity="0.4" fill="none" stroke="#3A50A3" stroke-miterlimit="10" width="89.3" height="89.3"/>
	
		<rect x="-29.8" y="569.5" display="inline" opacity="0.4" fill="none" stroke="#3A50A3" stroke-miterlimit="10" width="89.3" height="89.3"/>
	
		<rect x="59.4" y="569.5" display="inline" opacity="0.4" fill="none" stroke="#3A50A3" stroke-miterlimit="10" width="89.3" height="89.3"/>
	
		<rect x="148.7" y="569.5" display="inline" opacity="0.4" fill="none" stroke="#3A50A3" stroke-miterlimit="10" width="89.3" height="89.3"/>
	
		<rect x="238" y="569.5" display="inline" opacity="0.4" fill="none" stroke="#3A50A3" stroke-miterlimit="10" width="89.3" height="89.3"/>
	
		<rect x="327.2" y="569.5" display="inline" opacity="0.4" fill="none" stroke="#3A50A3" stroke-miterlimit="10" width="89.3" height="89.3"/>
	
		<rect x="416.5" y="569.5" display="inline" opacity="0.4" fill="none" stroke="#3A50A3" stroke-miterlimit="10" width="89.3" height="89.3"/>
	
		<rect x="505.7" y="569.5" display="inline" opacity="0.4" fill="none" stroke="#3A50A3" stroke-miterlimit="10" width="89.3" height="89.3"/>
	
		<rect x="-297.6" y="658.8" display="inline" opacity="0.4" fill="none" stroke="#3A50A3" stroke-miterlimit="10" width="89.3" height="89.3"/>
	
		<rect x="-208.3" y="658.8" display="inline" opacity="0.4" fill="none" stroke="#3A50A3" stroke-miterlimit="10" width="89.3" height="89.3"/>
	
		<rect x="-119.1" y="658.8" display="inline" opacity="0.4" fill="none" stroke="#3A50A3" stroke-miterlimit="10" width="89.3" height="89.3"/>
	
		<rect x="-29.8" y="658.8" display="inline" opacity="0.4" fill="none" stroke="#3A50A3" stroke-miterlimit="10" width="89.3" height="89.3"/>
	
		<rect x="59.4" y="658.8" display="inline" opacity="0.4" fill="none" stroke="#3A50A3" stroke-miterlimit="10" width="89.3" height="89.3"/>
	
		<rect x="148.7" y="658.8" display="inline" opacity="0.4" fill="none" stroke="#3A50A3" stroke-miterlimit="10" width="89.3" height="89.3"/>
	
		<rect x="238" y="658.8" display="inline" opacity="0.4" fill="none" stroke="#3A50A3" stroke-miterlimit="10" width="89.3" height="89.3"/>
	
		<rect x="327.2" y="658.8" display="inline" opacity="0.4" fill="none" stroke="#3A50A3" stroke-miterlimit="10" width="89.3" height="89.3"/>
	
		<rect x="416.5" y="658.8" display="inline" opacity="0.4" fill="none" stroke="#3A50A3" stroke-miterlimit="10" width="89.3" height="89.3"/>
	
		<rect x="505.7" y="658.8" display="inline" opacity="0.4" fill="none" stroke="#3A50A3" stroke-miterlimit="10" width="89.3" height="89.3"/>
	
		<rect x="-297.6" y="748" display="inline" opacity="0.4" fill="none" stroke="#3A50A3" stroke-miterlimit="10" width="89.3" height="89.3"/>
	
		<rect x="-208.3" y="748" display="inline" opacity="0.4" fill="none" stroke="#3A50A3" stroke-miterlimit="10" width="89.3" height="89.3"/>
	
		<rect x="-119.1" y="748" display="inline" opacity="0.4" fill="none" stroke="#3A50A3" stroke-miterlimit="10" width="89.3" height="89.3"/>
	
		<rect x="-29.8" y="748" display="inline" opacity="0.4" fill="none" stroke="#3A50A3" stroke-miterlimit="10" width="89.3" height="89.3"/>
	
		<rect x="59.4" y="748" display="inline" opacity="0.4" fill="none" stroke="#3A50A3" stroke-miterlimit="10" width="89.3" height="89.3"/>
	
		<rect x="148.7" y="748" display="inline" opacity="0.4" fill="none" stroke="#3A50A3" stroke-miterlimit="10" width="89.3" height="89.3"/>
	
		<rect x="238" y="748" display="inline" opacity="0.4" fill="none" stroke="#3A50A3" stroke-miterlimit="10" width="89.3" height="89.3"/>
	
		<rect x="327.2" y="748" display="inline" opacity="0.4" fill="none" stroke="#3A50A3" stroke-miterlimit="10" width="89.3" height="89.3"/>
	
		<rect x="416.5" y="748" display="inline" opacity="0.4" fill="none" stroke="#3A50A3" stroke-miterlimit="10" width="89.3" height="89.3"/>
	
		<rect x="505.7" y="748" display="inline" opacity="0.4" fill="none" stroke="#3A50A3" stroke-miterlimit="10" width="89.3" height="89.3"/>
	
		<rect x="-297.6" y="837.3" display="inline" opacity="0.4" fill="none" stroke="#3A50A3" stroke-miterlimit="10" width="89.3" height="89.3"/>
	
		<rect x="-208.3" y="837.3" display="inline" opacity="0.4" fill="none" stroke="#3A50A3" stroke-miterlimit="10" width="89.3" height="89.3"/>
	
		<rect x="-119.1" y="837.3" display="inline" opacity="0.4" fill="none" stroke="#3A50A3" stroke-miterlimit="10" width="89.3" height="89.3"/>
	
		<rect x="-29.8" y="837.3" display="inline" opacity="0.4" fill="none" stroke="#3A50A3" stroke-miterlimit="10" width="89.3" height="89.3"/>
	
		<rect x="59.4" y="837.3" display="inline" opacity="0.4" fill="none" stroke="#3A50A3" stroke-miterlimit="10" width="89.3" height="89.3"/>
	
		<rect x="148.7" y="837.3" display="inline" opacity="0.4" fill="none" stroke="#3A50A3" stroke-miterlimit="10" width="89.3" height="89.3"/>
	
		<rect x="238" y="837.3" display="inline" opacity="0.4" fill="none" stroke="#3A50A3" stroke-miterlimit="10" width="89.3" height="89.3"/>
	
		<rect x="327.2" y="837.3" display="inline" opacity="0.4" fill="none" stroke="#3A50A3" stroke-miterlimit="10" width="89.3" height="89.3"/>
	
		<rect x="416.5" y="837.3" display="inline" opacity="0.4" fill="none" stroke="#3A50A3" stroke-miterlimit="10" width="89.3" height="89.3"/>
	
		<rect x="505.7" y="837.3" display="inline" opacity="0.4" fill="none" stroke="#3A50A3" stroke-miterlimit="10" width="89.3" height="89.3"/>
</g>
<g id="graph">
	<g id="asymptots">
		<g>
			<rect x="593.8" y="0" fill="#DEDDDD" width="2" height="10"/>
			<path fill="#DEDDDD" d="M595.8,768.5h-2v-20h2V768.5z M595.8,728.6h-2v-20h2V728.6z M595.8,688.7h-2v-20h2V688.7z M595.8,648.7
				h-2v-20h2V648.7z M595.8,608.8h-2v-20h2V608.8z M595.8,568.9h-2v-20h2V568.9z M595.8,529h-2v-20h2V529z M595.8,489.1h-2v-20h2
				V489.1z M595.8,449.1h-2v-20h2V449.1z M595.8,409.2h-2v-20h2V409.2z M595.8,369.3h-2v-20h2V369.3z M595.8,329.4h-2v-20h2V329.4z
				 M595.8,289.4h-2v-20h2V289.4z M595.8,249.5h-2v-20h2V249.5z M595.8,209.6h-2v-20h2V209.6z M595.8,169.7h-2v-20h2V169.7z
				 M595.8,129.8h-2v-20h2V129.8z M595.8,89.8h-2v-20h2V89.8z M595.8,49.9h-2V30h2V49.9z"/>
			<rect x="593.8" y="788.5" fill="#DEDDDD" width="2" height="10"/>
		</g>
		<g>
			<rect x="407.8" y="76.2" fill="#DEDDDD" width="2" height="10"/>
			<path fill="#DEDDDD" d="M409.8,472.7h-2v-19.3h2V472.7z M409.8,434h-2v-19.3h2V434z M409.8,395.4h-2V376h2V395.4z M409.8,356.7
				h-2v-19.3h2V356.7z M409.8,318.1h-2v-19.3h2V318.1z M409.8,279.4h-2v-19.3h2V279.4z M409.8,240.8h-2v-19.3h2V240.8z M409.8,202.1
				h-2v-19.3h2V202.1z M409.8,163.5h-2v-19.3h2V163.5z M409.8,124.8h-2v-19.3h2V124.8z"/>
			<rect x="407.8" y="492" fill="#DEDDDD" width="2" height="10"/>
		</g>
		<rect x="238" y="390" display="none" fill="#414EA1" width="194.3" height="388.3"/>
		<rect x="144.7" y="204.8" display="none" fill="#EE1E51" width="93.2" height="186.2"/>
		<path fill="#DEDDDD" d="M638.1,775.1l-9-17.9l1.8-0.9l9,17.9L638.1,775.1z M620.2,739.4l-9-17.9l1.8-0.9l9,17.9L620.2,739.4z
			 M602.2,703.6l-9-17.9l1.8-0.9l9,17.9L602.2,703.6z M584.3,667.8l-9-17.9l1.8-0.9l9,17.9L584.3,667.8z M566.4,632.1l-9-17.9
			l1.8-0.9l9,17.9L566.4,632.1z M548.5,596.3l-9-17.9l1.8-0.9l9,17.9L548.5,596.3z M530.6,560.5l-9-17.9l1.8-0.9l9,17.9L530.6,560.5
			z M512.7,524.8l-9-17.9l1.8-0.9l9,17.9L512.7,524.8z M494.8,489l-9-17.9l1.8-0.9l9,17.9L494.8,489z M476.9,453.2l-9-17.9l1.8-0.9
			l9,17.9L476.9,453.2z M459,417.5l-9-17.9l1.8-0.9l9,17.9L459,417.5z M441.1,381.7l-9-17.9l1.8-0.9l9,17.9L441.1,381.7z
			 M423.2,345.9l-9-17.9l1.8-0.9l9,17.9L423.2,345.9z M405.3,310.2l-9-17.9l1.8-0.9l9,17.9L405.3,310.2z M387.3,274.4l-9-17.9
			l1.8-0.9l9,17.9L387.3,274.4z M369.4,238.6l-9-17.9l1.8-0.9l9,17.9L369.4,238.6z M351.5,202.9l-9-17.9l1.8-0.9l9,17.9L351.5,202.9
			z M333.6,167.1l-9-17.9l1.8-0.9l9,17.9L333.6,167.1z M315.7,131.3l-9-17.9l1.8-0.9l9,17.9L315.7,131.3z"/>
		<path fill="#DEDDDD" d="M1000.2,815.7L986,801.5l1.4-1.4l14.1,14.1L1000.2,815.7z M971.9,787.4l-14.1-14.1l1.4-1.4l14.1,14.1
			L971.9,787.4z M943.6,759.1L929.5,745l1.4-1.4l14.1,14.1L943.6,759.1z M915.3,730.8l-14.1-14.1l1.4-1.4l14.1,14.1L915.3,730.8z
			 M887,702.5l-14.1-14.1l1.4-1.4l14.1,14.1L887,702.5z M858.7,674.2l-14.1-14.1l1.4-1.4l14.1,14.1L858.7,674.2z M830.5,646
			l-14.1-14.1l1.4-1.4l14.1,14.1L830.5,646z M802.2,617.7L788,603.5l1.4-1.4l14.1,14.1L802.2,617.7z M773.9,589.4l-14.1-14.1
			l1.4-1.4l14.1,14.1L773.9,589.4z M745.6,561.1L731.5,547l1.4-1.4l14.1,14.1L745.6,561.1z M717.3,532.8l-14.1-14.1l1.4-1.4
			l14.1,14.1L717.3,532.8z M689,504.5l-14.1-14.1l1.4-1.4l14.1,14.1L689,504.5z M660.8,476.3l-14.1-14.1l1.4-1.4l14.1,14.1
			L660.8,476.3z M632.5,448l-14.1-14.1l1.4-1.4l14.1,14.1L632.5,448z M604.2,419.7L590,405.5l1.4-1.4l14.1,14.1L604.2,419.7z
			 M575.9,391.4l-14.1-14.1l1.4-1.4l14.1,14.1L575.9,391.4z M547.6,363.1L533.5,349l1.4-1.4l14.1,14.1L547.6,363.1z M519.3,334.8
			l-14.1-14.1l1.4-1.4l14.1,14.1L519.3,334.8z M491,306.6l-14.1-14.1l1.4-1.4l14.1,14.1L491,306.6z M462.8,278.3l-3.6-3.6l1.4-1.4
			l3.6,3.6L462.8,278.3z"/>
		<path fill="#DEDDDD" d="M799.3,728.1l-8.9-17.9l1.8-0.9l8.9,17.9L799.3,728.1z M781.5,692.3l-8.9-17.9l1.8-0.9l8.9,17.9
			L781.5,692.3z M763.6,656.5l-8.9-17.9l1.8-0.9l8.9,17.9L763.6,656.5z M745.7,620.7l-8.9-17.9l1.8-0.9l8.9,17.9L745.7,620.7z
			 M727.9,585l-8.9-17.9l1.8-0.9l8.9,17.9L727.9,585z M710,549.2l-8.9-17.9l1.8-0.9l8.9,17.9L710,549.2z M692.1,513.4l-8.9-17.9
			l1.8-0.9l8.9,17.9L692.1,513.4z M674.3,477.6l-8.9-17.9l1.8-0.9l8.9,17.9L674.3,477.6z M656.4,441.8l-8.9-17.9l1.8-0.9l8.9,17.9
			L656.4,441.8z M638.6,406l-8.9-17.9l1.8-0.9l8.9,17.9L638.6,406z M620.7,370.2l-8.9-17.9l1.8-0.9l8.9,17.9L620.7,370.2z
			 M602.8,334.4l-8.9-17.9l1.8-0.9l8.9,17.9L602.8,334.4z"/>
		<g>
			<rect x="2" y="314.8" fill="#DEDDDD" width="10" height="2"/>
			<path fill="#DEDDDD" d="M549.8,316.8h-20.7v-2h20.7V316.8z M508.4,316.8h-20.7v-2h20.7V316.8z M467.1,316.8h-20.7v-2h20.7V316.8z
				 M425.7,316.8H405v-2h20.7V316.8z M384.3,316.8h-20.7v-2h20.7V316.8z M343,316.8h-20.7v-2H343V316.8z M301.6,316.8h-20.7v-2h20.7
				V316.8z M260.2,316.8h-20.7v-2h20.7V316.8z M218.9,316.8h-20.7v-2h20.7V316.8z M177.5,316.8h-20.7v-2h20.7V316.8z M136.1,316.8
				h-20.7v-2h20.7V316.8z M94.7,316.8H74.1v-2h20.7V316.8z M53.4,316.8H32.7v-2h20.7V316.8z"/>
			<rect x="570.5" y="314.8" fill="#DEDDDD" width="10" height="2"/>
		</g>
	</g>
	<g id="points">
		<path fill="#ED177D" d="M594.8,325.4c-4.8,0-8.7-3.9-8.7-8.7s3.9-8.7,8.7-8.7c4.8,0,8.7,3.9,8.7,8.7S599.6,325.4,594.8,325.4z
			 M594.8,311.6c-2.8,0-5.2,2.3-5.2,5.2s2.3,5.2,5.2,5.2s5.2-2.3,5.2-5.2S597.6,311.6,594.8,311.6z"/>
	</g>
</g>
<g id="axis">
	<rect x="2" y="501" fill="#8E8E8E" width="1000" height="2"/>
	<rect x="501" y="2" fill="#8E8E8E" width="2" height="808.5"/>
	<g id="horizontal_marks_1_">
		<rect x="593.8" y="495.1" fill="#8E8E8E" width="2" height="13.8"/>
		<rect x="687" y="495.1" fill="#8E8E8E" width="2" height="13.8"/>
		<rect x="779.8" y="495.1" fill="#8E8E8E" width="2" height="13.8"/>
		<rect x="873" y="495.1" fill="#8E8E8E" width="2" height="13.8"/>
		<rect x="965.8" y="495.1" fill="#8E8E8E" width="2" height="13.8"/>
		<rect x="128.6" y="495.1" fill="#8E8E8E" width="2" height="13.8"/>
		<rect x="221.8" y="495.1" fill="#8E8E8E" width="2" height="13.8"/>
		<rect x="314.6" y="495.1" fill="#8E8E8E" width="2" height="13.8"/>
		<rect x="407.8" y="495.1" fill="#8E8E8E" width="2" height="13.8"/>
		<rect x="35.8" y="495.1" fill="#8E8E8E" width="2" height="13.8"/>
	</g>
	<g id="vertical_marks_1_">
		<rect x="495.1" y="408" fill="#8E8E8E" width="13.8" height="2"/>
		<rect x="495.1" y="314.8" fill="#8E8E8E" width="13.8" height="2"/>
		<rect x="495.1" y="222" fill="#8E8E8E" width="13.8" height="2"/>
		<rect x="495.1" y="128.8" fill="#8E8E8E" width="13.8" height="2"/>
		<rect x="495.1" y="36" fill="#8E8E8E" width="13.8" height="2"/>
		<rect x="495.1" y="780" fill="#8E8E8E" width="13.8" height="2"/>
		<rect x="495.1" y="687.2" fill="#8E8E8E" width="13.8" height="2"/>
		<rect x="495.1" y="594" fill="#8E8E8E" width="13.8" height="2"/>
	</g>
	<g id="horizontal_labels">
		<g>
			<path fill="#383838" d="M592.8,516.8l2.4-1.2h0.2v8.4c0,0.6,0,0.9,0.1,1c0,0.1,0.1,0.2,0.3,0.3s0.4,0.1,0.9,0.1v0.3H593v-0.3
				c0.5,0,0.8,0,0.9-0.1c0.1-0.1,0.2-0.2,0.3-0.3c0.1-0.1,0.1-0.5,0.1-1.1v-5.4c0-0.7,0-1.2-0.1-1.4c0-0.2-0.1-0.3-0.2-0.3
				c-0.1-0.1-0.2-0.1-0.3-0.1c-0.2,0-0.4,0.1-0.8,0.2L592.8,516.8z"/>
		</g>
		<g>
			<path fill="#383838" d="M691.1,523.9l-0.7,1.9h-5.9v-0.3c1.7-1.6,2.9-2.9,3.6-3.9s1.1-1.9,1.1-2.7c0-0.6-0.2-1.1-0.6-1.6
				s-0.8-0.6-1.4-0.6c-0.5,0-0.9,0.1-1.3,0.4c-0.4,0.3-0.7,0.7-0.9,1.3h-0.3c0.1-0.9,0.4-1.6,0.9-2.1c0.5-0.5,1.1-0.7,1.9-0.7
				c0.8,0,1.5,0.3,2,0.8c0.5,0.5,0.8,1.1,0.8,1.8c0,0.5-0.1,1-0.4,1.5c-0.4,0.8-0.9,1.6-1.8,2.5c-1.2,1.3-2,2.1-2.3,2.4h2.6
				c0.5,0,0.9,0,1.1-0.1c0.2,0,0.4-0.1,0.6-0.2c0.2-0.1,0.3-0.3,0.4-0.5H691.1z"/>
		</g>
		<g>
			<path fill="#383838" d="M777.8,517.7c0.3-0.7,0.6-1.2,1.1-1.5c0.4-0.4,1-0.5,1.6-0.5c0.8,0,1.4,0.3,1.8,0.8
				c0.3,0.4,0.5,0.8,0.5,1.2c0,0.7-0.5,1.5-1.4,2.2c0.6,0.2,1.1,0.6,1.4,1s0.5,1,0.5,1.6c0,0.9-0.3,1.6-0.8,2.2
				c-0.7,0.8-1.7,1.2-3.1,1.2c-0.7,0-1.1-0.1-1.4-0.2c-0.2-0.2-0.4-0.3-0.4-0.5c0-0.1,0.1-0.3,0.2-0.4c0.1-0.1,0.3-0.2,0.4-0.2
				c0.1,0,0.2,0,0.4,0.1c0.1,0,0.3,0.1,0.6,0.3c0.3,0.2,0.5,0.2,0.6,0.3c0.2,0.1,0.4,0.1,0.6,0.1c0.5,0,0.9-0.2,1.3-0.6
				c0.4-0.4,0.6-0.8,0.6-1.4c0-0.4-0.1-0.8-0.3-1.1c-0.1-0.3-0.3-0.5-0.4-0.6c-0.2-0.2-0.5-0.4-0.9-0.5c-0.4-0.2-0.7-0.2-1.1-0.2
				h-0.2v-0.2c0.4,0,0.8-0.2,1.2-0.4c0.4-0.2,0.7-0.5,0.8-0.8s0.3-0.7,0.3-1.1c0-0.5-0.2-0.9-0.5-1.2c-0.3-0.3-0.7-0.5-1.2-0.5
				c-0.8,0-1.4,0.4-1.9,1.2L777.8,517.7z"/>
		</g>
		<g>
			<path fill="#383838" d="M877.2,522.1v1h-1.3v2.6h-1.2v-2.6h-4.2v-0.9l4.6-6.6h0.8v6.5H877.2z M874.7,522.1v-4.9l-3.5,4.9H874.7z"
				/>
		</g>
		<g>
			<path fill="#383838" d="M969.6,515.8l-0.6,1.2h-3l-0.7,1.3c1.3,0.2,2.3,0.7,3.1,1.4c0.7,0.7,1,1.4,1,2.3c0,0.5-0.1,1-0.3,1.5
				s-0.5,0.8-0.8,1.1s-0.7,0.6-1.1,0.8c-0.6,0.3-1.1,0.4-1.7,0.4c-0.6,0-1-0.1-1.3-0.3c-0.3-0.2-0.4-0.4-0.4-0.7
				c0-0.1,0.1-0.3,0.2-0.4c0.1-0.1,0.3-0.2,0.4-0.2c0.1,0,0.2,0,0.3,0.1c0.1,0,0.3,0.1,0.5,0.3c0.4,0.3,0.7,0.4,1.1,0.4
				c0.6,0,1.1-0.2,1.5-0.6c0.4-0.4,0.6-1,0.6-1.6c0-0.6-0.2-1.2-0.6-1.7c-0.4-0.5-0.9-0.9-1.6-1.2c-0.5-0.2-1.3-0.3-2.2-0.4l1.9-3.9
				H969.6z"/>
		</g>
		<g>
			<path fill="#383838" d="M31.2,523.4h3.8v1.1h-3.8V523.4z"/>
			<path fill="#383838" d="M42,517.4l-0.6,1.2h-3l-0.7,1.3c1.3,0.2,2.3,0.7,3.1,1.4c0.6,0.7,1,1.4,1,2.3c0,0.5-0.1,1-0.3,1.5
				c-0.2,0.4-0.5,0.8-0.8,1.1s-0.7,0.6-1.1,0.8c-0.6,0.3-1.1,0.4-1.7,0.4c-0.6,0-1-0.1-1.3-0.3c-0.3-0.2-0.4-0.4-0.4-0.7
				c0-0.1,0.1-0.3,0.2-0.4c0.1-0.1,0.3-0.2,0.4-0.2c0.1,0,0.2,0,0.3,0.1c0.1,0,0.3,0.1,0.5,0.3c0.4,0.3,0.7,0.4,1.1,0.4
				c0.6,0,1.1-0.2,1.5-0.6c0.4-0.4,0.6-1,0.6-1.6c0-0.6-0.2-1.2-0.6-1.7c-0.4-0.5-0.9-0.9-1.6-1.2c-0.5-0.2-1.3-0.3-2.2-0.4l1.9-3.9
				H42z"/>
		</g>
		<g>
			<path fill="#383838" d="M124.4,523.4h3.8v1.1h-3.8V523.4z"/>
			<path fill="#383838" d="M135.7,523.6v1h-1.3v2.6h-1.2v-2.6H129v-0.9l4.6-6.6h0.8v6.5H135.7z M133.2,523.6v-4.9l-3.5,4.9H133.2z"
				/>
		</g>
		<g>
			<path fill="#383838" d="M217.2,523.4h3.8v1.1h-3.8V523.4z"/>
			<path fill="#383838" d="M222.3,519.3c0.3-0.7,0.6-1.2,1.1-1.5c0.4-0.4,1-0.5,1.6-0.5c0.8,0,1.4,0.3,1.8,0.8
				c0.3,0.4,0.5,0.8,0.5,1.2c0,0.7-0.5,1.5-1.4,2.2c0.6,0.2,1.1,0.6,1.4,1s0.5,1,0.5,1.6c0,0.9-0.3,1.6-0.8,2.2
				c-0.7,0.8-1.7,1.2-3.1,1.2c-0.7,0-1.1-0.1-1.4-0.2c-0.2-0.2-0.4-0.3-0.4-0.5c0-0.1,0.1-0.3,0.2-0.4c0.1-0.1,0.3-0.2,0.4-0.2
				c0.1,0,0.2,0,0.4,0.1c0.1,0,0.3,0.1,0.6,0.3c0.3,0.2,0.5,0.2,0.6,0.3c0.2,0.1,0.4,0.1,0.6,0.1c0.5,0,0.9-0.2,1.3-0.6
				c0.4-0.4,0.6-0.8,0.6-1.4c0-0.4-0.1-0.8-0.3-1.1c-0.1-0.3-0.3-0.5-0.4-0.6c-0.2-0.2-0.5-0.4-0.9-0.5c-0.4-0.2-0.7-0.2-1.1-0.2
				h-0.2v-0.2c0.4,0,0.8-0.2,1.2-0.4c0.4-0.2,0.7-0.5,0.8-0.8s0.3-0.7,0.3-1.1c0-0.5-0.2-0.9-0.5-1.2c-0.3-0.3-0.7-0.5-1.2-0.5
				c-0.8,0-1.4,0.4-1.9,1.2L222.3,519.3z"/>
		</g>
		<g>
			<path fill="#383838" d="M310.4,523.4h3.8v1.1h-3.8V523.4z"/>
			<path fill="#383838" d="M321.6,525.4l-0.7,1.9h-5.9V527c1.7-1.6,2.9-2.9,3.6-3.9s1.1-1.9,1.1-2.7c0-0.6-0.2-1.1-0.6-1.6
				s-0.8-0.6-1.4-0.6c-0.5,0-0.9,0.1-1.3,0.4c-0.4,0.3-0.7,0.7-0.9,1.3h-0.3c0.1-0.9,0.4-1.6,0.9-2.1c0.5-0.5,1.1-0.7,1.9-0.7
				c0.8,0,1.5,0.3,2,0.8s0.8,1.1,0.8,1.8c0,0.5-0.1,1-0.4,1.5c-0.4,0.8-0.9,1.6-1.8,2.5c-1.2,1.3-2,2.1-2.3,2.4h2.6
				c0.5,0,0.9,0,1.1-0.1c0.2,0,0.4-0.1,0.6-0.2c0.2-0.1,0.3-0.3,0.4-0.5H321.6z"/>
		</g>
		<g>
			<path fill="#383838" d="M403.2,523.4h3.8v1.1h-3.8V523.4z"/>
			<path fill="#383838" d="M409.3,518.3l2.4-1.2h0.2v8.4c0,0.6,0,0.9,0.1,1c0,0.1,0.1,0.2,0.3,0.3s0.4,0.1,0.9,0.1v0.3h-3.7V527
				c0.5,0,0.8,0,0.9-0.1c0.1-0.1,0.2-0.2,0.3-0.3c0.1-0.1,0.1-0.5,0.1-1.1v-5.4c0-0.7,0-1.2-0.1-1.4c0-0.2-0.1-0.3-0.2-0.3
				c-0.1-0.1-0.2-0.1-0.3-0.1c-0.2,0-0.4,0.1-0.8,0.2L409.3,518.3z"/>
		</g>
		<g>
			<path fill="#383838" d="M983.8,516.1h5.3v0.5c-0.3,0-0.6,0.1-0.7,0.2c-0.1,0.1-0.2,0.3-0.2,0.5c0,0.2,0.1,0.5,0.4,0.9
				c0.1,0.1,0.2,0.3,0.4,0.6l0.8,1.3l0.9-1.3c0.6-0.8,0.9-1.3,0.9-1.5c0-0.2-0.1-0.3-0.2-0.4c-0.1-0.1-0.4-0.2-0.7-0.2v-0.5h3.8v0.5
				c-0.4,0-0.7,0.1-1,0.3c-0.4,0.3-0.9,0.9-1.6,1.8l-1.5,2l2.8,4c0.7,1,1.2,1.6,1.5,1.8s0.7,0.3,1.1,0.3v0.4h-5.3v-0.4
				c0.4,0,0.7-0.1,0.9-0.2c0.2-0.1,0.2-0.3,0.2-0.5c0-0.2-0.3-0.7-0.8-1.4l-1.6-2.4l-1.8,2.4c-0.6,0.7-0.8,1.2-0.8,1.3
				c0,0.2,0.1,0.4,0.3,0.5c0.2,0.2,0.5,0.2,0.8,0.3v0.4h-3.7v-0.4c0.3,0,0.5-0.1,0.8-0.3c0.3-0.2,0.8-0.8,1.6-1.8l2.3-3.1l-2.1-3.1
				c-0.6-0.9-1.1-1.4-1.4-1.7c-0.3-0.2-0.7-0.3-1.2-0.3V516.1z"/>
		</g>
	</g>
	<g id="vertical_lables">
		<g>
			<path fill="#383838" d="M483.9,403.7l2.4-1.2h0.2v8.4c0,0.6,0,0.9,0.1,1c0,0.1,0.1,0.2,0.3,0.3s0.4,0.1,0.9,0.1v0.3h-3.7v-0.3
				c0.5,0,0.8,0,0.9-0.1s0.2-0.2,0.3-0.3c0.1-0.1,0.1-0.5,0.1-1.1v-5.4c0-0.7,0-1.2-0.1-1.4c0-0.2-0.1-0.3-0.2-0.3
				c-0.1-0.1-0.2-0.1-0.3-0.1c-0.2,0-0.4,0.1-0.8,0.2L483.9,403.7z"/>
		</g>
		<g>
			<path fill="#383838" d="M489,317.8l-0.7,1.9h-5.9v-0.3c1.7-1.6,2.9-2.9,3.6-3.9s1.1-1.9,1.1-2.7c0-0.6-0.2-1.1-0.6-1.6
				s-0.8-0.6-1.4-0.6c-0.5,0-0.9,0.1-1.3,0.4c-0.4,0.3-0.7,0.7-0.9,1.3h-0.3c0.1-0.9,0.4-1.6,0.9-2.1c0.5-0.5,1.1-0.7,1.9-0.7
				c0.8,0,1.5,0.3,2,0.8c0.5,0.5,0.8,1.1,0.8,1.8c0,0.5-0.1,1-0.4,1.5c-0.4,0.8-0.9,1.6-1.8,2.5c-1.2,1.3-2,2.1-2.3,2.4h2.6
				c0.5,0,0.9,0,1.1-0.1c0.2,0,0.4-0.1,0.6-0.2s0.3-0.3,0.4-0.5H489z"/>
		</g>
		<g>
			<path fill="#383838" d="M482.9,219c0.3-0.7,0.6-1.2,1.1-1.5c0.4-0.4,1-0.5,1.6-0.5c0.8,0,1.4,0.3,1.8,0.8
				c0.3,0.4,0.5,0.8,0.5,1.2c0,0.7-0.5,1.5-1.4,2.2c0.6,0.2,1.1,0.6,1.4,1s0.5,1,0.5,1.6c0,0.9-0.3,1.6-0.8,2.2
				c-0.7,0.8-1.7,1.2-3.1,1.2c-0.7,0-1.1-0.1-1.4-0.2c-0.2-0.2-0.4-0.3-0.4-0.5c0-0.1,0.1-0.3,0.2-0.4c0.1-0.1,0.3-0.2,0.4-0.2
				c0.1,0,0.2,0,0.4,0.1c0.1,0,0.3,0.1,0.6,0.3c0.3,0.2,0.5,0.2,0.6,0.3c0.2,0.1,0.4,0.1,0.6,0.1c0.5,0,0.9-0.2,1.3-0.6
				c0.4-0.4,0.6-0.8,0.6-1.4c0-0.4-0.1-0.8-0.3-1.1c-0.1-0.3-0.3-0.5-0.4-0.6c-0.2-0.2-0.5-0.4-0.9-0.5c-0.4-0.2-0.7-0.2-1.1-0.2
				h-0.2v-0.2c0.4,0,0.8-0.2,1.2-0.4c0.4-0.2,0.7-0.5,0.8-0.8s0.3-0.7,0.3-1.1c0-0.5-0.2-0.9-0.5-1.2c-0.3-0.3-0.7-0.5-1.2-0.5
				c-0.8,0-1.4,0.4-1.9,1.2L482.9,219z"/>
		</g>
		<g>
			<path fill="#383838" d="M489.1,130.3v1h-1.3v2.6h-1.2v-2.6h-4.2v-0.9l4.6-6.6h0.8v6.5H489.1z M486.6,130.3v-4.9l-3.5,4.9H486.6z"
				/>
		</g>
		<g>
			<path fill="#383838" d="M488.6,31l-0.6,1.2h-3l-0.7,1.3c1.3,0.2,2.3,0.7,3.1,1.4c0.6,0.7,1,1.4,1,2.3c0,0.5-0.1,1-0.3,1.5
				c-0.2,0.4-0.5,0.8-0.8,1.1s-0.7,0.6-1.1,0.8c-0.6,0.3-1.1,0.4-1.7,0.4c-0.6,0-1-0.1-1.3-0.3c-0.3-0.2-0.4-0.4-0.4-0.7
				c0-0.1,0.1-0.3,0.2-0.4c0.1-0.1,0.3-0.2,0.4-0.2c0.1,0,0.2,0,0.3,0.1c0.1,0,0.3,0.1,0.5,0.3c0.4,0.3,0.7,0.4,1.1,0.4
				c0.6,0,1.1-0.2,1.5-0.6c0.4-0.4,0.6-1,0.6-1.6c0-0.6-0.2-1.2-0.6-1.7c-0.4-0.5-0.9-0.9-1.6-1.2c-0.5-0.2-1.3-0.3-2.2-0.4l1.9-3.9
				H488.6z"/>
		</g>
		<g>
			<path fill="#383838" d="M477.7,781.7h3.8v1.1h-3.8V781.7z"/>
			<path fill="#383838" d="M482.9,777.6c0.3-0.7,0.6-1.2,1.1-1.5c0.4-0.4,1-0.5,1.6-0.5c0.8,0,1.4,0.3,1.8,0.8
				c0.3,0.4,0.5,0.8,0.5,1.2c0,0.7-0.5,1.5-1.4,2.2c0.6,0.2,1.1,0.6,1.4,1c0.3,0.4,0.5,1,0.5,1.6c0,0.9-0.3,1.6-0.8,2.2
				c-0.7,0.8-1.7,1.2-3.1,1.2c-0.7,0-1.1-0.1-1.4-0.2c-0.2-0.2-0.4-0.3-0.4-0.5c0-0.1,0.1-0.3,0.2-0.4c0.1-0.1,0.3-0.2,0.4-0.2
				c0.1,0,0.2,0,0.4,0.1c0.1,0,0.3,0.1,0.6,0.3c0.3,0.2,0.5,0.2,0.6,0.3c0.2,0.1,0.4,0.1,0.6,0.1c0.5,0,0.9-0.2,1.3-0.6
				c0.4-0.4,0.6-0.8,0.6-1.4c0-0.4-0.1-0.8-0.3-1.1c-0.1-0.3-0.3-0.5-0.4-0.6c-0.2-0.2-0.5-0.4-0.9-0.5c-0.4-0.2-0.7-0.2-1.1-0.2
				h-0.2v-0.2c0.4,0,0.8-0.2,1.2-0.4c0.4-0.2,0.7-0.5,0.8-0.8s0.3-0.7,0.3-1.1c0-0.5-0.2-0.9-0.5-1.2c-0.3-0.3-0.7-0.5-1.2-0.5
				c-0.8,0-1.4,0.4-1.9,1.2L482.9,777.6z"/>
		</g>
		<g>
			<path fill="#383838" d="M477.7,688.7h3.8v1.1h-3.8V688.7z"/>
			<path fill="#383838" d="M489,690.8l-0.7,1.9h-5.9v-0.3c1.7-1.6,2.9-2.9,3.6-3.9s1.1-1.9,1.1-2.7c0-0.6-0.2-1.1-0.6-1.6
				s-0.8-0.6-1.4-0.6c-0.5,0-0.9,0.1-1.3,0.4c-0.4,0.3-0.7,0.7-0.9,1.3h-0.3c0.1-0.9,0.4-1.6,0.9-2.1c0.5-0.5,1.1-0.7,1.9-0.7
				c0.8,0,1.5,0.3,2,0.8c0.5,0.5,0.8,1.1,0.8,1.8c0,0.5-0.1,1-0.4,1.5c-0.4,0.8-0.9,1.6-1.8,2.5c-1.2,1.3-2,2.1-2.3,2.4h2.6
				c0.5,0,0.9,0,1.1-0.1c0.2,0,0.4-0.1,0.6-0.2s0.3-0.3,0.4-0.5H489z"/>
		</g>
		<g>
			<path fill="#383838" d="M477.7,595.7h3.8v1.1h-3.8V595.7z"/>
			<path fill="#383838" d="M483.9,590.7l2.4-1.2h0.2v8.4c0,0.6,0,0.9,0.1,1c0,0.1,0.1,0.2,0.3,0.3s0.4,0.1,0.9,0.1v0.3h-3.7v-0.3
				c0.5,0,0.8,0,0.9-0.1c0.1-0.1,0.2-0.2,0.3-0.3c0.1-0.1,0.1-0.5,0.1-1.1v-5.4c0-0.7,0-1.2-0.1-1.4c0-0.2-0.1-0.3-0.2-0.3
				c-0.1-0.1-0.2-0.1-0.3-0.1c-0.2,0-0.4,0.1-0.8,0.2L483.9,590.7z"/>
		</g>
		<g>
			<path fill="#383838" d="M515.9,10.3h5.2v0.5h-0.3c-0.4,0-0.6,0.1-0.8,0.2c-0.2,0.2-0.3,0.4-0.3,0.6c0,0.3,0.1,0.8,0.4,1.3
				l2.7,5.6l2.5-6.2c0.1-0.3,0.2-0.7,0.2-1c0-0.1,0-0.3-0.1-0.3c-0.1-0.1-0.2-0.2-0.3-0.2c-0.1-0.1-0.4-0.1-0.7-0.1v-0.5h3.6v0.5
				c-0.3,0-0.5,0.1-0.7,0.2s-0.3,0.3-0.5,0.5c-0.1,0.1-0.2,0.4-0.4,0.9l-4.6,11.2c-0.4,1.1-1,1.9-1.7,2.5c-0.7,0.6-1.4,0.8-2.1,0.8
				c-0.5,0-0.9-0.1-1.2-0.4c-0.3-0.3-0.5-0.6-0.5-1c0-0.3,0.1-0.6,0.3-0.8c0.2-0.2,0.5-0.3,0.9-0.3c0.3,0,0.6,0.1,1.1,0.3
				c0.3,0.1,0.5,0.2,0.6,0.2c0.2,0,0.5-0.1,0.8-0.4c0.3-0.3,0.6-0.7,0.9-1.5l0.8-1.9l-4-8.4c-0.1-0.3-0.3-0.6-0.6-0.9
				c-0.2-0.3-0.4-0.5-0.5-0.6c-0.2-0.1-0.5-0.2-0.9-0.3V10.3z"/>
		</g>
		<g>
			<path fill="#ED177D" d="M22,289.2v7.3c0,1,0.1,1.7,0.3,2c0.3,0.4,0.7,0.5,1.2,0.5h1v0.4h-6.7V299h0.5c0.3,0,0.6-0.1,0.9-0.2
				c0.3-0.2,0.5-0.4,0.6-0.7c0.1-0.3,0.2-0.8,0.2-1.6v-7.3h-2.2v-0.9H20v-0.7c0-1.1,0.2-2.1,0.5-2.8c0.4-0.8,0.9-1.4,1.6-1.9
				c0.7-0.5,1.6-0.7,2.5-0.7c0.9,0,1.6,0.3,2.4,0.8c0.5,0.4,0.7,0.8,0.7,1.2c0,0.2-0.1,0.5-0.3,0.7c-0.2,0.2-0.4,0.3-0.7,0.3
				c-0.2,0-0.4-0.1-0.6-0.2c-0.2-0.1-0.5-0.4-0.8-0.9c-0.3-0.4-0.6-0.7-0.8-0.9c-0.3-0.2-0.5-0.2-0.8-0.2c-0.4,0-0.7,0.1-1,0.3
				c-0.3,0.2-0.4,0.5-0.6,0.9c-0.1,0.4-0.2,1.5-0.2,3.2v0.8h2.9v0.9H22z"/>
			<path fill="#ED177D" d="M32.9,304.4v0.5c-1.2-0.6-2.3-1.3-3.1-2.2c-1.2-1.2-2.1-2.6-2.7-4.2s-1-3.3-1-5c0-2.5,0.6-4.8,1.9-6.9
				c1.2-2.1,2.9-3.6,4.9-4.5v0.5c-1,0.6-1.8,1.3-2.5,2.3c-0.6,1-1.1,2.2-1.4,3.6c-0.3,1.5-0.5,3-0.5,4.6c0,1.7,0.1,3.3,0.4,4.7
				c0.2,1.1,0.5,2,0.8,2.7c0.3,0.7,0.7,1.3,1.2,2C31.4,303.2,32.1,303.8,32.9,304.4z"/>
			<path fill="#ED177D" d="M33.8,288.3h5.3v0.5c-0.3,0-0.6,0.1-0.7,0.2c-0.1,0.1-0.2,0.3-0.2,0.5c0,0.2,0.1,0.5,0.4,0.9
				c0.1,0.1,0.2,0.3,0.4,0.6l0.8,1.3l0.9-1.3c0.6-0.8,0.9-1.3,0.9-1.5c0-0.2-0.1-0.3-0.2-0.4c-0.1-0.1-0.4-0.2-0.7-0.2v-0.5h3.8v0.5
				c-0.4,0-0.7,0.1-1,0.3c-0.4,0.3-0.9,0.9-1.6,1.8l-1.5,2l2.8,4c0.7,1,1.2,1.6,1.5,1.8c0.3,0.2,0.7,0.3,1.1,0.3v0.4h-5.3V299
				c0.4,0,0.7-0.1,0.9-0.2c0.2-0.1,0.2-0.3,0.2-0.5c0-0.2-0.3-0.7-0.8-1.4l-1.6-2.4l-1.8,2.4c-0.6,0.7-0.8,1.2-0.8,1.3
				c0,0.2,0.1,0.4,0.3,0.5c0.2,0.2,0.5,0.2,0.8,0.3v0.4h-3.6V299c0.3,0,0.5-0.1,0.8-0.3c0.3-0.2,0.8-0.8,1.6-1.8l2.3-3.1l-2.1-3.1
				c-0.6-0.9-1.1-1.4-1.4-1.7c-0.3-0.2-0.7-0.3-1.2-0.3V288.3z"/>
			<path fill="#ED177D" d="M46.5,282.6v-0.5c1.2,0.6,2.3,1.3,3.1,2.2c1.2,1.2,2.1,2.6,2.7,4.2c0.6,1.6,1,3.3,1,5
				c0,2.5-0.6,4.8-1.9,6.9c-1.2,2.1-2.9,3.6-4.9,4.5v-0.5c1-0.6,1.8-1.3,2.5-2.3c0.6-1,1.1-2.2,1.4-3.6c0.3-1.5,0.5-3,0.5-4.6
				c0-1.7-0.1-3.3-0.4-4.7c-0.2-1.1-0.5-2-0.8-2.7c-0.3-0.7-0.7-1.3-1.2-2C48,283.8,47.4,283.2,46.5,282.6z"/>
		</g>
		<g>
			<path fill="#383938" d="M487.1,522.4c0-1.1,0.2-2.1,0.5-2.9c0.3-0.8,0.8-1.4,1.4-1.8c0.4-0.3,0.9-0.5,1.4-0.5
				c0.8,0,1.4,0.4,2.1,1.2c0.8,1,1.1,2.3,1.1,3.9c0,1.2-0.2,2.1-0.5,2.9s-0.8,1.4-1.3,1.8c-0.5,0.4-1,0.5-1.5,0.5
				c-0.9,0-1.7-0.6-2.4-1.7C487.4,524.9,487.1,523.7,487.1,522.4z M488.6,522.6c0,1.4,0.2,2.5,0.5,3.3c0.3,0.7,0.7,1.1,1.2,1.1
				c0.3,0,0.5-0.1,0.8-0.4c0.3-0.2,0.5-0.6,0.6-1.2c0.2-0.8,0.3-2,0.3-3.6c0-1.1-0.1-2.1-0.4-2.8c-0.2-0.6-0.4-1-0.7-1.2
				c-0.2-0.2-0.4-0.2-0.7-0.2c-0.3,0-0.6,0.1-0.9,0.4c-0.4,0.4-0.6,1-0.7,1.9S488.6,521.7,488.6,522.6z"/>
		</g>
	</g>
	<g id="arrow">
		<polygon fill="#8E8E8E" points="508.1,14.5 502,4 495.9,14.5 494.1,13.5 502,0 509.9,13.5 		"/>
		<polygon fill="#8E8E8E" points="13.5,509.9 0,502 13.5,494.1 14.5,495.9 4,502 14.5,508.1 		"/>
		<polygon fill="#8E8E8E" points="502,812.4 494.1,799 495.9,798 502,808.5 508.1,798 509.9,799 		"/>
		<polygon fill="#8E8E8E" points="990.5,509.9 989.5,508.1 1000,502 989.5,495.9 990.5,494.1 1004,502 		"/>
	</g>
</g>
<g id="line">
	<path fill="#ED177D" d="M999.6,811.7C987.8,799.9,709.8,521.9,694,500.8c-19.3-25.8-94.2-171-97.4-177.2l3.1-1.6
		c0.8,1.5,78,151.2,97.1,176.7c15.7,20.9,302.4,307.6,305.3,310.5L999.6,811.7z"/>
	<path fill="#ED177D" d="M554.7,579c-15.3,0-35.2-37.5-50.9-70.2c-1.6-3.4-2.8-5.8-3.3-6.7c-0.3-0.5-0.7-1.2-1.1-2.1
		c-5.4-9.9-21.8-40-46.6-40c-35.3,0-42.1,41.9-42.2,42.3L407,502c0-59.9-10.8-106.5-28.8-124.5C325.4,324.6,5.2,325.5,2,325.6l0-3.5
		c0.8,0,81.9-0.3,168.6,6c116.7,8.5,187.4,24.3,210.1,47c17.4,17.4,28.3,59.9,29.7,114.9c5-13.4,16.7-33.4,42.3-33.4
		c26.9,0,44.1,31.5,49.7,41.8c0.4,0.8,0.8,1.5,1.1,2c0.6,1,1.7,3.4,3.4,7c8.1,16.9,32.7,68.2,47.7,68.2c1.2,0,2.4-0.6,3.6-1.8
		c11.1-11.3,25.5-73.5,30.7-305.6c3.1-139.2,1.3-275.1,1.3-276.5l3.5,0c0.3,22.2,6.9,544.2-33,584.6C558.9,578,556.8,579,554.7,579z
		"/>
</g>
</svg>
