<?xml version="1.0" encoding="utf-8"?>
<!-- Generator: Adobe Illustrator 18.0.0, SVG Export Plug-In . SVG Version: 6.00 Build 0)  -->
<!DOCTYPE svg PUBLIC "-//W3C//DTD SVG 1.1//EN" "http://www.w3.org/Graphics/SVG/1.1/DTD/svg11.dtd">
<svg version="1.1" id="Vrstva_1" xmlns="http://www.w3.org/2000/svg" xmlns:xlink="http://www.w3.org/1999/xlink" x="0px" y="0px"
	 viewBox="0 0 800 800" enable-background="new 0 0 800 800" xml:space="preserve">
<g id="background">
</g>
<g id="grid" display="none">
	
		<rect x="-237.1" y="100.4" display="inline" opacity="0.4" fill="none" stroke="#3A50A3" stroke-miterlimit="10" enable-background="new    " width="71.2" height="71.2"/>
	
		<rect x="-166" y="100.4" display="inline" opacity="0.4" fill="none" stroke="#3A50A3" stroke-miterlimit="10" enable-background="new    " width="71.2" height="71.2"/>
	
		<rect x="-94.9" y="100.4" display="inline" opacity="0.4" fill="none" stroke="#3A50A3" stroke-miterlimit="10" enable-background="new    " width="71.2" height="71.2"/>
	
		<rect x="-23.7" y="100.4" display="inline" opacity="0.4" fill="none" stroke="#3A50A3" stroke-miterlimit="10" enable-background="new    " width="71.2" height="71.2"/>
	
		<rect x="47.3" y="100.4" display="inline" opacity="0.4" fill="none" stroke="#3A50A3" stroke-miterlimit="10" enable-background="new    " width="71.2" height="71.2"/>
	
		<rect x="118.5" y="100.4" display="inline" opacity="0.4" fill="none" stroke="#3A50A3" stroke-miterlimit="10" enable-background="new    " width="71.2" height="71.2"/>
	
		<rect x="189.6" y="100.4" display="inline" opacity="0.4" fill="none" stroke="#3A50A3" stroke-miterlimit="10" enable-background="new    " width="71.2" height="71.2"/>
	
		<rect x="260.7" y="100.4" display="inline" opacity="0.4" fill="none" stroke="#3A50A3" stroke-miterlimit="10" enable-background="new    " width="71.2" height="71.2"/>
	
		<rect x="331.9" y="100.4" display="inline" opacity="0.4" fill="none" stroke="#3A50A3" stroke-miterlimit="10" enable-background="new    " width="71.2" height="71.2"/>
	
		<rect x="402.9" y="100.4" display="inline" opacity="0.4" fill="none" stroke="#3A50A3" stroke-miterlimit="10" enable-background="new    " width="71.2" height="71.2"/>
	
		<rect x="-237.1" y="171.5" display="inline" opacity="0.4" fill="none" stroke="#3A50A3" stroke-miterlimit="10" enable-background="new    " width="71.2" height="71.2"/>
	
		<rect x="-166" y="171.5" display="inline" opacity="0.4" fill="none" stroke="#3A50A3" stroke-miterlimit="10" enable-background="new    " width="71.2" height="71.2"/>
	
		<rect x="-94.9" y="171.5" display="inline" opacity="0.4" fill="none" stroke="#3A50A3" stroke-miterlimit="10" enable-background="new    " width="71.2" height="71.2"/>
	
		<rect x="-23.7" y="171.5" display="inline" opacity="0.4" fill="none" stroke="#3A50A3" stroke-miterlimit="10" enable-background="new    " width="71.2" height="71.2"/>
	
		<rect x="47.3" y="171.5" display="inline" opacity="0.4" fill="none" stroke="#3A50A3" stroke-miterlimit="10" enable-background="new    " width="71.2" height="71.2"/>
	
		<rect x="118.5" y="171.5" display="inline" opacity="0.4" fill="none" stroke="#3A50A3" stroke-miterlimit="10" enable-background="new    " width="71.2" height="71.2"/>
	
		<rect x="189.6" y="171.5" display="inline" opacity="0.4" fill="none" stroke="#3A50A3" stroke-miterlimit="10" enable-background="new    " width="71.2" height="71.2"/>
	
		<rect x="260.7" y="171.5" display="inline" opacity="0.4" fill="none" stroke="#3A50A3" stroke-miterlimit="10" enable-background="new    " width="71.2" height="71.2"/>
	
		<rect x="331.9" y="171.5" display="inline" opacity="0.4" fill="none" stroke="#3A50A3" stroke-miterlimit="10" enable-background="new    " width="71.2" height="71.2"/>
	
		<rect x="402.9" y="171.5" display="inline" opacity="0.4" fill="none" stroke="#3A50A3" stroke-miterlimit="10" enable-background="new    " width="71.2" height="71.2"/>
	
		<rect x="-237.1" y="242.6" display="inline" opacity="0.4" fill="none" stroke="#3A50A3" stroke-miterlimit="10" enable-background="new    " width="71.2" height="71.2"/>
	
		<rect x="-166" y="242.6" display="inline" opacity="0.4" fill="none" stroke="#3A50A3" stroke-miterlimit="10" enable-background="new    " width="71.2" height="71.2"/>
	
		<rect x="-94.9" y="242.6" display="inline" opacity="0.4" fill="none" stroke="#3A50A3" stroke-miterlimit="10" enable-background="new    " width="71.2" height="71.2"/>
	
		<rect x="-23.7" y="242.6" display="inline" opacity="0.4" fill="none" stroke="#3A50A3" stroke-miterlimit="10" enable-background="new    " width="71.2" height="71.2"/>
	
		<rect x="47.3" y="242.6" display="inline" opacity="0.4" fill="none" stroke="#3A50A3" stroke-miterlimit="10" enable-background="new    " width="71.2" height="71.2"/>
	
		<rect x="118.5" y="242.6" display="inline" opacity="0.4" fill="none" stroke="#3A50A3" stroke-miterlimit="10" enable-background="new    " width="71.2" height="71.2"/>
	
		<rect x="189.6" y="242.6" display="inline" opacity="0.4" fill="none" stroke="#3A50A3" stroke-miterlimit="10" enable-background="new    " width="71.2" height="71.2"/>
	
		<rect x="260.7" y="242.6" display="inline" opacity="0.4" fill="none" stroke="#3A50A3" stroke-miterlimit="10" enable-background="new    " width="71.2" height="71.2"/>
	
		<rect x="331.9" y="242.6" display="inline" opacity="0.4" fill="none" stroke="#3A50A3" stroke-miterlimit="10" enable-background="new    " width="71.2" height="71.2"/>
	
		<rect x="402.9" y="242.6" display="inline" opacity="0.4" fill="none" stroke="#3A50A3" stroke-miterlimit="10" enable-background="new    " width="71.2" height="71.2"/>
	
		<rect x="-237.1" y="313.7" display="inline" opacity="0.4" fill="none" stroke="#3A50A3" stroke-miterlimit="10" enable-background="new    " width="71.2" height="71.2"/>
	
		<rect x="-166" y="313.7" display="inline" opacity="0.4" fill="none" stroke="#3A50A3" stroke-miterlimit="10" enable-background="new    " width="71.2" height="71.2"/>
	
		<rect x="-94.9" y="313.7" display="inline" opacity="0.4" fill="none" stroke="#3A50A3" stroke-miterlimit="10" enable-background="new    " width="71.2" height="71.2"/>
	
		<rect x="-23.7" y="313.7" display="inline" opacity="0.4" fill="none" stroke="#3A50A3" stroke-miterlimit="10" enable-background="new    " width="71.2" height="71.2"/>
	
		<rect x="47.3" y="313.7" display="inline" opacity="0.4" fill="none" stroke="#3A50A3" stroke-miterlimit="10" enable-background="new    " width="71.2" height="71.2"/>
	
		<rect x="118.5" y="313.7" display="inline" opacity="0.4" fill="none" stroke="#3A50A3" stroke-miterlimit="10" enable-background="new    " width="71.2" height="71.2"/>
	
		<rect x="189.6" y="313.7" display="inline" opacity="0.4" fill="none" stroke="#3A50A3" stroke-miterlimit="10" enable-background="new    " width="71.2" height="71.2"/>
	
		<rect x="260.7" y="313.7" display="inline" opacity="0.4" fill="none" stroke="#3A50A3" stroke-miterlimit="10" enable-background="new    " width="71.2" height="71.2"/>
	
		<rect x="331.9" y="313.7" display="inline" opacity="0.4" fill="none" stroke="#3A50A3" stroke-miterlimit="10" enable-background="new    " width="71.2" height="71.2"/>
	
		<rect x="402.9" y="313.7" display="inline" opacity="0.4" fill="none" stroke="#3A50A3" stroke-miterlimit="10" enable-background="new    " width="71.2" height="71.2"/>
	
		<rect x="-237.1" y="384.9" display="inline" opacity="0.4" fill="none" stroke="#3A50A3" stroke-miterlimit="10" enable-background="new    " width="71.2" height="71.2"/>
	
		<rect x="-166" y="384.9" display="inline" opacity="0.4" fill="none" stroke="#3A50A3" stroke-miterlimit="10" enable-background="new    " width="71.2" height="71.2"/>
	
		<rect x="-94.9" y="384.9" display="inline" opacity="0.4" fill="none" stroke="#3A50A3" stroke-miterlimit="10" enable-background="new    " width="71.2" height="71.2"/>
	
		<rect x="-23.7" y="384.9" display="inline" opacity="0.4" fill="none" stroke="#3A50A3" stroke-miterlimit="10" enable-background="new    " width="71.2" height="71.2"/>
	
		<rect x="47.3" y="384.9" display="inline" opacity="0.4" fill="none" stroke="#3A50A3" stroke-miterlimit="10" enable-background="new    " width="71.2" height="71.2"/>
	
		<rect x="118.5" y="384.9" display="inline" opacity="0.4" fill="none" stroke="#3A50A3" stroke-miterlimit="10" enable-background="new    " width="71.2" height="71.2"/>
	
		<rect x="189.6" y="384.9" display="inline" opacity="0.4" fill="none" stroke="#3A50A3" stroke-miterlimit="10" enable-background="new    " width="71.2" height="71.2"/>
	
		<rect x="260.7" y="384.9" display="inline" opacity="0.4" fill="none" stroke="#3A50A3" stroke-miterlimit="10" enable-background="new    " width="71.2" height="71.2"/>
	
		<rect x="331.9" y="384.9" display="inline" opacity="0.4" fill="none" stroke="#3A50A3" stroke-miterlimit="10" enable-background="new    " width="71.2" height="71.2"/>
	
		<rect x="402.9" y="384.9" display="inline" opacity="0.4" fill="none" stroke="#3A50A3" stroke-miterlimit="10" enable-background="new    " width="71.2" height="71.2"/>
	
		<rect x="-237.1" y="455.9" display="inline" opacity="0.4" fill="none" stroke="#3A50A3" stroke-miterlimit="10" enable-background="new    " width="71.2" height="71.2"/>
	
		<rect x="-166" y="455.9" display="inline" opacity="0.4" fill="none" stroke="#3A50A3" stroke-miterlimit="10" enable-background="new    " width="71.2" height="71.2"/>
	
		<rect x="-94.9" y="455.9" display="inline" opacity="0.4" fill="none" stroke="#3A50A3" stroke-miterlimit="10" enable-background="new    " width="71.2" height="71.2"/>
	
		<rect x="-23.7" y="455.9" display="inline" opacity="0.4" fill="none" stroke="#3A50A3" stroke-miterlimit="10" enable-background="new    " width="71.2" height="71.2"/>
	
		<rect x="47.3" y="455.9" display="inline" opacity="0.4" fill="none" stroke="#3A50A3" stroke-miterlimit="10" enable-background="new    " width="71.2" height="71.2"/>
	
		<rect x="118.5" y="455.9" display="inline" opacity="0.4" fill="none" stroke="#3A50A3" stroke-miterlimit="10" enable-background="new    " width="71.2" height="71.2"/>
	
		<rect x="189.6" y="455.9" display="inline" opacity="0.4" fill="none" stroke="#3A50A3" stroke-miterlimit="10" enable-background="new    " width="71.2" height="71.2"/>
	
		<rect x="260.7" y="455.9" display="inline" opacity="0.4" fill="none" stroke="#3A50A3" stroke-miterlimit="10" enable-background="new    " width="71.2" height="71.2"/>
	
		<rect x="331.9" y="455.9" display="inline" opacity="0.4" fill="none" stroke="#3A50A3" stroke-miterlimit="10" enable-background="new    " width="71.2" height="71.2"/>
	
		<rect x="402.9" y="455.9" display="inline" opacity="0.4" fill="none" stroke="#3A50A3" stroke-miterlimit="10" enable-background="new    " width="71.2" height="71.2"/>
	
		<rect x="-237.1" y="527.1" display="inline" opacity="0.4" fill="none" stroke="#3A50A3" stroke-miterlimit="10" enable-background="new    " width="71.2" height="71.2"/>
	
		<rect x="-166" y="527.1" display="inline" opacity="0.4" fill="none" stroke="#3A50A3" stroke-miterlimit="10" enable-background="new    " width="71.2" height="71.2"/>
	
		<rect x="-94.9" y="527.1" display="inline" opacity="0.4" fill="none" stroke="#3A50A3" stroke-miterlimit="10" enable-background="new    " width="71.2" height="71.2"/>
	
		<rect x="-23.7" y="527.1" display="inline" opacity="0.4" fill="none" stroke="#3A50A3" stroke-miterlimit="10" enable-background="new    " width="71.2" height="71.2"/>
	
		<rect x="47.3" y="527.1" display="inline" opacity="0.4" fill="none" stroke="#3A50A3" stroke-miterlimit="10" enable-background="new    " width="71.2" height="71.2"/>
	
		<rect x="118.5" y="527.1" display="inline" opacity="0.4" fill="none" stroke="#3A50A3" stroke-miterlimit="10" enable-background="new    " width="71.2" height="71.2"/>
	
		<rect x="189.6" y="527.1" display="inline" opacity="0.4" fill="none" stroke="#3A50A3" stroke-miterlimit="10" enable-background="new    " width="71.2" height="71.2"/>
	
		<rect x="260.7" y="527.1" display="inline" opacity="0.4" fill="none" stroke="#3A50A3" stroke-miterlimit="10" enable-background="new    " width="71.2" height="71.2"/>
	
		<rect x="331.9" y="527.1" display="inline" opacity="0.4" fill="none" stroke="#3A50A3" stroke-miterlimit="10" enable-background="new    " width="71.2" height="71.2"/>
	
		<rect x="402.9" y="527.1" display="inline" opacity="0.4" fill="none" stroke="#3A50A3" stroke-miterlimit="10" enable-background="new    " width="71.2" height="71.2"/>
	
		<rect x="-237.1" y="598.2" display="inline" opacity="0.4" fill="none" stroke="#3A50A3" stroke-miterlimit="10" enable-background="new    " width="71.2" height="71.2"/>
	
		<rect x="-166" y="598.2" display="inline" opacity="0.4" fill="none" stroke="#3A50A3" stroke-miterlimit="10" enable-background="new    " width="71.2" height="71.2"/>
	
		<rect x="-94.9" y="598.2" display="inline" opacity="0.4" fill="none" stroke="#3A50A3" stroke-miterlimit="10" enable-background="new    " width="71.2" height="71.2"/>
	
		<rect x="-23.7" y="598.2" display="inline" opacity="0.4" fill="none" stroke="#3A50A3" stroke-miterlimit="10" enable-background="new    " width="71.2" height="71.2"/>
	
		<rect x="47.3" y="598.2" display="inline" opacity="0.4" fill="none" stroke="#3A50A3" stroke-miterlimit="10" enable-background="new    " width="71.2" height="71.2"/>
	
		<rect x="118.5" y="598.2" display="inline" opacity="0.4" fill="none" stroke="#3A50A3" stroke-miterlimit="10" enable-background="new    " width="71.2" height="71.2"/>
	
		<rect x="189.6" y="598.2" display="inline" opacity="0.4" fill="none" stroke="#3A50A3" stroke-miterlimit="10" enable-background="new    " width="71.2" height="71.2"/>
	
		<rect x="260.7" y="598.2" display="inline" opacity="0.4" fill="none" stroke="#3A50A3" stroke-miterlimit="10" enable-background="new    " width="71.2" height="71.2"/>
	
		<rect x="331.9" y="598.2" display="inline" opacity="0.4" fill="none" stroke="#3A50A3" stroke-miterlimit="10" enable-background="new    " width="71.2" height="71.2"/>
	
		<rect x="402.9" y="598.2" display="inline" opacity="0.4" fill="none" stroke="#3A50A3" stroke-miterlimit="10" enable-background="new    " width="71.2" height="71.2"/>
	
		<rect x="-237.1" y="669.3" display="inline" opacity="0.4" fill="none" stroke="#3A50A3" stroke-miterlimit="10" enable-background="new    " width="71.2" height="71.2"/>
	
		<rect x="-166" y="669.3" display="inline" opacity="0.4" fill="none" stroke="#3A50A3" stroke-miterlimit="10" enable-background="new    " width="71.2" height="71.2"/>
	
		<rect x="-94.9" y="669.3" display="inline" opacity="0.4" fill="none" stroke="#3A50A3" stroke-miterlimit="10" enable-background="new    " width="71.2" height="71.2"/>
	
		<rect x="-23.7" y="669.3" display="inline" opacity="0.4" fill="none" stroke="#3A50A3" stroke-miterlimit="10" enable-background="new    " width="71.2" height="71.2"/>
	
		<rect x="47.3" y="669.3" display="inline" opacity="0.4" fill="none" stroke="#3A50A3" stroke-miterlimit="10" enable-background="new    " width="71.2" height="71.2"/>
	
		<rect x="118.5" y="669.3" display="inline" opacity="0.4" fill="none" stroke="#3A50A3" stroke-miterlimit="10" enable-background="new    " width="71.2" height="71.2"/>
	
		<rect x="189.6" y="669.3" display="inline" opacity="0.4" fill="none" stroke="#3A50A3" stroke-miterlimit="10" enable-background="new    " width="71.2" height="71.2"/>
	
		<rect x="260.7" y="669.3" display="inline" opacity="0.4" fill="none" stroke="#3A50A3" stroke-miterlimit="10" enable-background="new    " width="71.2" height="71.2"/>
	
		<rect x="331.9" y="669.3" display="inline" opacity="0.4" fill="none" stroke="#3A50A3" stroke-miterlimit="10" enable-background="new    " width="71.2" height="71.2"/>
	
		<rect x="402.9" y="669.3" display="inline" opacity="0.4" fill="none" stroke="#3A50A3" stroke-miterlimit="10" enable-background="new    " width="71.2" height="71.2"/>
	
		<rect x="-237.1" y="740.5" display="inline" opacity="0.4" fill="none" stroke="#3A50A3" stroke-miterlimit="10" enable-background="new    " width="71.2" height="71.2"/>
	
		<rect x="-166" y="740.5" display="inline" opacity="0.4" fill="none" stroke="#3A50A3" stroke-miterlimit="10" enable-background="new    " width="71.2" height="71.2"/>
	
		<rect x="-94.9" y="740.5" display="inline" opacity="0.4" fill="none" stroke="#3A50A3" stroke-miterlimit="10" enable-background="new    " width="71.2" height="71.2"/>
	
		<rect x="-23.7" y="740.5" display="inline" opacity="0.4" fill="none" stroke="#3A50A3" stroke-miterlimit="10" enable-background="new    " width="71.2" height="71.2"/>
	
		<rect x="47.3" y="740.5" display="inline" opacity="0.4" fill="none" stroke="#3A50A3" stroke-miterlimit="10" enable-background="new    " width="71.2" height="71.2"/>
	
		<rect x="118.5" y="740.5" display="inline" opacity="0.4" fill="none" stroke="#3A50A3" stroke-miterlimit="10" enable-background="new    " width="71.2" height="71.2"/>
	
		<rect x="189.6" y="740.5" display="inline" opacity="0.4" fill="none" stroke="#3A50A3" stroke-miterlimit="10" enable-background="new    " width="71.2" height="71.2"/>
	
		<rect x="260.7" y="740.5" display="inline" opacity="0.4" fill="none" stroke="#3A50A3" stroke-miterlimit="10" enable-background="new    " width="71.2" height="71.2"/>
	
		<rect x="331.9" y="740.5" display="inline" opacity="0.4" fill="none" stroke="#3A50A3" stroke-miterlimit="10" enable-background="new    " width="71.2" height="71.2"/>
	
		<rect x="402.9" y="740.5" display="inline" opacity="0.4" fill="none" stroke="#3A50A3" stroke-miterlimit="10" enable-background="new    " width="71.2" height="71.2"/>
</g>
<g>
	<rect x="473.1" y="73.3" fill="#DEDDDD" width="1.6" height="8"/>
	<path fill="#DEDDDD" d="M474.7,685.7h-1.6v-15.9h1.6V685.7z M474.7,653.9h-1.6v-15.9h1.6V653.9z M474.7,622.1h-1.6v-15.9h1.6V622.1
		z M474.7,590.2h-1.6v-15.9h1.6V590.2z M474.7,558.4h-1.6v-15.9h1.6V558.4z M474.7,526.6h-1.6v-15.9h1.6V526.6z M474.7,494.8h-1.6
		v-15.9h1.6V494.8z M474.7,463h-1.6v-15.9h1.6V463z M474.7,431.2h-1.6v-15.9h1.6V431.2z M474.7,399.4h-1.6v-15.9h1.6V399.4z
		 M474.7,367.6h-1.6v-15.9h1.6V367.6z M474.7,335.8h-1.6v-15.9h1.6V335.8z M474.7,303.9h-1.6V288h1.6V303.9z M474.7,272.1h-1.6
		v-15.9h1.6V272.1z M474.7,240.3h-1.6v-15.9h1.6V240.3z M474.7,208.5h-1.6v-15.9h1.6V208.5z M474.7,176.7h-1.6v-15.9h1.6V176.7z
		 M474.7,144.9h-1.6v-15.9h1.6V144.9z M474.7,113.1h-1.6V97.2h1.6V113.1z"/>
	<rect x="473.1" y="701.6" fill="#DEDDDD" width="1.6" height="8"/>
</g>
<g>
	<rect x="324.9" y="134" fill="#828282" width="1.6" height="8"/>
	<path fill="#828282" d="M326.5,450h-1.6v-15.4h1.6V450z M326.5,419.1h-1.6v-15.4h1.6V419.1z M326.5,388.4h-1.6v-15.5h1.6V388.4z
		 M326.5,357.5h-1.6v-15.4h1.6V357.5z M326.5,326.8h-1.6v-15.4h1.6V326.8z M326.5,295.9h-1.6v-15.4h1.6V295.9z M326.5,265.2h-1.6
		v-15.4h1.6V265.2z M326.5,234.3h-1.6V219h1.6V234.3z M326.5,203.6h-1.6v-15.4h1.6V203.6z M326.5,172.7h-1.6v-15.4h1.6V172.7z"/>
	<rect x="324.9" y="465.3" fill="#828282" width="1.6" height="8"/>
</g>
<g>
	<rect x="297.9" y="324.1" fill="#DEDDDD" width="8" height="1.6"/>
	<path fill="#DEDDDD" d="M734.4,325.7h-16.5v-1.6h16.5V325.7z M701.4,325.7h-16.5v-1.6h16.5V325.7z M668.5,325.7H652v-1.6h16.5
		V325.7z M635.5,325.7H619v-1.6h16.5V325.7z M602.5,325.7h-16.5v-1.6h16.5V325.7z M569.6,325.7h-16.5v-1.6h16.5V325.7z M536.7,325.7
		h-16.5v-1.6h16.5V325.7z M503.7,325.7h-16.5v-1.6h16.5V325.7z M470.8,325.7h-16.5v-1.6h16.5V325.7z M437.8,325.7h-16.5v-1.6h16.5
		V325.7z M404.8,325.7h-16.5v-1.6h16.5V325.7z M371.8,325.7h-16.4v-1.6h16.5L371.8,325.7L371.8,325.7z M338.9,325.7h-16.5v-1.6h16.5
		V325.7z"/>
	<rect x="750.9" y="324.1" fill="#DEDDDD" width="8" height="1.6"/>
</g>
<rect x="189.6" y="384.1" display="none" fill="#414EA1" width="154.8" height="309.4"/>
<rect x="115.3" y="236.5" display="none" fill="#EE1E51" width="74.3" height="148.4"/>
<path fill="#828282" d="M508.4,690.9l-7.2-14.3l1.4-0.7l7.2,14.3L508.4,690.9z M494.2,662.5l-7.2-14.3l1.4-0.7l7.2,14.3L494.2,662.5
	z M479.8,633.9l-7.2-14.3l1.4-0.7l7.2,14.3L479.8,633.9z M465.6,605.4l-7.2-14.3l1.4-0.7l7.2,14.3L465.6,605.4z M451.3,577
	l-7.2-14.3l1.4-0.7l7.2,14.3L451.3,577z M437.1,548.4l-7.2-14.3l1.4-0.7l7.2,14.3L437.1,548.4z M422.8,519.9l-7.2-14.3l1.4-0.7
	l7.2,14.3L422.8,519.9z M408.5,491.5l-7.2-14.3l1.4-0.7l7.2,14.3L408.5,491.5z M394.3,462.9l-7.2-14.3l1.4-0.7l7.2,14.3L394.3,462.9
	z M380,434.4l-7.2-14.3l1.4-0.7l7.2,14.3L380,434.4z M365.7,406l-7.2-14.3l1.4-0.7l7.2,14.3L365.7,406z M351.5,377.5l-7.2-14.3
	l1.4-0.7l7.2,14.3L351.5,377.5z M337.2,348.9l-7.2-14.3l1.4-0.7l7.2,14.3L337.2,348.9z M322.9,320.5l-7.2-14.3l1.4-0.7l7.2,14.3
	L322.9,320.5z M308.6,292l-7.2-14.3l1.4-0.7l7.2,14.3L308.6,292z M294.3,263.4l-7.2-14.3l1.4-0.7l7.2,14.3L294.3,263.4z M280.1,235
	l-7.2-14.3l1.4-0.7l7.2,14.3L280.1,235z M265.8,206.5l-7.2-14.3l1.4-0.7l7.2,14.3L265.8,206.5z M251.6,177.9l-7.2-14.3l1.4-0.7
	l7.2,14.3L251.6,177.9z"/>
<path fill="#DEDDDD" d="M797,723.3L785.7,712l1.1-1.1l11.2,11.2L797,723.3z M774.4,700.7l-11.2-11.2l1.1-1.1l11.2,11.2L774.4,700.7z
	 M751.9,678.2l-11.2-11.2l1.1-1.1l11.2,11.2L751.9,678.2z M729.3,655.6l-11.2-11.2l1.1-1.1l11.2,11.2L729.3,655.6z M706.8,633.1
	l-11.2-11.2l1.1-1.1l11.2,11.2L706.8,633.1z M684.2,610.5L673,599.3l1.1-1.1l11.2,11.2L684.2,610.5z M661.8,588l-11.2-11.2l1.1-1.1
	l11.2,11.2L661.8,588z M639.2,565.5l-11.3-11.3l1.1-1.1l11.2,11.2L639.2,565.5z M616.7,542.9l-11.2-11.2l1.1-1.1l11.2,11.2
	L616.7,542.9z M594.1,520.4l-11.2-11.2l1.1-1.1l11.2,11.2L594.1,520.4z M571.6,497.8l-11.2-11.2l1.1-1.1l11.2,11.2L571.6,497.8z
	 M549,475.3l-11.2-11.2l1.1-1.1l11.2,11.2L549,475.3z M526.5,452.8l-11.2-11.2l1.1-1.1l11.2,11.2L526.5,452.8z M504,430.3L492.7,419
	l1.1-1.1l11.2,11.2L504,430.3z M481.4,407.7l-11.3-11.3l1.1-1.1l11.2,11.2L481.4,407.7z M458.9,385.2l-11.2-11.2l1.1-1.1l11.2,11.2
	L458.9,385.2z M436.3,362.6l-11.2-11.2l1.1-1.1l11.2,11.2L436.3,362.6z M413.8,340.1l-11.2-11.2l1.1-1.1l11.2,11.2L413.8,340.1z
	 M391.2,317.6L380,306.4l1.1-1.1l11.2,11.2L391.2,317.6z M368.8,295.1l-2.9-2.9l1.1-1.1l2.9,2.9L368.8,295.1z"/>
<path fill="#DEDDDD" d="M636.9,653.5l-7.1-14.3l1.4-0.7l7.1,14.3L636.9,653.5z M622.7,624.9l-7.1-14.3l1.4-0.7l7.1,14.3L622.7,624.9
	z M608.4,596.4l-7.1-14.3l1.4-0.7l7.1,14.3L608.4,596.4z M594.2,567.9l-7.1-14.3l1.4-0.7l7.1,14.3L594.2,567.9z M580,539.4
	l-7.1-14.3l1.4-0.7l7.1,14.3L580,539.4z M565.7,510.9l-7.1-14.3l1.4-0.7l7.1,14.3L565.7,510.9z M551.5,482.4l-7.1-14.3l1.4-0.7
	l7.1,14.3L551.5,482.4z M537.3,453.9l-7.1-14.3l1.4-0.7l7.1,14.3L537.3,453.9z M523,425.3l-7.1-14.3l1.4-0.7l7.1,14.3L523,425.3z
	 M508.8,396.8l-7.1-14.3l1.4-0.7l7.1,14.3L508.8,396.8z M494.6,368.3l-7.1-14.3l1.4-0.7l7.1,14.3L494.6,368.3z M480.3,339.8
	l-7.1-14.3l1.4-0.7l7.1,14.3L480.3,339.8z"/>
<g>
	<rect x="1.6" y="324.1" fill="#DEDDDD" width="8" height="1.6"/>
	<path fill="#DEDDDD" d="M438.1,325.7h-16.5v-1.6h16.5V325.7z M405.1,325.7h-16.5v-1.6h16.5V325.7z M372.2,325.7h-16.5v-1.6h16.5
		V325.7z M339.2,325.7h-16.5v-1.6h16.5V325.7z M306.2,325.7h-16.5v-1.6h16.5V325.7z M273.3,325.7h-16.5v-1.6h16.5V325.7z
		 M240.3,325.7h-16.5v-1.6h16.5V325.7z M207.3,325.7h-16.5v-1.6h16.5V325.7z M174.4,325.7h-16.5v-1.6h16.5V325.7z M141.4,325.7
		h-16.5v-1.6h16.5V325.7z M108.4,325.7H92v-1.6h16.5V325.7z M75.5,325.7H59v-1.6h16.5L75.5,325.7L75.5,325.7z M42.5,325.7H26.1v-1.6
		h16.5V325.7z"/>
	<rect x="454.6" y="324.1" fill="#DEDDDD" width="8" height="1.6"/>
</g>
<g id="points">
	<path fill="#ED177D" d="M473.9,332.6c-3.8,0-6.9-3.1-6.9-6.9s3.1-6.9,6.9-6.9c3.8,0,6.9,3.1,6.9,6.9S477.8,332.6,473.9,332.6z
		 M473.9,321.6c-2.2,0-4.1,1.8-4.1,4.1c0,2.3,1.8,4.1,4.1,4.1c2.3,0,4.1-1.8,4.1-4.1C478.1,323.4,476.2,321.6,473.9,321.6z"/>
</g>
<g id="axis">
	<rect x="1.6" y="472.5" fill="#8E8E8E" width="796.8" height="1.6"/>
	<rect x="399.2" y="74.9" fill="#8E8E8E" width="1.6" height="644.2"/>
	<g id="horizontal_marks_1_">
		<rect x="473.1" y="467.8" fill="#8E8E8E" width="1.6" height="11"/>
		<rect x="547.4" y="467.8" fill="#8E8E8E" width="1.6" height="11"/>
		<rect x="621.4" y="467.8" fill="#8E8E8E" width="1.6" height="11"/>
		<rect x="695.6" y="467.8" fill="#8E8E8E" width="1.6" height="11"/>
		<rect x="769.6" y="467.8" fill="#8E8E8E" width="1.6" height="11"/>
		<rect x="102.5" y="467.8" fill="#8E8E8E" width="1.6" height="11"/>
		<rect x="176.7" y="467.8" fill="#8E8E8E" width="1.6" height="11"/>
		<rect x="250.7" y="467.8" fill="#8E8E8E" width="1.6" height="11"/>
		<rect x="324.9" y="467.8" fill="#8E8E8E" width="1.6" height="11"/>
		<rect x="28.5" y="467.8" fill="#8E8E8E" width="1.6" height="11"/>
	</g>
	<g id="vertical_marks_1_">
		<rect x="394.5" y="398.4" fill="#8E8E8E" width="11" height="1.6"/>
		<rect x="394.5" y="324.1" fill="#8E8E8E" width="11" height="1.6"/>
		<rect x="394.5" y="250.2" fill="#8E8E8E" width="11" height="1.6"/>
		<rect x="394.5" y="175.9" fill="#8E8E8E" width="11" height="1.6"/>
		<rect x="394.5" y="102" fill="#8E8E8E" width="11" height="1.6"/>
		<rect x="394.5" y="694.8" fill="#8E8E8E" width="11" height="1.6"/>
		<rect x="394.5" y="620.9" fill="#8E8E8E" width="11" height="1.6"/>
		<rect x="394.5" y="546.6" fill="#8E8E8E" width="11" height="1.6"/>
	</g>
	<g id="horizontal_labels">
		<g>
			<path fill="#383838" d="M472.4,485.1l1.9-1h0.2v6.7c0,0.5,0,0.7,0.1,0.8c0,0.1,0.1,0.2,0.2,0.2c0.2,0.1,0.3,0.1,0.7,0.1v0.2h-2.9
				V492c0.4,0,0.6,0,0.7-0.1c0.1-0.1,0.2-0.2,0.2-0.2c0.1-0.1,0.1-0.4,0.1-0.9v-4.3c0-0.6,0-1-0.1-1.1c0-0.2-0.1-0.2-0.2-0.2
				c-0.1-0.1-0.2-0.1-0.2-0.1C472.9,485,472.7,485.1,472.4,485.1L472.4,485.1z"/>
		</g>
		<g>
			<path fill="#383838" d="M550.7,490.8l-0.6,1.5h-4.7V492c1.4-1.3,2.3-2.3,2.9-3.1s0.9-1.5,0.9-2.2c0-0.5-0.2-0.9-0.5-1.3
				c-0.3-0.4-0.6-0.5-1.1-0.5c-0.4,0-0.7,0.1-1,0.3c-0.3,0.2-0.6,0.6-0.7,1h-0.2c0.1-0.7,0.3-1.3,0.7-1.7c0.4-0.4,0.9-0.6,1.5-0.6
				s1.2,0.2,1.6,0.6c0.4,0.4,0.6,0.9,0.6,1.4c0,0.4-0.1,0.8-0.3,1.2c-0.3,0.6-0.7,1.3-1.4,2c-1,1-1.6,1.7-1.8,1.9h2.1
				c0.4,0,0.7,0,0.9-0.1c0.2,0,0.3-0.1,0.5-0.2c0.2-0.1,0.2-0.2,0.3-0.4L550.7,490.8L550.7,490.8z"/>
		</g>
		<g>
			<path fill="#383838" d="M619.8,485.8c0.2-0.6,0.5-1,0.9-1.2c0.3-0.3,0.8-0.4,1.3-0.4c0.6,0,1.1,0.2,1.4,0.6
				c0.2,0.3,0.4,0.6,0.4,1c0,0.6-0.4,1.2-1.1,1.8c0.5,0.2,0.9,0.5,1.1,0.8c0.2,0.3,0.4,0.8,0.4,1.3c0,0.7-0.2,1.3-0.6,1.8
				c-0.6,0.6-1.4,1-2.5,1c-0.6,0-0.9-0.1-1.1-0.2c-0.2-0.2-0.3-0.2-0.3-0.4c0-0.1,0.1-0.2,0.2-0.3c0.1-0.1,0.2-0.2,0.3-0.2
				c0.1,0,0.2,0,0.3,0.1c0.1,0,0.2,0.1,0.5,0.2s0.4,0.2,0.5,0.2c0.2,0.1,0.3,0.1,0.5,0.1c0.4,0,0.7-0.2,1-0.5
				c0.3-0.3,0.5-0.6,0.5-1.1c0-0.3-0.1-0.6-0.2-0.9c-0.1-0.2-0.2-0.4-0.3-0.5c-0.2-0.2-0.4-0.3-0.7-0.4c-0.3-0.2-0.6-0.2-0.9-0.2
				H621v-0.2c0.3,0,0.6-0.2,1-0.3s0.6-0.4,0.6-0.6c0.1-0.2,0.2-0.6,0.2-0.9c0-0.4-0.2-0.7-0.4-1c-0.2-0.2-0.6-0.4-1-0.4
				c-0.6,0-1.1,0.3-1.5,1L619.8,485.8z"/>
		</g>
		<g>
			<path fill="#383838" d="M699,489.3v0.8h-1v2.1h-1v-2.1h-3.3v-0.7l3.7-5.3h0.6v5.2H699z M697,489.3v-3.9l-2.8,3.9H697z"/>
		</g>
		<g>
			<path fill="#383838" d="M772.6,484.3l-0.5,1h-2.4l-0.6,1c1,0.2,1.8,0.6,2.5,1.1c0.6,0.6,0.8,1.1,0.8,1.8c0,0.4-0.1,0.8-0.2,1.2
				s-0.4,0.6-0.6,0.9c-0.2,0.2-0.6,0.5-0.9,0.6c-0.5,0.2-0.9,0.3-1.4,0.3s-0.8-0.1-1-0.2c-0.2-0.2-0.3-0.3-0.3-0.6
				c0-0.1,0.1-0.2,0.2-0.3c0.1-0.1,0.2-0.2,0.3-0.2c0.1,0,0.2,0,0.2,0.1c0.1,0,0.2,0.1,0.4,0.2c0.3,0.2,0.6,0.3,0.9,0.3
				c0.5,0,0.9-0.2,1.2-0.5c0.3-0.3,0.5-0.8,0.5-1.3c0-0.5-0.2-1-0.5-1.4c-0.3-0.4-0.7-0.7-1.3-1c-0.4-0.2-1-0.2-1.8-0.3l1.5-3.1h2.9
				V484.3z"/>
		</g>
		<g>
			<path fill="#383838" d="M24.9,490.4h3v0.9h-3V490.4z"/>
			<path fill="#383838" d="M33.5,485.6l-0.5,1h-2.4l-0.6,1c1,0.2,1.8,0.6,2.5,1.1c0.5,0.6,0.8,1.1,0.8,1.8c0,0.4-0.1,0.8-0.2,1.2
				c-0.2,0.3-0.4,0.6-0.6,0.9c-0.2,0.2-0.6,0.5-0.9,0.6c-0.5,0.2-0.9,0.3-1.4,0.3c-0.5,0-0.8-0.1-1-0.2c-0.2-0.2-0.3-0.3-0.3-0.6
				c0-0.1,0.1-0.2,0.2-0.3c0.1-0.1,0.2-0.2,0.3-0.2c0.1,0,0.2,0,0.2,0.1c0.1,0,0.2,0.1,0.4,0.2c0.3,0.2,0.6,0.3,0.9,0.3
				c0.5,0,0.9-0.2,1.2-0.5c0.3-0.3,0.5-0.8,0.5-1.3s-0.2-1-0.5-1.4c-0.3-0.4-0.7-0.7-1.3-1c-0.4-0.2-1-0.2-1.8-0.3l1.5-3.1h2.9
				V485.6z"/>
		</g>
		<g>
			<path fill="#383838" d="M99.1,490.4h3v0.9h-3C99.1,491.2,99.1,490.4,99.1,490.4z"/>
			<path fill="#383838" d="M108.1,490.5v0.8h-1v2.1h-1v-2.1h-3.3v-0.7l3.7-5.3h0.6v5.2H108.1z M106.1,490.5v-3.9l-2.8,3.9H106.1z"/>
		</g>
		<g>
			<path fill="#383838" d="M173.1,490.4h3v0.9h-3V490.4z"/>
			<path fill="#383838" d="M177.1,487.1c0.2-0.6,0.5-1,0.9-1.2c0.3-0.3,0.8-0.4,1.3-0.4c0.6,0,1.1,0.2,1.4,0.6
				c0.2,0.3,0.4,0.6,0.4,1c0,0.6-0.4,1.2-1.1,1.8c0.5,0.2,0.9,0.5,1.1,0.8c0.2,0.3,0.4,0.8,0.4,1.3c0,0.7-0.2,1.3-0.6,1.8
				c-0.6,0.6-1.4,1-2.5,1c-0.6,0-0.9-0.1-1.1-0.2c-0.2-0.2-0.3-0.2-0.3-0.4c0-0.1,0.1-0.2,0.2-0.3c0.1-0.1,0.2-0.2,0.3-0.2
				c0.1,0,0.2,0,0.3,0.1c0.1,0,0.2,0.1,0.5,0.2c0.2,0.2,0.4,0.2,0.5,0.2c0.2,0.1,0.3,0.1,0.5,0.1c0.4,0,0.7-0.2,1-0.5
				c0.3-0.3,0.5-0.6,0.5-1.1c0-0.3-0.1-0.6-0.2-0.9c-0.1-0.2-0.2-0.4-0.3-0.5c-0.2-0.2-0.4-0.3-0.7-0.4c-0.3-0.2-0.6-0.2-0.9-0.2
				h-0.2v-0.2c0.3,0,0.6-0.2,1-0.3c0.3-0.2,0.6-0.4,0.6-0.6c0.1-0.2,0.2-0.6,0.2-0.9c0-0.4-0.2-0.7-0.4-1c-0.2-0.2-0.6-0.4-1-0.4
				c-0.6,0-1.1,0.3-1.5,1L177.1,487.1z"/>
		</g>
		<g>
			<path fill="#383838" d="M247.3,490.4h3v0.9h-3V490.4z"/>
			<path fill="#383838" d="M256.3,492l-0.6,1.5H251v-0.2c1.4-1.3,2.3-2.3,2.9-3.1c0.6-0.8,0.9-1.5,0.9-2.2c0-0.5-0.2-0.9-0.5-1.3
				c-0.3-0.4-0.6-0.5-1.1-0.5c-0.4,0-0.7,0.1-1,0.3c-0.3,0.2-0.6,0.6-0.7,1h-0.2c0.1-0.7,0.3-1.3,0.7-1.7s0.9-0.6,1.5-0.6
				c0.6,0,1.2,0.2,1.6,0.6s0.6,0.9,0.6,1.4c0,0.4-0.1,0.8-0.3,1.2c-0.3,0.6-0.7,1.3-1.4,2c-1,1-1.6,1.7-1.8,1.9h2.1
				c0.4,0,0.7,0,0.9-0.1c0.2,0,0.3-0.1,0.5-0.2c0.2-0.1,0.2-0.2,0.3-0.4L256.3,492L256.3,492z"/>
		</g>
		<g>
			<path fill="#383838" d="M321.3,490.4h3v0.9h-3V490.4z"/>
			<path fill="#383838" d="M326.1,486.3l1.9-1h0.2v6.7c0,0.5,0,0.7,0.1,0.8c0,0.1,0.1,0.2,0.2,0.2c0.2,0.1,0.3,0.1,0.7,0.1v0.2h-2.9
				v-0.2c0.4,0,0.6,0,0.7-0.1s0.2-0.2,0.2-0.2c0.1-0.1,0.1-0.4,0.1-0.9v-4.3c0-0.6,0-1-0.1-1.1c0-0.2-0.1-0.2-0.2-0.2
				c-0.1-0.1-0.2-0.1-0.2-0.1c-0.2,0-0.3,0.1-0.6,0.2L326.1,486.3z"/>
		</g>
		<g>
			<path fill="#383838" d="M783.9,484.5h4.2v0.4c-0.2,0-0.5,0.1-0.6,0.2c-0.1,0.1-0.2,0.2-0.2,0.4c0,0.2,0.1,0.4,0.3,0.7
				c0.1,0.1,0.2,0.2,0.3,0.5l0.6,1l0.7-1c0.5-0.6,0.7-1,0.7-1.2c0-0.2-0.1-0.2-0.2-0.3c-0.1-0.1-0.3-0.2-0.6-0.2v-0.4h3v0.4
				c-0.3,0-0.6,0.1-0.8,0.2c-0.3,0.2-0.7,0.7-1.3,1.4l-1.2,1.6l2.2,3.2c0.6,0.8,1,1.3,1.2,1.4c0.2,0.2,0.6,0.2,0.9,0.2v0.3h-4.2
				v-0.3c0.3,0,0.6-0.1,0.7-0.2c0.2-0.1,0.2-0.2,0.2-0.4c0-0.2-0.2-0.6-0.6-1.1l-1.3-1.9l-1.4,1.9c-0.5,0.6-0.6,1-0.6,1
				c0,0.2,0.1,0.3,0.2,0.4c0.2,0.2,0.4,0.2,0.6,0.2v0.3h-2.9v-0.3c0.2,0,0.4-0.1,0.6-0.2c0.2-0.2,0.6-0.6,1.3-1.4l1.8-2.5l-1.7-2.5
				c-0.5-0.7-0.9-1.1-1.1-1.4c-0.2-0.2-0.6-0.2-1-0.2v-0.4H783.9z"/>
		</g>
	</g>
	<g id="vertical_lables">
		<g>
			<path fill="#383838" d="M385.6,395l1.9-1h0.2v6.7c0,0.5,0,0.7,0.1,0.8c0,0.1,0.1,0.2,0.2,0.2c0.2,0.1,0.3,0.1,0.7,0.1v0.2h-2.9
				v-0.2c0.4,0,0.6,0,0.7-0.1c0.1-0.1,0.2-0.2,0.2-0.2c0.1-0.1,0.1-0.4,0.1-0.9v-4.3c0-0.6,0-1-0.1-1.1c0-0.2-0.1-0.2-0.2-0.2
				c-0.1-0.1-0.2-0.1-0.2-0.1C386.1,394.9,386,395,385.6,395L385.6,395z"/>
		</g>
		<g>
			<path fill="#383838" d="M389.6,326.5l-0.6,1.5h-4.7v-0.2c1.4-1.3,2.3-2.3,2.9-3.1s0.9-1.5,0.9-2.2c0-0.5-0.2-0.9-0.5-1.3
				s-0.6-0.5-1.1-0.5c-0.4,0-0.7,0.1-1,0.3c-0.3,0.2-0.6,0.6-0.7,1h-0.2c0.1-0.7,0.3-1.3,0.7-1.7s0.9-0.6,1.5-0.6
				c0.6,0,1.2,0.2,1.6,0.6s0.6,0.9,0.6,1.4c0,0.4-0.1,0.8-0.3,1.2c-0.3,0.6-0.7,1.3-1.4,2c-1,1-1.6,1.7-1.8,1.9h2.1
				c0.4,0,0.7,0,0.9-0.1c0.2,0,0.3-0.1,0.5-0.2c0.2-0.1,0.2-0.2,0.3-0.4L389.6,326.5L389.6,326.5z"/>
		</g>
		<g>
			<path fill="#383838" d="M384.8,247.8c0.2-0.6,0.5-1,0.9-1.2c0.3-0.3,0.8-0.4,1.3-0.4c0.6,0,1.1,0.2,1.4,0.6
				c0.2,0.3,0.4,0.6,0.4,1c0,0.6-0.4,1.2-1.1,1.8c0.5,0.2,0.9,0.5,1.1,0.8c0.2,0.3,0.4,0.8,0.4,1.3c0,0.7-0.2,1.3-0.6,1.8
				c-0.6,0.6-1.4,1-2.5,1c-0.6,0-0.9-0.1-1.1-0.2c-0.2-0.2-0.3-0.2-0.3-0.4c0-0.1,0.1-0.2,0.2-0.3c0.1-0.1,0.2-0.2,0.3-0.2
				c0.1,0,0.2,0,0.3,0.1c0.1,0,0.2,0.1,0.5,0.2c0.2,0.2,0.4,0.2,0.5,0.2c0.2,0.1,0.3,0.1,0.5,0.1c0.4,0,0.7-0.2,1-0.5
				c0.3-0.3,0.5-0.6,0.5-1.1c0-0.3-0.1-0.6-0.2-0.9c-0.1-0.2-0.2-0.4-0.3-0.5c-0.2-0.2-0.4-0.3-0.7-0.4c-0.3-0.2-0.6-0.2-0.9-0.2
				h-0.2v-0.2c0.3,0,0.6-0.2,1-0.3s0.6-0.4,0.6-0.6c0.1-0.2,0.2-0.6,0.2-0.9c0-0.4-0.2-0.7-0.4-1c-0.2-0.2-0.6-0.4-1-0.4
				c-0.6,0-1.1,0.3-1.5,1L384.8,247.8z"/>
		</g>
		<g>
			<path fill="#383838" d="M389.7,177.1v0.8h-1v2.1h-1v-2.1h-3.3v-0.7l3.7-5.3h0.6v5.2L389.7,177.1L389.7,177.1z M387.7,177.1v-3.9
				l-2.8,3.9H387.7z"/>
		</g>
		<g>
			<path fill="#383838" d="M389.3,98l-0.5,1h-2.4l-0.6,1c1,0.2,1.8,0.6,2.5,1.1c0.5,0.6,0.8,1.1,0.8,1.8c0,0.4-0.1,0.8-0.2,1.2
				c-0.2,0.3-0.4,0.6-0.6,0.9c-0.2,0.2-0.6,0.5-0.9,0.6c-0.5,0.2-0.9,0.3-1.4,0.3s-0.8-0.1-1-0.2c-0.2-0.2-0.3-0.3-0.3-0.6
				c0-0.1,0.1-0.2,0.2-0.3s0.2-0.2,0.3-0.2s0.2,0,0.2,0.1c0.1,0,0.2,0.1,0.4,0.2c0.3,0.2,0.6,0.3,0.9,0.3c0.5,0,0.9-0.2,1.2-0.5
				c0.3-0.3,0.5-0.8,0.5-1.3s-0.2-1-0.5-1.4c-0.3-0.4-0.7-0.7-1.3-1c-0.4-0.2-1-0.2-1.8-0.3l1.5-3.1h2.9V98z"/>
		</g>
		<g>
			<path fill="#383838" d="M380.6,696.2h3v0.9h-3V696.2z"/>
			<path fill="#383838" d="M384.8,692.9c0.2-0.6,0.5-1,0.9-1.2c0.3-0.3,0.8-0.4,1.3-0.4c0.6,0,1.1,0.2,1.4,0.6
				c0.2,0.3,0.4,0.6,0.4,1c0,0.6-0.4,1.2-1.1,1.8c0.5,0.2,0.9,0.5,1.1,0.8c0.2,0.3,0.4,0.8,0.4,1.3c0,0.7-0.2,1.3-0.6,1.8
				c-0.6,0.6-1.4,1-2.5,1c-0.6,0-0.9-0.1-1.1-0.2c-0.2-0.2-0.3-0.2-0.3-0.4c0-0.1,0.1-0.2,0.2-0.3s0.2-0.2,0.3-0.2
				c0.1,0,0.2,0,0.3,0.1c0.1,0,0.2,0.1,0.5,0.2c0.2,0.2,0.4,0.2,0.5,0.2c0.2,0.1,0.3,0.1,0.5,0.1c0.4,0,0.7-0.2,1-0.5
				c0.3-0.3,0.5-0.6,0.5-1.1c0-0.3-0.1-0.6-0.2-0.9c-0.1-0.2-0.2-0.4-0.3-0.5c-0.2-0.2-0.4-0.3-0.7-0.4c-0.3-0.2-0.6-0.2-0.9-0.2
				h-0.2v-0.2c0.3,0,0.6-0.2,1-0.3c0.3-0.2,0.6-0.4,0.6-0.6c0.1-0.2,0.2-0.6,0.2-0.9c0-0.4-0.2-0.7-0.4-1c-0.2-0.2-0.6-0.4-1-0.4
				c-0.6,0-1.1,0.3-1.5,1L384.8,692.9z"/>
		</g>
		<g>
			<path fill="#383838" d="M380.6,622.1h3v0.9h-3V622.1z"/>
			<path fill="#383838" d="M389.6,623.7l-0.6,1.5h-4.7V625c1.4-1.3,2.3-2.3,2.9-3.1s0.9-1.5,0.9-2.2c0-0.5-0.2-0.9-0.5-1.3
				c-0.3-0.4-0.6-0.5-1.1-0.5c-0.4,0-0.7,0.1-1,0.3c-0.3,0.2-0.6,0.6-0.7,1h-0.2c0.1-0.7,0.3-1.3,0.7-1.7c0.4-0.4,0.9-0.6,1.5-0.6
				c0.6,0,1.2,0.2,1.6,0.6c0.4,0.4,0.6,0.9,0.6,1.4c0,0.4-0.1,0.8-0.3,1.2c-0.3,0.6-0.7,1.3-1.4,2c-1,1-1.6,1.7-1.8,1.9h2.1
				c0.4,0,0.7,0,0.9-0.1c0.2,0,0.3-0.1,0.5-0.2c0.2-0.1,0.2-0.2,0.3-0.4L389.6,623.7L389.6,623.7z"/>
		</g>
		<g>
			<path fill="#383838" d="M380.6,548h3v0.9h-3V548z"/>
			<path fill="#383838" d="M385.6,544l1.9-1h0.2v6.7c0,0.5,0,0.7,0.1,0.8c0,0.1,0.1,0.2,0.2,0.2c0.2,0.1,0.3,0.1,0.7,0.1v0.2h-2.9
				v-0.2c0.4,0,0.6,0,0.7-0.1c0.1-0.1,0.2-0.2,0.2-0.2c0.1-0.1,0.1-0.4,0.1-0.9v-4.3c0-0.6,0-1-0.1-1.1c0-0.2-0.1-0.2-0.2-0.2
				c-0.1-0.1-0.2-0.1-0.2-0.1C386.1,543.9,386,544,385.6,544L385.6,544z"/>
		</g>
		<g>
			<path fill="#383838" d="M411.1,81.5h4.1v0.4H415c-0.3,0-0.5,0.1-0.6,0.2c-0.2,0.2-0.2,0.3-0.2,0.5c0,0.2,0.1,0.6,0.3,1l2.2,4.5
				l2-4.9c0.1-0.2,0.2-0.6,0.2-0.8c0-0.1,0-0.2-0.1-0.2c-0.1-0.1-0.2-0.2-0.2-0.2c-0.1-0.1-0.3-0.1-0.6-0.1v-0.4h2.9v0.4
				c-0.2,0-0.4,0.1-0.6,0.2c-0.2,0.1-0.2,0.2-0.4,0.4c-0.1,0.1-0.2,0.3-0.3,0.7l-3.7,8.9c-0.3,0.9-0.8,1.5-1.4,2
				c-0.6,0.5-1.1,0.6-1.7,0.6c-0.4,0-0.7-0.1-1-0.3c-0.2-0.2-0.4-0.5-0.4-0.8c0-0.2,0.1-0.5,0.2-0.6c0.2-0.2,0.4-0.2,0.7-0.2
				c0.2,0,0.5,0.1,0.9,0.2c0.2,0.1,0.4,0.2,0.5,0.2c0.2,0,0.4-0.1,0.6-0.3c0.2-0.2,0.5-0.6,0.7-1.2l0.6-1.5l-3.2-6.7
				c-0.1-0.2-0.2-0.5-0.5-0.7c-0.2-0.2-0.3-0.4-0.4-0.5c-0.2-0.1-0.4-0.2-0.7-0.2v-0.4H411.1z"/>
		</g>
		<g>
			<path fill="#ED177D" d="M17.5,303.7v5.8c0,0.8,0.1,1.4,0.2,1.6c0.2,0.3,0.6,0.4,1,0.4h0.8v0.3h-5.3v-0.3h0.4
				c0.2,0,0.5-0.1,0.7-0.2c0.2-0.2,0.4-0.3,0.5-0.6c0.1-0.2,0.2-0.6,0.2-1.3v-5.8h-1.8V303h1.8v-0.6c0-0.9,0.2-1.7,0.4-2.2
				c0.3-0.6,0.7-1.1,1.3-1.5s1.3-0.6,2-0.6s1.3,0.2,1.9,0.6c0.4,0.3,0.6,0.6,0.6,1c0,0.2-0.1,0.4-0.2,0.6c-0.2,0.2-0.3,0.2-0.6,0.2
				c-0.2,0-0.3-0.1-0.5-0.2s-0.4-0.3-0.6-0.7c-0.2-0.3-0.5-0.6-0.6-0.7c-0.2-0.2-0.4-0.2-0.6-0.2c-0.3,0-0.6,0.1-0.8,0.2
				c-0.2,0.2-0.3,0.4-0.5,0.7c-0.1,0.3-0.2,1.2-0.2,2.5v0.6h2.3v0.7L17.5,303.7L17.5,303.7z"/>
			<path fill="#ED177D" d="M26.2,315.9v0.4c-1-0.5-1.8-1-2.5-1.8c-1-1-1.7-2.1-2.2-3.3c-0.5-1.3-0.8-2.6-0.8-4c0-2,0.5-3.8,1.5-5.5
				c1-1.7,2.3-2.9,3.9-3.6v0.4c-0.8,0.5-1.4,1-2,1.8c-0.5,0.8-0.9,1.8-1.1,2.9c-0.2,1.2-0.4,2.4-0.4,3.7c0,1.4,0.1,2.6,0.3,3.7
				c0.2,0.9,0.4,1.6,0.6,2.2c0.2,0.6,0.6,1,1,1.6S25.6,315.4,26.2,315.9z"/>
			<path fill="#ED177D" d="M26.9,303h4.2v0.4c-0.2,0-0.5,0.1-0.6,0.2c-0.1,0.1-0.2,0.2-0.2,0.4c0,0.2,0.1,0.4,0.3,0.7
				c0.1,0.1,0.2,0.2,0.3,0.5l0.6,1l0.7-1c0.5-0.6,0.7-1,0.7-1.2c0-0.2-0.1-0.2-0.2-0.3c-0.1-0.1-0.3-0.2-0.6-0.2v-0.4h3v0.4
				c-0.3,0-0.6,0.1-0.8,0.2c-0.3,0.2-0.7,0.7-1.3,1.4l-1.2,1.6l2.2,3.2c0.6,0.8,1,1.3,1.2,1.4c0.2,0.2,0.6,0.2,0.9,0.2v0.3h-4.2
				v-0.4c0.3,0,0.6-0.1,0.7-0.2s0.2-0.2,0.2-0.4s-0.2-0.6-0.6-1.1l-1.3-1.9l-1.4,1.9c-0.5,0.6-0.6,1-0.6,1c0,0.2,0.1,0.3,0.2,0.4
				c0.2,0.2,0.4,0.2,0.6,0.2v0.3h-2.9v-0.3c0.2,0,0.4-0.1,0.6-0.2c0.2-0.2,0.6-0.6,1.3-1.4l1.8-2.5l-1.7-2.5
				c-0.5-0.7-0.9-1.1-1.1-1.4c-0.2-0.2-0.6-0.2-1-0.2V303H26.9z"/>
			<path fill="#ED177D" d="M37.1,298.5v-0.4c1,0.5,1.8,1,2.5,1.8c1,1,1.7,2.1,2.2,3.3c0.5,1.3,0.8,2.6,0.8,4c0,2-0.5,3.8-1.5,5.5
				c-1,1.7-2.3,2.9-3.9,3.6v-0.4c0.8-0.5,1.4-1,2-1.8c0.5-0.8,0.9-1.8,1.1-2.9c0.2-1.2,0.4-2.4,0.4-3.7c0-1.4-0.1-2.6-0.3-3.7
				c-0.2-0.9-0.4-1.6-0.6-2.2s-0.6-1-1-1.6C38.2,299.4,37.8,299,37.1,298.5z"/>
		</g>
		<g>
			<path fill="#383938" d="M388.1,489.6c0-0.9,0.2-1.7,0.4-2.3c0.2-0.6,0.6-1.1,1.1-1.4c0.3-0.2,0.7-0.4,1.1-0.4
				c0.6,0,1.1,0.3,1.7,1c0.6,0.8,0.9,1.8,0.9,3.1c0,1-0.2,1.7-0.4,2.3c-0.2,0.6-0.6,1.1-1,1.4c-0.4,0.3-0.8,0.4-1.2,0.4
				c-0.7,0-1.4-0.5-1.9-1.4C388.4,491.6,388.1,490.6,388.1,489.6z M389.3,489.7c0,1.1,0.2,2,0.4,2.6c0.2,0.6,0.6,0.9,1,0.9
				c0.2,0,0.4-0.1,0.6-0.3c0.2-0.2,0.4-0.5,0.5-1c0.2-0.6,0.2-1.6,0.2-2.9c0-0.9-0.1-1.7-0.3-2.2c-0.2-0.5-0.3-0.8-0.6-1
				c-0.2-0.2-0.3-0.2-0.6-0.2c-0.2,0-0.5,0.1-0.7,0.3c-0.3,0.3-0.5,0.8-0.6,1.5C389.2,488.3,389.3,489,389.3,489.7z"/>
		</g>
	</g>
	<g id="arrow">
		<polygon fill="#8E8E8E" points="404.9,84.9 400,76.5 395.1,84.9 393.7,84.1 400,73.3 406.3,84.1 		"/>
		<polygon fill="#8E8E8E" points="10.8,479.6 0,473.3 10.8,467 11.6,468.4 3.2,473.3 11.6,478.2 		"/>
		<polygon fill="#8E8E8E" points="400,720.6 393.7,710 395.1,709.2 400,717.5 404.9,709.2 406.3,710 		"/>
		<polygon fill="#8E8E8E" points="789.2,479.6 788.4,478.2 796.8,473.3 788.4,468.4 789.2,467 800,473.3 		"/>
	</g>
</g>
<g id="line">
	<path fill="#ED177D" d="M796.5,720.1c-9.4-9.4-230.9-230.9-243.5-247.7c-15.4-20.6-75.1-136.3-77.6-141.2l2.5-1.3
		c0.6,1.2,62.2,120.5,77.4,140.8c12.5,16.7,241,245.1,243.3,247.4L796.5,720.1z"/>
	<path fill="#ED177D" d="M442,534.7c-12.2,0-28-29.9-40.6-55.9c-1.3-2.7-2.2-4.6-2.6-5.3c-0.2-0.4-0.6-1-0.9-1.7
		c-4.3-7.9-17.4-31.9-37.1-31.9c-28.1,0-33.5,33.4-33.6,33.7l-2.9-0.2c0-47.7-8.6-84.9-22.9-99.2C259.3,332,4.1,332.7,1.6,332.7V330
		c0.6,0,65.3-0.2,134.3,4.8c93,6.8,149.3,19.4,167.4,37.5c13.9,13.9,22.5,47.7,23.7,91.6c4-10.7,13.3-26.6,33.7-26.6
		c21.4,0,35.1,25.1,39.6,33.3c0.3,0.6,0.6,1.2,0.9,1.6c0.5,0.8,1.4,2.7,2.7,5.6c6.5,13.5,26.1,54.3,38,54.3c1,0,1.9-0.5,2.9-1.4
		c8.8-9,20.3-58.6,24.5-243.5c2.5-110.9,1-219.2,1-220.3h2.8c0.2,17.7,5.5,433.6-26.3,465.8C445.3,533.9,443.7,534.7,442,534.7z"/>
</g>
</svg>
