<?xml version="1.0" encoding="utf-8"?>
<!-- Generator: Adobe Illustrator 18.0.0, SVG Export Plug-In . SVG Version: 6.00 Build 0)  -->
<!DOCTYPE svg PUBLIC "-//W3C//DTD SVG 1.0//EN" "http://www.w3.org/TR/2001/REC-SVG-20010904/DTD/svg10.dtd">
<svg version="1.0" xmlns="http://www.w3.org/2000/svg" xmlns:xlink="http://www.w3.org/1999/xlink" x="0px" y="0px"
	 viewBox="0 0 1000 1000" enable-background="new 0 0 1000 1000" xml:space="preserve">
<g id="background">
</g>
<g id="grid" display="none">
	
		<rect x="-299.6" y="32" display="inline" opacity="0.4" fill="none" stroke="#3A50A3" stroke-miterlimit="10" width="89.3" height="89.3"/>
	
		<rect x="-210.3" y="32" display="inline" opacity="0.4" fill="none" stroke="#3A50A3" stroke-miterlimit="10" width="89.3" height="89.3"/>
	
		<rect x="-121.1" y="32" display="inline" opacity="0.4" fill="none" stroke="#3A50A3" stroke-miterlimit="10" width="89.3" height="89.3"/>
	
		<rect x="-31.8" y="32" display="inline" opacity="0.4" fill="none" stroke="#3A50A3" stroke-miterlimit="10" width="89.3" height="89.3"/>
	
		<rect x="57.4" y="32" display="inline" opacity="0.4" fill="none" stroke="#3A50A3" stroke-miterlimit="10" width="89.3" height="89.3"/>
	
		<rect x="146.7" y="32" display="inline" opacity="0.4" fill="none" stroke="#3A50A3" stroke-miterlimit="10" width="89.3" height="89.3"/>
	
		<rect x="236" y="32" display="inline" opacity="0.4" fill="none" stroke="#3A50A3" stroke-miterlimit="10" width="89.3" height="89.3"/>
	
		<rect x="325.2" y="32" display="inline" opacity="0.4" fill="none" stroke="#3A50A3" stroke-miterlimit="10" width="89.3" height="89.3"/>
	
		<rect x="414.5" y="32" display="inline" opacity="0.4" fill="none" stroke="#3A50A3" stroke-miterlimit="10" width="89.3" height="89.3"/>
	
		<rect x="503.7" y="32" display="inline" opacity="0.4" fill="none" stroke="#3A50A3" stroke-miterlimit="10" width="89.3" height="89.3"/>
	
		<rect x="-299.6" y="121.2" display="inline" opacity="0.4" fill="none" stroke="#3A50A3" stroke-miterlimit="10" width="89.3" height="89.3"/>
	
		<rect x="-210.3" y="121.2" display="inline" opacity="0.4" fill="none" stroke="#3A50A3" stroke-miterlimit="10" width="89.3" height="89.3"/>
	
		<rect x="-121.1" y="121.2" display="inline" opacity="0.4" fill="none" stroke="#3A50A3" stroke-miterlimit="10" width="89.3" height="89.3"/>
	
		<rect x="-31.8" y="121.2" display="inline" opacity="0.4" fill="none" stroke="#3A50A3" stroke-miterlimit="10" width="89.3" height="89.3"/>
	
		<rect x="57.4" y="121.2" display="inline" opacity="0.4" fill="none" stroke="#3A50A3" stroke-miterlimit="10" width="89.3" height="89.3"/>
	
		<rect x="146.7" y="121.2" display="inline" opacity="0.4" fill="none" stroke="#3A50A3" stroke-miterlimit="10" width="89.3" height="89.3"/>
	
		<rect x="236" y="121.2" display="inline" opacity="0.4" fill="none" stroke="#3A50A3" stroke-miterlimit="10" width="89.3" height="89.3"/>
	
		<rect x="325.2" y="121.2" display="inline" opacity="0.4" fill="none" stroke="#3A50A3" stroke-miterlimit="10" width="89.3" height="89.3"/>
	
		<rect x="414.5" y="121.2" display="inline" opacity="0.4" fill="none" stroke="#3A50A3" stroke-miterlimit="10" width="89.3" height="89.3"/>
	
		<rect x="503.7" y="121.2" display="inline" opacity="0.4" fill="none" stroke="#3A50A3" stroke-miterlimit="10" width="89.3" height="89.3"/>
	
		<rect x="-299.6" y="210.5" display="inline" opacity="0.4" fill="none" stroke="#3A50A3" stroke-miterlimit="10" width="89.3" height="89.3"/>
	
		<rect x="-210.3" y="210.5" display="inline" opacity="0.4" fill="none" stroke="#3A50A3" stroke-miterlimit="10" width="89.3" height="89.3"/>
	
		<rect x="-121.1" y="210.5" display="inline" opacity="0.4" fill="none" stroke="#3A50A3" stroke-miterlimit="10" width="89.3" height="89.3"/>
	
		<rect x="-31.8" y="210.5" display="inline" opacity="0.4" fill="none" stroke="#3A50A3" stroke-miterlimit="10" width="89.3" height="89.3"/>
	
		<rect x="57.4" y="210.5" display="inline" opacity="0.4" fill="none" stroke="#3A50A3" stroke-miterlimit="10" width="89.3" height="89.3"/>
	
		<rect x="146.7" y="210.5" display="inline" opacity="0.4" fill="none" stroke="#3A50A3" stroke-miterlimit="10" width="89.3" height="89.3"/>
	
		<rect x="236" y="210.5" display="inline" opacity="0.4" fill="none" stroke="#3A50A3" stroke-miterlimit="10" width="89.3" height="89.3"/>
	
		<rect x="325.2" y="210.5" display="inline" opacity="0.4" fill="none" stroke="#3A50A3" stroke-miterlimit="10" width="89.3" height="89.3"/>
	
		<rect x="414.5" y="210.5" display="inline" opacity="0.4" fill="none" stroke="#3A50A3" stroke-miterlimit="10" width="89.3" height="89.3"/>
	
		<rect x="503.7" y="210.5" display="inline" opacity="0.4" fill="none" stroke="#3A50A3" stroke-miterlimit="10" width="89.3" height="89.3"/>
	
		<rect x="-299.6" y="299.7" display="inline" opacity="0.4" fill="none" stroke="#3A50A3" stroke-miterlimit="10" width="89.3" height="89.3"/>
	
		<rect x="-210.3" y="299.7" display="inline" opacity="0.4" fill="none" stroke="#3A50A3" stroke-miterlimit="10" width="89.3" height="89.3"/>
	
		<rect x="-121.1" y="299.7" display="inline" opacity="0.4" fill="none" stroke="#3A50A3" stroke-miterlimit="10" width="89.3" height="89.3"/>
	
		<rect x="-31.8" y="299.7" display="inline" opacity="0.4" fill="none" stroke="#3A50A3" stroke-miterlimit="10" width="89.3" height="89.3"/>
	
		<rect x="57.4" y="299.7" display="inline" opacity="0.4" fill="none" stroke="#3A50A3" stroke-miterlimit="10" width="89.3" height="89.3"/>
	
		<rect x="146.7" y="299.7" display="inline" opacity="0.4" fill="none" stroke="#3A50A3" stroke-miterlimit="10" width="89.3" height="89.3"/>
	
		<rect x="236" y="299.7" display="inline" opacity="0.4" fill="none" stroke="#3A50A3" stroke-miterlimit="10" width="89.3" height="89.3"/>
	
		<rect x="325.2" y="299.7" display="inline" opacity="0.4" fill="none" stroke="#3A50A3" stroke-miterlimit="10" width="89.3" height="89.3"/>
	
		<rect x="414.5" y="299.7" display="inline" opacity="0.4" fill="none" stroke="#3A50A3" stroke-miterlimit="10" width="89.3" height="89.3"/>
	
		<rect x="503.7" y="299.7" display="inline" opacity="0.4" fill="none" stroke="#3A50A3" stroke-miterlimit="10" width="89.3" height="89.3"/>
	
		<rect x="-299.6" y="389" display="inline" opacity="0.4" fill="none" stroke="#3A50A3" stroke-miterlimit="10" width="89.3" height="89.3"/>
	
		<rect x="-210.3" y="389" display="inline" opacity="0.4" fill="none" stroke="#3A50A3" stroke-miterlimit="10" width="89.3" height="89.3"/>
	
		<rect x="-121.1" y="389" display="inline" opacity="0.4" fill="none" stroke="#3A50A3" stroke-miterlimit="10" width="89.3" height="89.3"/>
	
		<rect x="-31.8" y="389" display="inline" opacity="0.4" fill="none" stroke="#3A50A3" stroke-miterlimit="10" width="89.3" height="89.3"/>
	
		<rect x="57.4" y="389" display="inline" opacity="0.4" fill="none" stroke="#3A50A3" stroke-miterlimit="10" width="89.3" height="89.3"/>
	
		<rect x="146.7" y="389" display="inline" opacity="0.4" fill="none" stroke="#3A50A3" stroke-miterlimit="10" width="89.3" height="89.3"/>
	
		<rect x="236" y="389" display="inline" opacity="0.4" fill="none" stroke="#3A50A3" stroke-miterlimit="10" width="89.3" height="89.3"/>
	
		<rect x="325.2" y="389" display="inline" opacity="0.4" fill="none" stroke="#3A50A3" stroke-miterlimit="10" width="89.3" height="89.3"/>
	
		<rect x="414.5" y="389" display="inline" opacity="0.4" fill="none" stroke="#3A50A3" stroke-miterlimit="10" width="89.3" height="89.3"/>
	
		<rect x="503.7" y="389" display="inline" opacity="0.4" fill="none" stroke="#3A50A3" stroke-miterlimit="10" width="89.3" height="89.3"/>
	
		<rect x="-299.6" y="478.2" display="inline" opacity="0.4" fill="none" stroke="#3A50A3" stroke-miterlimit="10" width="89.3" height="89.3"/>
	
		<rect x="-210.3" y="478.2" display="inline" opacity="0.4" fill="none" stroke="#3A50A3" stroke-miterlimit="10" width="89.3" height="89.3"/>
	
		<rect x="-121.1" y="478.2" display="inline" opacity="0.4" fill="none" stroke="#3A50A3" stroke-miterlimit="10" width="89.3" height="89.3"/>
	
		<rect x="-31.8" y="478.2" display="inline" opacity="0.4" fill="none" stroke="#3A50A3" stroke-miterlimit="10" width="89.3" height="89.3"/>
	
		<rect x="57.4" y="478.2" display="inline" opacity="0.4" fill="none" stroke="#3A50A3" stroke-miterlimit="10" width="89.3" height="89.3"/>
	
		<rect x="146.7" y="478.2" display="inline" opacity="0.4" fill="none" stroke="#3A50A3" stroke-miterlimit="10" width="89.3" height="89.3"/>
	
		<rect x="236" y="478.2" display="inline" opacity="0.4" fill="none" stroke="#3A50A3" stroke-miterlimit="10" width="89.3" height="89.3"/>
	
		<rect x="325.2" y="478.2" display="inline" opacity="0.4" fill="none" stroke="#3A50A3" stroke-miterlimit="10" width="89.3" height="89.3"/>
	
		<rect x="414.5" y="478.2" display="inline" opacity="0.4" fill="none" stroke="#3A50A3" stroke-miterlimit="10" width="89.3" height="89.3"/>
	
		<rect x="503.7" y="478.2" display="inline" opacity="0.4" fill="none" stroke="#3A50A3" stroke-miterlimit="10" width="89.3" height="89.3"/>
	
		<rect x="-299.6" y="567.5" display="inline" opacity="0.4" fill="none" stroke="#3A50A3" stroke-miterlimit="10" width="89.3" height="89.3"/>
	
		<rect x="-210.3" y="567.5" display="inline" opacity="0.4" fill="none" stroke="#3A50A3" stroke-miterlimit="10" width="89.3" height="89.3"/>
	
		<rect x="-121.1" y="567.5" display="inline" opacity="0.4" fill="none" stroke="#3A50A3" stroke-miterlimit="10" width="89.3" height="89.3"/>
	
		<rect x="-31.8" y="567.5" display="inline" opacity="0.4" fill="none" stroke="#3A50A3" stroke-miterlimit="10" width="89.3" height="89.3"/>
	
		<rect x="57.4" y="567.5" display="inline" opacity="0.4" fill="none" stroke="#3A50A3" stroke-miterlimit="10" width="89.3" height="89.3"/>
	
		<rect x="146.7" y="567.5" display="inline" opacity="0.4" fill="none" stroke="#3A50A3" stroke-miterlimit="10" width="89.3" height="89.3"/>
	
		<rect x="236" y="567.5" display="inline" opacity="0.4" fill="none" stroke="#3A50A3" stroke-miterlimit="10" width="89.3" height="89.3"/>
	
		<rect x="325.2" y="567.5" display="inline" opacity="0.4" fill="none" stroke="#3A50A3" stroke-miterlimit="10" width="89.3" height="89.3"/>
	
		<rect x="414.5" y="567.5" display="inline" opacity="0.4" fill="none" stroke="#3A50A3" stroke-miterlimit="10" width="89.3" height="89.3"/>
	
		<rect x="503.7" y="567.5" display="inline" opacity="0.4" fill="none" stroke="#3A50A3" stroke-miterlimit="10" width="89.3" height="89.3"/>
	
		<rect x="-299.6" y="656.8" display="inline" opacity="0.4" fill="none" stroke="#3A50A3" stroke-miterlimit="10" width="89.3" height="89.3"/>
	
		<rect x="-210.3" y="656.8" display="inline" opacity="0.4" fill="none" stroke="#3A50A3" stroke-miterlimit="10" width="89.3" height="89.3"/>
	
		<rect x="-121.1" y="656.8" display="inline" opacity="0.4" fill="none" stroke="#3A50A3" stroke-miterlimit="10" width="89.3" height="89.3"/>
	
		<rect x="-31.8" y="656.8" display="inline" opacity="0.4" fill="none" stroke="#3A50A3" stroke-miterlimit="10" width="89.3" height="89.3"/>
	
		<rect x="57.4" y="656.8" display="inline" opacity="0.4" fill="none" stroke="#3A50A3" stroke-miterlimit="10" width="89.3" height="89.3"/>
	
		<rect x="146.7" y="656.8" display="inline" opacity="0.4" fill="none" stroke="#3A50A3" stroke-miterlimit="10" width="89.3" height="89.3"/>
	
		<rect x="236" y="656.8" display="inline" opacity="0.4" fill="none" stroke="#3A50A3" stroke-miterlimit="10" width="89.3" height="89.3"/>
	
		<rect x="325.2" y="656.8" display="inline" opacity="0.4" fill="none" stroke="#3A50A3" stroke-miterlimit="10" width="89.3" height="89.3"/>
	
		<rect x="414.5" y="656.8" display="inline" opacity="0.4" fill="none" stroke="#3A50A3" stroke-miterlimit="10" width="89.3" height="89.3"/>
	
		<rect x="503.7" y="656.8" display="inline" opacity="0.4" fill="none" stroke="#3A50A3" stroke-miterlimit="10" width="89.3" height="89.3"/>
	
		<rect x="-299.6" y="746" display="inline" opacity="0.4" fill="none" stroke="#3A50A3" stroke-miterlimit="10" width="89.3" height="89.3"/>
	
		<rect x="-210.3" y="746" display="inline" opacity="0.4" fill="none" stroke="#3A50A3" stroke-miterlimit="10" width="89.3" height="89.3"/>
	
		<rect x="-121.1" y="746" display="inline" opacity="0.4" fill="none" stroke="#3A50A3" stroke-miterlimit="10" width="89.3" height="89.3"/>
	
		<rect x="-31.8" y="746" display="inline" opacity="0.4" fill="none" stroke="#3A50A3" stroke-miterlimit="10" width="89.3" height="89.3"/>
	
		<rect x="57.4" y="746" display="inline" opacity="0.4" fill="none" stroke="#3A50A3" stroke-miterlimit="10" width="89.3" height="89.3"/>
	
		<rect x="146.7" y="746" display="inline" opacity="0.4" fill="none" stroke="#3A50A3" stroke-miterlimit="10" width="89.3" height="89.3"/>
	
		<rect x="236" y="746" display="inline" opacity="0.4" fill="none" stroke="#3A50A3" stroke-miterlimit="10" width="89.3" height="89.3"/>
	
		<rect x="325.2" y="746" display="inline" opacity="0.4" fill="none" stroke="#3A50A3" stroke-miterlimit="10" width="89.3" height="89.3"/>
	
		<rect x="414.5" y="746" display="inline" opacity="0.4" fill="none" stroke="#3A50A3" stroke-miterlimit="10" width="89.3" height="89.3"/>
	
		<rect x="503.7" y="746" display="inline" opacity="0.4" fill="none" stroke="#3A50A3" stroke-miterlimit="10" width="89.3" height="89.3"/>
	
		<rect x="-299.6" y="835.3" display="inline" opacity="0.4" fill="none" stroke="#3A50A3" stroke-miterlimit="10" width="89.3" height="89.3"/>
	
		<rect x="-210.3" y="835.3" display="inline" opacity="0.4" fill="none" stroke="#3A50A3" stroke-miterlimit="10" width="89.3" height="89.3"/>
	
		<rect x="-121.1" y="835.3" display="inline" opacity="0.4" fill="none" stroke="#3A50A3" stroke-miterlimit="10" width="89.3" height="89.3"/>
	
		<rect x="-31.8" y="835.3" display="inline" opacity="0.4" fill="none" stroke="#3A50A3" stroke-miterlimit="10" width="89.3" height="89.3"/>
	
		<rect x="57.4" y="835.3" display="inline" opacity="0.4" fill="none" stroke="#3A50A3" stroke-miterlimit="10" width="89.3" height="89.3"/>
	
		<rect x="146.7" y="835.3" display="inline" opacity="0.4" fill="none" stroke="#3A50A3" stroke-miterlimit="10" width="89.3" height="89.3"/>
	
		<rect x="236" y="835.3" display="inline" opacity="0.4" fill="none" stroke="#3A50A3" stroke-miterlimit="10" width="89.3" height="89.3"/>
	
		<rect x="325.2" y="835.3" display="inline" opacity="0.4" fill="none" stroke="#3A50A3" stroke-miterlimit="10" width="89.3" height="89.3"/>
	
		<rect x="414.5" y="835.3" display="inline" opacity="0.4" fill="none" stroke="#3A50A3" stroke-miterlimit="10" width="89.3" height="89.3"/>
	
		<rect x="503.7" y="835.3" display="inline" opacity="0.4" fill="none" stroke="#3A50A3" stroke-miterlimit="10" width="89.3" height="89.3"/>
</g>
<g id="graph">
	<g id="asymptots">
		<g>
			<rect x="591.8" y="75" fill="#DEDDDD" width="2" height="10"/>
			<path fill="#DEDDDD" d="M593.8,894.8h-2v-20.2h2V894.8z M593.8,854.3h-2V834h2V854.3z M593.8,813.8h-2v-20.2h2V813.8z
				 M593.8,773.3h-2V753h2V773.3z M593.8,732.8h-2v-20.2h2V732.8z M593.8,692.3h-2v-20.2h2V692.3z M593.8,651.8h-2v-20.2h2V651.8z
				 M593.8,611.3h-2v-20.2h2V611.3z M593.8,570.9h-2v-20.2h2V570.9z M593.8,530.4h-2v-20.2h2V530.4z M593.8,489.9h-2v-20.2h2V489.9z
				 M593.8,449.4h-2v-20.2h2V449.4z M593.8,408.9h-2v-20.2h2V408.9z M593.8,368.4h-2v-20.2h2V368.4z M593.8,327.9h-2v-20.2h2V327.9z
				 M593.8,287.4h-2v-20.2h2V287.4z M593.8,247h-2v-20.2h2V247z M593.8,206.5h-2v-20.2h2V206.5z M593.8,166h-2v-20.2h2V166z
				 M593.8,125.5h-2v-20.2h2V125.5z"/>
			<rect x="591.8" y="915" fill="#DEDDDD" width="2" height="10"/>
		</g>
		<g>
			<rect x="405.8" y="74.2" fill="#DEDDDD" width="2" height="10"/>
			<path fill="#DEDDDD" d="M407.8,470.7h-2v-19.3h2V470.7z M407.8,432h-2v-19.3h2V432z M407.8,393.4h-2V374h2V393.4z M407.8,354.7
				h-2v-19.3h2V354.7z M407.8,316.1h-2v-19.3h2V316.1z M407.8,277.4h-2v-19.3h2V277.4z M407.8,238.8h-2v-19.3h2V238.8z M407.8,200.1
				h-2v-19.3h2V200.1z M407.8,161.5h-2v-19.3h2V161.5z M407.8,122.8h-2v-19.3h2V122.8z"/>
			<rect x="405.8" y="490" fill="#DEDDDD" width="2" height="10"/>
		</g>
		<rect x="236" y="388" display="none" fill="#414EA1" width="194.3" height="388.3"/>
		<rect x="142.7" y="202.8" display="none" fill="#EE1E51" width="93.2" height="186.2"/>
		<path fill="#DEDDDD" d="M689.8,880.4l-9-17.9l1.8-0.9l9,17.9L689.8,880.4z M671.9,844.7l-9-17.9l1.8-0.9l9,17.9L671.9,844.7z
			 M654,808.9l-9-17.9l1.8-0.9l9,17.9L654,808.9z M636.1,773.1l-9-17.9l1.8-0.9l9,17.9L636.1,773.1z M618.2,737.4l-9-17.9l1.8-0.9
			l9,17.9L618.2,737.4z M600.2,701.6l-9-17.9l1.8-0.9l9,17.9L600.2,701.6z M582.3,665.8l-9-17.9l1.8-0.9l9,17.9L582.3,665.8z
			 M564.4,630.1l-9-17.9l1.8-0.9l9,17.9L564.4,630.1z M546.5,594.3l-9-17.9l1.8-0.9l9,17.9L546.5,594.3z M528.6,558.5l-9-17.9
			l1.8-0.9l9,17.9L528.6,558.5z M510.7,522.8l-9-17.9l1.8-0.9l9,17.9L510.7,522.8z M492.8,487l-9-17.9l1.8-0.9l9,17.9L492.8,487z
			 M474.9,451.2l-9-17.9l1.8-0.9l9,17.9L474.9,451.2z M457,415.5l-9-17.9l1.8-0.9l9,17.9L457,415.5z M439.1,379.7l-9-17.9l1.8-0.9
			l9,17.9L439.1,379.7z M421.2,343.9l-9-17.9l1.8-0.9l9,17.9L421.2,343.9z M403.3,308.2l-9-17.9l1.8-0.9l9,17.9L403.3,308.2z
			 M385.3,272.4l-9-17.9l1.8-0.9l9,17.9L385.3,272.4z M367.4,236.6l-9-17.9l1.8-0.9l9,17.9L367.4,236.6z M349.5,200.9l-9-17.9
			l1.8-0.9l9,17.9L349.5,200.9z M331.6,165.1l-9-17.9l1.8-0.9l9,17.9L331.6,165.1z M313.7,129.3l-9-17.9l1.8-0.9l9,17.9L313.7,129.3
			z"/>
		<path fill="#DEDDDD" d="M937.8,753.3l-14.1-14.1l1.4-1.4l14.1,14.1L937.8,753.3z M909.5,725l-14.1-14.1l1.4-1.4l14.1,14.1
			L909.5,725z M881.2,696.7L867,682.5l1.4-1.4l14.1,14.1L881.2,696.7z M852.9,668.4l-14.1-14.1l1.4-1.4l14.1,14.1L852.9,668.4z
			 M824.6,640.1L810.5,626l1.4-1.4l14.1,14.1L824.6,640.1z M796.3,611.8l-14.1-14.1l1.4-1.4l14.1,14.1L796.3,611.8z M768,583.6
			l-14.1-14.1l1.4-1.4l14.1,14.1L768,583.6z M739.8,555.3l-14.1-14.1l1.4-1.4l14.1,14.1L739.8,555.3z M711.5,527l-14.1-14.1l1.4-1.4
			l14.1,14.1L711.5,527z M683.2,498.7l-14.1-14.1l1.4-1.4l14.1,14.1L683.2,498.7z M654.9,470.4l-14.1-14.1l1.4-1.4l14.1,14.1
			L654.9,470.4z M626.6,442.1L612.5,428l1.4-1.4l14.1,14.1L626.6,442.1z M598.3,413.8l-14.1-14.1l1.4-1.4l14.1,14.1L598.3,413.8z
			 M570.1,385.6l-14.1-14.1l1.4-1.4l14.1,14.1L570.1,385.6z M541.8,357.3l-14.1-14.1l1.4-1.4l14.1,14.1L541.8,357.3z M513.5,329
			l-14.1-14.1l1.4-1.4l14.1,14.1L513.5,329z M485.2,300.7l-14.1-14.1l1.4-1.4l14.1,14.1L485.2,300.7z"/>
		<path fill="#DEDDDD" d="M868.8,869.3l-8.9-17.9l1.8-0.9l8.9,17.9L868.8,869.3z M850.9,833.5l-8.9-17.9l1.8-0.9l8.9,17.9
			L850.9,833.5z M833,797.7l-8.9-17.9l1.8-0.9l8.9,17.9L833,797.7z M815.2,761.9l-8.9-17.9l1.8-0.9L817,761L815.2,761.9z
			 M797.3,726.1l-8.9-17.9l1.8-0.9l8.9,17.9L797.3,726.1z M779.5,690.3l-8.9-17.9l1.8-0.9l8.9,17.9L779.5,690.3z M761.6,654.5
			l-8.9-17.9l1.8-0.9l8.9,17.9L761.6,654.5z M743.7,618.7l-8.9-17.9l1.8-0.9l8.9,17.9L743.7,618.7z M725.9,583l-8.9-17.9l1.8-0.9
			l8.9,17.9L725.9,583z M708,547.2l-8.9-17.9l1.8-0.9l8.9,17.9L708,547.2z M690.1,511.4l-8.9-17.9l1.8-0.9l8.9,17.9L690.1,511.4z
			 M672.3,475.6l-8.9-17.9l1.8-0.9l8.9,17.9L672.3,475.6z M654.4,439.8l-8.9-17.9l1.8-0.9l8.9,17.9L654.4,439.8z M636.6,404
			l-8.9-17.9l1.8-0.9l8.9,17.9L636.6,404z M618.7,368.2l-8.9-17.9l1.8-0.9l8.9,17.9L618.7,368.2z M600.8,332.4l-8.9-17.9l1.8-0.9
			l8.9,17.9L600.8,332.4z"/>
		<g>
			<rect x="0" y="312.8" fill="#DEDDDD" width="10" height="2"/>
			<path fill="#DEDDDD" d="M547.8,314.8h-20.7v-2h20.7V314.8z M506.4,314.8h-20.7v-2h20.7V314.8z M465.1,314.8h-20.7v-2h20.7V314.8z
				 M423.7,314.8H403v-2h20.7V314.8z M382.3,314.8h-20.7v-2h20.7V314.8z M341,314.8h-20.7v-2H341V314.8z M299.6,314.8h-20.7v-2h20.7
				V314.8z M258.2,314.8h-20.7v-2h20.7V314.8z M216.9,314.8h-20.7v-2h20.7V314.8z M175.5,314.8h-20.7v-2h20.7V314.8z M134.1,314.8
				h-20.7v-2h20.7V314.8z M92.7,314.8H72.1v-2h20.7V314.8z M51.4,314.8H30.7v-2h20.7V314.8z"/>
			<rect x="568.5" y="312.8" fill="#DEDDDD" width="10" height="2"/>
		</g>
	</g>
	<g id="points">
		<path fill="#488ECC" d="M592.8,322.7c-4.4,0-7.9-3.6-7.9-7.9s3.6-7.9,7.9-7.9s7.9,3.6,7.9,7.9S597.2,322.7,592.8,322.7z
			 M592.8,308.8c-3.3,0-5.9,2.7-5.9,5.9s2.7,5.9,5.9,5.9c3.3,0,5.9-2.7,5.9-5.9S596.1,308.8,592.8,308.8z"/>
	</g>
</g>
<g id="axis">
	<rect x="0" y="499" fill="#8E8E8E" width="1000" height="2"/>
	<rect x="499" y="0" fill="#8E8E8E" width="2" height="1000"/>
	<g id="horizontal_marks_1_">
		<rect x="591.8" y="493.1" fill="#8E8E8E" width="2" height="13.8"/>
		<rect x="685" y="493.1" fill="#8E8E8E" width="2" height="13.8"/>
		<rect x="777.8" y="493.1" fill="#8E8E8E" width="2" height="13.8"/>
		<rect x="871" y="493.1" fill="#8E8E8E" width="2" height="13.8"/>
		<rect x="963.8" y="493.1" fill="#8E8E8E" width="2" height="13.8"/>
		<rect x="126.6" y="493.1" fill="#8E8E8E" width="2" height="13.8"/>
		<rect x="219.8" y="493.1" fill="#8E8E8E" width="2" height="13.8"/>
		<rect x="312.6" y="493.1" fill="#8E8E8E" width="2" height="13.8"/>
		<rect x="405.8" y="493.1" fill="#8E8E8E" width="2" height="13.8"/>
		<rect x="33.8" y="493.1" fill="#8E8E8E" width="2" height="13.8"/>
	</g>
	<g id="vertical_marks_1_">
		<rect x="493.1" y="406" fill="#8E8E8E" width="13.8" height="2"/>
		<rect x="493.1" y="312.8" fill="#8E8E8E" width="13.8" height="2"/>
		<rect x="493.1" y="220" fill="#8E8E8E" width="13.8" height="2"/>
		<rect x="493.1" y="126.8" fill="#8E8E8E" width="13.8" height="2"/>
		<rect x="493.1" y="34" fill="#8E8E8E" width="13.8" height="2"/>
		<rect x="493.1" y="871.2" fill="#8E8E8E" width="13.8" height="2"/>
		<rect x="493.1" y="778" fill="#8E8E8E" width="13.8" height="2"/>
		<rect x="493.1" y="685.2" fill="#8E8E8E" width="13.8" height="2"/>
		<rect x="493.1" y="592" fill="#8E8E8E" width="13.8" height="2"/>
		<rect x="493.1" y="964" fill="#8E8E8E" width="13.8" height="2"/>
	</g>
	<g id="horizontal_labels">
		<g>
			<path fill="#383838" d="M593.9,514v8.6h1.7v1.1h-4.9v-1.1h2v-7l-1.9,1.4l-0.7-0.9l2.9-2.1H593.9z"/>
		</g>
		<g>
			<path fill="#383838" d="M683,523.8c0-0.2,0-0.3,0-0.5c0-3.6,4.4-4.9,4.4-6.9c0-0.8-0.6-1.4-1.5-1.4c-0.8,0-1.4,0.3-2,0.9
				l-0.7-0.9c0.7-0.7,1.6-1.1,2.8-1.1c1.6,0,2.7,1,2.7,2.4c0,2.7-4,3.9-4.3,6.4h4.3v1.1H683z"/>
		</g>
		<g>
			<path fill="#383838" d="M775.5,523.1l0.6-1c0.5,0.4,1.2,0.7,2.2,0.7c1.2,0,2-0.7,2-1.7c0-1-0.8-1.9-2.6-1.9h-0.8v-1h0.7
				c1.6,0,2.4-0.9,2.4-1.8c0-0.9-0.8-1.5-1.7-1.5c-0.9,0-1.6,0.3-2,0.7l-0.5-1c0.6-0.4,1.4-0.8,2.6-0.8c1.8,0,2.9,1.1,2.9,2.4
				c0,1.1-0.6,1.8-1.6,2.3c1.2,0.4,1.9,1.3,1.9,2.5c0,1.5-1.1,2.9-3.3,2.9C777,523.9,776.1,523.6,775.5,523.1z"/>
		</g>
		<g>
			<path fill="#383838" d="M874.1,521.7v2.1h-1.3v-2.1h-4.2v-1l2.9-6.8l1.1,0.5l-2.6,6.2h2.8v-2.8h1.3v2.8h1.2v1.1H874.1z"/>
		</g>
		<g>
			<path fill="#383838" d="M964.4,523.9c-1.1,0-1.9-0.3-2.6-0.7l0.7-1.1c0.5,0.4,1.1,0.7,1.9,0.7c1.2,0,2.1-0.8,2.1-1.9
				c0-1.2-0.8-2-2.3-2h-1.7V514h4.8v1.1h-3.6v2.6h0.7c2.2,0,3.5,1.2,3.5,3C967.8,522.6,966.4,523.9,964.4,523.9z"/>
		</g>
		<g>
			<path fill="#383838" d="M28.2,521.1v-1.1H33v1.1H28.2z"/>
			<path fill="#383838" d="M38.6,525.5c-1.1,0-1.9-0.3-2.6-0.7l0.7-1.1c0.5,0.4,1.1,0.7,1.9,0.7c1.2,0,2.1-0.8,2.1-1.9
				c0-1.2-0.8-2-2.3-2h-1.7v-4.9h4.8v1.1h-3.6v2.7h0.7c2.2,0,3.5,1.2,3.5,3C42,524.1,40.6,525.5,38.6,525.5z"/>
		</g>
		<g>
			<path fill="#383838" d="M121.4,521.1V520h4.7v1.1H121.4z"/>
			<path fill="#383838" d="M134.3,523.2v2.1h-1.3v-2.1h-4.2v-1l2.9-6.8l1.1,0.5l-2.6,6.2h2.8v-2.8h1.3v2.8h1.2v1.1H134.3z"/>
		</g>
		<g>
			<path fill="#383838" d="M214.2,521.1V520h4.7v1.1H214.2z"/>
			<path fill="#383838" d="M221.7,524.6l0.6-1c0.5,0.4,1.2,0.7,2.2,0.7c1.2,0,2-0.7,2-1.7c0-1-0.8-1.9-2.6-1.9H223v-1h0.7
				c1.6,0,2.4-0.9,2.4-1.8c0-0.9-0.8-1.5-1.7-1.5c-0.9,0-1.6,0.3-2,0.7l-0.5-1c0.6-0.4,1.4-0.8,2.6-0.8c1.8,0,2.9,1.1,2.9,2.4
				c0,1.1-0.6,1.8-1.6,2.3c1.2,0.4,1.9,1.3,1.9,2.5c0,1.5-1.1,2.9-3.3,2.9C223.2,525.5,222.3,525.1,221.7,524.6z"/>
		</g>
		<g>
			<path fill="#383838" d="M307.4,521.1V520h4.7v1.1H307.4z"/>
			<path fill="#383838" d="M315.2,525.3c0-0.2,0-0.3,0-0.5c0-3.6,4.4-4.9,4.4-6.9c0-0.8-0.6-1.4-1.5-1.4c-0.8,0-1.4,0.3-2,0.9
				l-0.7-0.9c0.7-0.7,1.6-1.1,2.8-1.1c1.6,0,2.7,1,2.7,2.4c0,2.7-4,3.9-4.3,6.4h4.3v1.1H315.2z"/>
		</g>
		<g>
			<path fill="#383838" d="M400.2,521.1v-1.1h4.7v1.1H400.2z"/>
			<path fill="#383838" d="M412,515.5v8.6h1.7v1.1h-4.9v-1.1h2v-7l-1.9,1.4l-0.7-0.9l2.9-2.1H412z"/>
		</g>
	</g>
	<g id="vertical_lables">
		<g>
			<path fill="#383838" d="M484.5,400.9v8.6h1.7v1.1h-4.9v-1.1h2v-7l-1.9,1.4l-0.7-0.9l2.9-2.1H484.5z"/>
		</g>
		<g>
			<path fill="#383838" d="M480.5,317.7c0-0.2,0-0.3,0-0.5c0-3.6,4.4-4.9,4.4-6.9c0-0.8-0.6-1.4-1.5-1.4c-0.8,0-1.4,0.3-2,0.9
				l-0.7-0.9c0.7-0.7,1.6-1.1,2.8-1.1c1.6,0,2.7,1,2.7,2.4c0,2.7-4,3.9-4.3,6.4h4.3v1.1H480.5z"/>
		</g>
		<g>
			<path fill="#383838" d="M480.1,224.3l0.6-1c0.5,0.4,1.2,0.7,2.2,0.7c1.2,0,2-0.7,2-1.7c0-1-0.8-1.9-2.6-1.9h-0.8v-1h0.7
				c1.6,0,2.4-0.9,2.4-1.8c0-0.9-0.8-1.5-1.7-1.5c-0.9,0-1.6,0.3-2,0.7l-0.5-1c0.6-0.4,1.4-0.8,2.6-0.8c1.8,0,2.9,1.1,2.9,2.4
				c0,1.1-0.6,1.8-1.6,2.3c1.2,0.4,1.9,1.3,1.9,2.5c0,1.5-1.1,2.9-3.3,2.9C481.7,225.2,480.8,224.8,480.1,224.3z"/>
		</g>
		<g>
			<path fill="#383838" d="M485.6,129.9v2.1h-1.3v-2.1h-4.2v-1l2.9-6.8l1.1,0.5l-2.6,6.2h2.8V126h1.3v2.8h1.2v1.1H485.6z"/>
		</g>
		<g>
			<path fill="#383838" d="M483,39.1c-1.1,0-1.9-0.3-2.6-0.7l0.7-1.1c0.5,0.4,1.1,0.7,1.9,0.7c1.2,0,2.1-0.8,2.1-1.9
				c0-1.2-0.8-2-2.3-2h-1.7v-4.9h4.8v1.1h-3.6V33h0.7c2.2,0,3.5,1.2,3.5,3C486.4,37.8,485.1,39.1,483,39.1z"/>
		</g>
		<g>
			<path fill="#383838" d="M472.7,965.1V964h4.7v1.1H472.7z"/>
			<path fill="#383838" d="M483,969.5c-1.1,0-1.9-0.3-2.6-0.7l0.7-1.1c0.5,0.4,1.1,0.7,1.9,0.7c1.2,0,2.1-0.8,2.1-1.9
				c0-1.2-0.8-2-2.3-2h-1.7v-4.9h4.8v1.1h-3.6v2.6h0.7c2.2,0,3.5,1.2,3.5,3C486.4,968.2,485.1,969.5,483,969.5z"/>
		</g>
		<g>
			<path fill="#383838" d="M472.7,872.1V871h4.7v1.1H472.7z"/>
			<path fill="#383838" d="M485.6,874.3v2.1h-1.3v-2.1h-4.2v-1l2.9-6.8l1.1,0.5l-2.6,6.2h2.8v-2.8h1.3v2.8h1.2v1.1H485.6z"/>
		</g>
		<g>
			<path fill="#383838" d="M472.7,779.5v-1.1h4.7v1.1H472.7z"/>
			<path fill="#383838" d="M480.1,783l0.6-1c0.5,0.4,1.2,0.7,2.2,0.7c1.2,0,2-0.7,2-1.7c0-1-0.8-1.9-2.6-1.9h-0.8v-1h0.7
				c1.6,0,2.4-0.9,2.4-1.8c0-0.9-0.8-1.5-1.7-1.5c-0.9,0-1.6,0.3-2,0.7l-0.5-1c0.6-0.4,1.4-0.8,2.6-0.8c1.8,0,2.9,1.1,2.9,2.4
				c0,1.1-0.6,1.8-1.6,2.3c1.2,0.4,1.9,1.3,1.9,2.5c0,1.5-1.1,2.9-3.3,2.9C481.7,783.8,480.8,783.5,480.1,783z"/>
		</g>
		<g>
			<path fill="#383838" d="M472.7,686.5v-1.1h4.7v1.1H472.7z"/>
			<path fill="#383838" d="M480.5,690.7c0-0.2,0-0.3,0-0.5c0-3.6,4.4-4.9,4.4-6.9c0-0.8-0.6-1.4-1.5-1.4c-0.8,0-1.4,0.3-2,0.8
				l-0.7-0.8c0.7-0.7,1.6-1.1,2.8-1.1c1.6,0,2.7,1,2.7,2.4c0,2.7-4,3.9-4.3,6.4h4.3v1.1H480.5z"/>
		</g>
		<g>
			<path fill="#383838" d="M472.7,593.4v-1.1h4.7v1.1H472.7z"/>
			<path fill="#383838" d="M484.5,587.9v8.6h1.7v1.1h-4.9v-1.1h2v-7l-1.9,1.4l-0.7-0.9l2.9-2.1H484.5z"/>
		</g>
	</g>
</g>
<g id="line">
	<path fill="#488ECC" d="M912.1,724c-2-2-203.7-204.6-219.5-225.7c-19.3-25.7-96.6-175.6-97.3-177.1l1.8-0.9
		c0.8,1.5,78,151.2,97.2,176.8c15.7,21,217.3,223.4,219.3,225.5L912.1,724z"/>
	<path fill="#488ECC" d="M552.7,576.2c-14.8,0-34.6-37.3-50.2-69.8c-1.6-3.4-2.8-5.8-3.3-6.8c-0.3-0.5-0.7-1.2-1.1-2.1
		c-5.4-10-22-40.4-47.3-40.4c-36,0-42.9,42.5-42.9,42.9l-2-0.2c0-60.1-10.9-106.9-29-125C323.7,321.9,3.2,322.8,0,322.8l0-2
		c0.8,0,81.9-0.3,168.6,6c116.5,8.5,187,24.2,209.6,46.7c17.7,17.7,28.6,61.7,29.6,118.6c4-12.8,15.2-36.9,43-36.9
		c26.5,0,43.5,31.2,49,41.4c0.4,0.8,0.8,1.5,1.1,2c0.6,1,1.8,3.5,3.4,6.9c9,18.8,32.9,68.6,48.4,68.6c1.6,0,3.1-0.8,4.7-2.3
		c38.4-39,30.8-509.6,30.7-514.4l2,0c0,1.2,2,120.3-0.8,242.7c-3.8,164.6-14.1,256.5-30.5,273.2
		C556.9,575.2,554.8,576.2,552.7,576.2z"/>
</g>
</svg>
