<?xml version="1.0" encoding="utf-8"?>
<!-- Generator: Adobe Illustrator 18.0.0, SVG Export Plug-In . SVG Version: 6.00 Build 0)  -->
<!DOCTYPE svg PUBLIC "-//W3C//DTD SVG 1.0//EN" "http://www.w3.org/TR/2001/REC-SVG-20010904/DTD/svg10.dtd">
<svg version="1.0" id="Vrstva_1" xmlns="http://www.w3.org/2000/svg" xmlns:xlink="http://www.w3.org/1999/xlink" x="0px" y="0px"
	 viewBox="0 0 260 65.3" enable-background="new 0 0 260 65.3" xml:space="preserve">
<rect x="2" y="39.2" fill="#8E8E8E" width="256" height="2"/>
<rect x="208.8" y="35.9" fill="#8E8E8E" width="2" height="8.5"/>
<rect x="37.7" y="35.9" fill="#8E8E8E" width="2" height="8.5"/>
<g>
	<path fill="#383838" d="M207.9,51.8l2.2-1.1h0.2v7.7c0,0.5,0,0.8,0.1,1c0,0.1,0.1,0.2,0.3,0.3c0.1,0.1,0.4,0.1,0.8,0.1V60h-3.4
		v-0.2c0.4,0,0.7,0,0.8-0.1c0.1-0.1,0.2-0.2,0.3-0.3c0-0.1,0.1-0.4,0.1-1v-4.9c0-0.7,0-1.1-0.1-1.3c0-0.1-0.1-0.2-0.2-0.3
		c-0.1-0.1-0.2-0.1-0.3-0.1c-0.2,0-0.4,0.1-0.7,0.2L207.9,51.8z"/>
</g>
<g>
	<path fill="#383838" d="M250.5,48.2h3.2v0.3c-0.2,0-0.3,0-0.4,0.1c-0.1,0.1-0.1,0.2-0.1,0.3c0,0.1,0.1,0.3,0.3,0.6
		c0.1,0.1,0.1,0.2,0.2,0.4l0.5,0.8l0.6-0.8c0.4-0.5,0.5-0.8,0.5-0.9c0-0.1,0-0.2-0.1-0.3s-0.2-0.1-0.4-0.1v-0.3h2.3v0.3
		c-0.2,0-0.5,0.1-0.6,0.2c-0.2,0.2-0.6,0.5-1,1.1l-0.9,1.2l1.7,2.5c0.4,0.6,0.7,1,0.9,1.1c0.2,0.1,0.4,0.2,0.7,0.2v0.3h-3.2v-0.3
		c0.2,0,0.4,0,0.5-0.1c0.1-0.1,0.1-0.2,0.1-0.3c0-0.1-0.2-0.4-0.5-0.9l-1-1.5l-1.1,1.5c-0.3,0.5-0.5,0.7-0.5,0.8
		c0,0.1,0.1,0.2,0.2,0.3c0.1,0.1,0.3,0.2,0.5,0.2v0.3h-2.2v-0.3c0.2,0,0.3-0.1,0.5-0.2c0.2-0.1,0.5-0.5,1-1.1l1.4-1.9l-1.3-1.9
		c-0.4-0.5-0.7-0.9-0.9-1c-0.2-0.1-0.5-0.2-0.8-0.2V48.2z"/>
</g>
<polygon fill="#8E8E8E" points="8.8,45.4 0,40.2 8.8,35.1 9.8,36.8 4,40.2 9.8,43.6 "/>
<polygon fill="#8E8E8E" points="251.1,45.3 250.1,43.6 256,40.2 250.1,36.7 251.1,35 260,40.2 "/>
<g>
	<g>
		<path fill="#383838" d="M42,64l-0.5,1.3h-3.9v-0.2c1.1-1,2-1.9,2.4-2.6c0.5-0.7,0.7-1.3,0.7-1.8c0-0.4-0.1-0.8-0.4-1
			c-0.3-0.3-0.6-0.4-0.9-0.4c-0.3,0-0.6,0.1-0.9,0.3c-0.3,0.2-0.4,0.5-0.6,0.8h-0.2c0.1-0.6,0.3-1.1,0.6-1.4
			c0.3-0.3,0.8-0.5,1.3-0.5c0.5,0,1,0.2,1.3,0.5c0.4,0.3,0.5,0.7,0.5,1.2c0,0.3-0.1,0.7-0.2,1c-0.2,0.5-0.6,1.1-1.2,1.7
			c-0.8,0.9-1.3,1.4-1.5,1.6h1.7c0.4,0,0.6,0,0.7,0c0.1,0,0.3-0.1,0.4-0.2c0.1-0.1,0.2-0.2,0.3-0.3H42z"/>
	</g>
	<g>
		<path fill="#383838" d="M38.6,48l1.6-0.8h0.2v5.6c0,0.4,0,0.6,0,0.7c0,0.1,0.1,0.2,0.2,0.2c0.1,0,0.3,0.1,0.6,0.1V54h-2.5v-0.2
			c0.3,0,0.5,0,0.6-0.1c0.1,0,0.2-0.1,0.2-0.2c0-0.1,0.1-0.3,0.1-0.7v-3.6c0-0.5,0-0.8,0-0.9c0-0.1-0.1-0.2-0.1-0.2
			c-0.1,0-0.1-0.1-0.2-0.1c-0.1,0-0.3,0-0.5,0.2L38.6,48z"/>
	</g>
	<rect x="36.7" y="55.9" fill="#383838" width="6.3" height="1.1"/>
	<g>
		<path d="M31.5,56.2H34v0.7h-2.5V56.2z"/>
	</g>
</g>
<g>
	<path d="M118.3,25.2h5.3v-5.3h1.4v5.3h5.3v1.5h-5.3v5.2h-1.4v-5.2h-5.3V25.2z"/>
</g>
<g>
	<path d="M25.3,27.8h-6.4v-2.3h6.4V27.8z"/>
</g>
<g>
	<path d="M229.8,25.2h5.3v-5.3h1.4v5.3h5.3v1.5h-5.3v5.2h-1.4v-5.2h-5.3V25.2z"/>
</g>
<g>
	<polygon fill="#ED177D" points="130.5,11.8 128.6,11.3 130.3,4.7 123.7,6.4 123.2,4.5 133.1,1.9 	"/>
	
		<rect x="123.3" y="0.3" transform="matrix(0.7071 0.7071 -0.7071 0.7071 44.0073 -84.7417)" fill="#ED177D" width="2" height="21"/>
</g>
<g>
	<polygon fill="#ED177D" points="242,11.8 240.1,11.3 241.8,4.7 235.2,6.4 234.7,4.5 244.6,1.9 	"/>
	
		<rect x="234.8" y="0.3" transform="matrix(0.7071 0.7071 -0.7071 0.7071 76.6777 -163.5788)" fill="#ED177D" width="2" height="21"/>
</g>
<g>
	<polygon fill="#ED177D" points="30.9,16.3 21,13.6 21.5,11.7 28.1,13.4 26.4,6.9 28.3,6.4 	"/>
	<rect x="11.5" y="6.4" transform="matrix(0.7071 0.7071 -0.7071 0.7071 11.7014 -13.4013)" fill="#ED177D" width="21" height="2"/>
</g>
</svg>
