<?xml version="1.0" encoding="utf-8"?>
<!-- Generator: Adobe Illustrator 18.0.0, SVG Export Plug-In . SVG Version: 6.00 Build 0)  -->
<!DOCTYPE svg PUBLIC "-//W3C//DTD SVG 1.1//EN" "http://www.w3.org/Graphics/SVG/1.1/DTD/svg11.dtd">
<svg version="1.1" id="Vrstva_1" xmlns="http://www.w3.org/2000/svg" xmlns:xlink="http://www.w3.org/1999/xlink" x="0px" y="0px"
	 viewBox="0 0 500 500" enable-background="new 0 0 500 500" xml:space="preserve">
<g id="Vrstva_1_1_" display="none">
</g>
<g id="my">
	<g display="none">
		<path display="inline" fill="#EBE724" d="M311.7,312.6c-10.9,0-20.7-29.9-31-61.5l-0.2-0.6l1-0.3l0.2,0.6
			c9.8,29.9,19.9,60.8,30,60.8V312.6z"/>
		<path display="inline" fill="#EBE724" d="M280.5,250.6c-9.4-29.1-20.1-62.1-30.5-62.1v-1c11.2,0,21.5,31.9,31.5,62.7L280.5,250.6z
			"/>
		<path display="inline" fill="#EBE724" d="M188.3,312.6v-1c10.2,0,20.4-31.2,30.2-61.4l1,0.3C209,282.5,199.2,312.6,188.3,312.6z"
			/>
		<path display="inline" fill="#EBE724" d="M219.5,250.5l-1-0.3c10-30.8,20.4-62.7,31.5-62.7v1C239.6,188.4,229.4,219.9,219.5,250.5
			z"/>
		<path display="inline" fill="#EBE724" d="M435,312.6c-10.9,0-20.7-29.9-31-61.5l-0.2-0.6l1-0.3l0.2,0.6
			c9.8,29.9,19.9,60.8,30,60.8V312.6z"/>
		<path display="inline" fill="#EBE724" d="M403.8,250.6c-9.4-29.1-20.1-62.1-30.5-62.1v-1c11.2,0,21.5,31.9,31.5,62.7L403.8,250.6z
			"/>
		<path display="inline" fill="#EBE724" d="M311.7,312.6v-1c10.2,0,20.4-31.2,30.2-61.4l1,0.3C332.4,282.5,322.6,312.6,311.7,312.6z
			"/>
		<path display="inline" fill="#EBE724" d="M342.8,250.5l-1-0.3c10.5-32.3,20.4-62.7,31.5-62.7v1
			C362.9,188.4,352.7,219.9,342.8,250.5z"/>
		<path display="inline" fill="#EBE724" d="M188.4,312.6c-10.9,0-20.7-29.9-31-61.5l-0.2-0.6l1-0.3l0.2,0.6
			c9.8,29.9,19.9,60.8,30,60.8V312.6z"/>
		<path display="inline" fill="#EBE724" d="M157.2,250.6c-9.4-29.1-20.1-62.1-30.5-62.1v-1c11.2,0,21.5,31.9,31.5,62.7L157.2,250.6z
			"/>
		<path display="inline" fill="#EBE724" d="M65,312.6v-1c10.2,0,20.4-31.2,30.2-61.4l1,0.3C85.7,282.5,75.9,312.6,65,312.6z"/>
		<path display="inline" fill="#EBE724" d="M96.2,250.5l-1-0.3c10-30.8,20.4-62.7,31.5-62.7v1C116.3,188.4,106.1,219.9,96.2,250.5z"
			/>
		<path display="inline" fill="#EBE724" d="M65,312.6c-10.9,0-20.7-29.9-31-61.5l-0.2-0.6l1-0.3l0.2,0.6c9.8,29.9,19.9,60.8,30,60.8
			V312.6z"/>
		<path display="inline" fill="#EBE724" d="M33.8,250.6c-9.4-29.1-20.1-62.1-30.5-62.1v-1c11.2,0,21.5,31.9,31.5,62.7L33.8,250.6z"
			/>
		<path display="inline" fill="#EBE724" d="M435,312.6v-1c10.2,0,20.4-31.2,30.2-61.4l1,0.3C455.7,282.5,445.9,312.6,435,312.6z"/>
		<path display="inline" fill="#EBE724" d="M466.2,250.5l-1-0.3c10-30.8,20.4-62.7,31.5-62.7v1C486.3,188.4,476.1,219.9,466.2,250.5
			z"/>
	</g>
	<g display="none">
		<path display="inline" fill="#EBE724" d="M311.7,374.2c-10.9,0-20.7-29.9-31-61.5l-0.2-0.6l1-0.3l0.2,0.6
			c9.8,29.9,19.9,60.8,30,60.8V374.2z"/>
		<path display="inline" fill="#EBE724" d="M280.5,312.2c-9.4-29.1-20.1-62.1-30.5-62.1v-1c11.2,0,21.5,31.9,31.5,62.7L280.5,312.2z
			"/>
		<path display="inline" fill="#EBE724" d="M188.3,374.3v-1c10.2,0,20.4-31.2,30.2-61.4l1,0.3C209,344.2,199.2,374.3,188.3,374.3z"
			/>
		<path display="inline" fill="#EBE724" d="M219.5,312.2l-1-0.3c10-30.8,20.4-62.7,31.5-62.7v1C239.6,250.1,229.4,281.6,219.5,312.2
			z"/>
		<path display="inline" fill="#EBE724" d="M435,374.2c-10.9,0-20.7-29.9-31-61.5l-0.2-0.6l1-0.3l0.2,0.6
			c9.8,29.9,19.9,60.8,30,60.8V374.2z"/>
		<path display="inline" fill="#EBE724" d="M403.8,312.2c-9.4-29.1-20.1-62.1-30.5-62.1v-1c11.2,0,21.5,31.9,31.5,62.7L403.8,312.2z
			"/>
		<path display="inline" fill="#EBE724" d="M311.7,374.3v-1c10.2,0,20.4-31.2,30.2-61.4l1,0.3C332.4,344.2,322.6,374.3,311.7,374.3z
			"/>
		<path display="inline" fill="#EBE724" d="M342.8,312.2l-1-0.3c10.5-32.3,20.4-62.7,31.5-62.7v1
			C362.9,250.1,352.7,281.6,342.8,312.2z"/>
		<path display="inline" fill="#EBE724" d="M188.4,374.2c-10.9,0-20.7-29.9-31-61.5l-0.2-0.6l1-0.3l0.2,0.6
			c9.8,29.9,19.9,60.8,30,60.8V374.2z"/>
		<path display="inline" fill="#EBE724" d="M157.2,312.2c-9.4-29.1-20.1-62.1-30.5-62.1v-1c11.2,0,21.5,31.9,31.5,62.7L157.2,312.2z
			"/>
		<path display="inline" fill="#EBE724" d="M65,374.3v-1c10.2,0,20.4-31.2,30.2-61.4l1,0.3C85.7,344.2,75.9,374.3,65,374.3z"/>
		<path display="inline" fill="#EBE724" d="M96.2,312.2l-1-0.3c10-30.8,20.4-62.7,31.5-62.7v1C116.3,250.1,106.1,281.6,96.2,312.2z"
			/>
		<path display="inline" fill="#EBE724" d="M65,374.3c-10.9,0-21.2-31.6-31.2-62.1l1-0.3c9.8,30.2,20,61.5,30.2,61.5V374.3z"/>
		<path display="inline" fill="#EBE724" d="M33.8,312.2c-9.4-29.1-20.1-62.1-30.5-62.1v-1c11.2,0,21.5,31.9,31.5,62.7L33.8,312.2z"
			/>
		<path display="inline" fill="#EBE724" d="M435,374.3v-1c10.2,0,20.4-31.2,30.2-61.4l1,0.3C455.7,344.2,445.9,374.3,435,374.3z"/>
		<path display="inline" fill="#EBE724" d="M466.2,312.2l-1-0.3c10-30.8,20.4-62.7,31.5-62.7v1C486.3,250.1,476.1,281.6,466.2,312.2
			z"/>
	</g>
	<g display="none">
		<path display="inline" fill="#EBE724" d="M250.1,219.9l-0.3-1l0.6-0.2c29.9-9.8,60.8-19.9,60.8-30h1c0,10.9-29.9,20.7-61.5,31
			L250.1,219.9z"/>
		<path display="inline" fill="#EBE724" d="M188,250.4h-1c0-11.2,31.9-21.5,62.7-31.5l0.3,1C221,229.3,188,240,188,250.4z"/>
		<path display="inline" fill="#EBE724" d="M312.2,312h-1c0-10.2-31.2-20.4-61.4-30.2l0.3-1C282.1,291.3,312.2,301.1,312.2,312z"/>
		<path display="inline" fill="#EBE724" d="M249.7,281.9c-30.8-10-62.7-20.4-62.7-31.5h1c0,10.4,31.5,20.6,62.1,30.5L249.7,281.9z"
			/>
		<path display="inline" fill="#EBE724" d="M250.1,96.5l-0.3-1l0.6-0.2c29.9-9.8,60.8-19.9,60.8-30h1c0,10.9-29.9,20.7-61.5,31
			L250.1,96.5z"/>
		<path display="inline" fill="#EBE724" d="M188,127h-1c0-11.2,31.9-21.5,62.7-31.5l0.3,1C221,105.9,188,116.6,188,127z"/>
		<path display="inline" fill="#EBE724" d="M312.2,188.7h-1c0-10.2-31.2-20.4-61.4-30.2l0.3-1C282.1,168,312.2,177.8,312.2,188.7z"
			/>
		<path display="inline" fill="#EBE724" d="M249.7,158.5c-30.8-10-62.7-20.4-62.7-31.5h1c0,10.4,31.5,20.6,62.1,30.5L249.7,158.5z"
			/>
		<path display="inline" fill="#EBE724" d="M250.1,343.2l-0.3-1l0.6-0.2c29.9-9.8,60.8-19.9,60.8-30h1c0,10.9-29.9,20.7-61.5,31
			L250.1,343.2z"/>
		<path display="inline" fill="#EBE724" d="M188,373.7h-1c0-11.2,31.9-21.5,62.7-31.5l0.3,1C221,352.6,188,363.3,188,373.7z"/>
		<path display="inline" fill="#EBE724" d="M312.2,435.4h-1c0-10.2-31.2-20.4-61.4-30.2l0.3-1C282.1,414.7,312.2,424.5,312.2,435.4z
			"/>
		<path display="inline" fill="#EBE724" d="M249.7,405.2c-32.3-10.5-62.7-20.4-62.7-31.5h1c0,10.4,31.5,20.6,62.1,30.5L249.7,405.2z
			"/>
		<path display="inline" fill="#EBE724" d="M250.1,466.5l-0.3-1l0.6-0.2c29.9-9.8,60.8-19.9,60.8-30h1c0,10.9-29.9,20.7-61.5,31
			L250.1,466.5z"/>
		<path display="inline" fill="#EBE724" d="M188,497h-1c0-11.2,31.9-21.5,62.7-31.5l0.3,1C221,475.9,188,486.6,188,497z"/>
		<path display="inline" fill="#EBE724" d="M312.2,65.4h-1c0-10.2-31.2-20.4-61.4-30.2l0.3-1C282.1,44.7,312.2,54.5,312.2,65.4z"/>
		<path display="inline" fill="#EBE724" d="M249.7,35.2C218.9,25.2,187,14.8,187,3.7h1c0,10.4,31.5,20.6,62.1,30.5L249.7,35.2z"/>
	</g>
	<g opacity="0.4">
		<g>
			<path fill="#2576BC" d="M187.1,375c0,21.6,125.8,41,125.8,62.5v-125C312.9,334,187.1,353.4,187.1,375z"/>
			<path fill="#2576BC" d="M187.1,500h125.8v-62.5C312.9,459,187.1,478.4,187.1,500z"/>
			<path opacity="0.6" fill="#0090FC" enable-background="new    " d="M312.9,0H187.1c0,21.6,125.8,41,125.8,62.5l0,0
				c0,21.5-125.8,40.9-125.8,62.5s125.8,41,125.8,62.5l0,0c0,21.5-125.8,40.9-125.8,62.5s125.8,41,125.8,62.5V250v250H500V0H312.9z"
				/>
		</g>
	</g>
	<path opacity="0.6" fill="#F70065" enable-background="new    " d="M437.5,312.9c-21.5,0-40.9-125.8-62.5-125.8
		s-41,125.8-62.5,125.8S271.6,187.1,250,187.1s-41,125.8-62.5,125.8S146.6,187.1,125,187.1S84,312.9,62.5,312.9S21.6,187.1,0,187.1
		v125.8V500h500V312.9V187.1C478.4,187.1,459,312.9,437.5,312.9z"/>
</g>
<g id="prunik">
	<path fill="#2576BC" d="M227.5,225.7c-4.6,13.3-9.2,28.2-13.9,41.8c26.4,10.6,66.6,20.9,87.2,31.5c-10.6-20.5-20.9-60.7-31.5-87.2
		C255.7,216.5,240.8,221.1,227.5,225.7z"/>
	<g>
		<path fill="#2576BC" d="M375.4,186.7c-21.6,0-41,125.8-62.5,125.8h125C416.4,312.5,397,186.7,375.4,186.7z"/>
		<path fill="#2576BC" d="M500.4,186.7c-21.6,0-41,125.8-62.5,125.8h62.5V186.7z"/>
		<path fill="#2576BC" d="M437.9,312.5L437.9,312.5L437.9,312.5z"/>
		<path fill="#2576BC" d="M187.1,375c0,21.6,125.8,41,125.8,62.5S187.1,478.4,187.1,500h125.8H500V312.5h-62.1h-125
			C312.9,334,187.1,353.4,187.1,375z"/>
	</g>
</g>
<g id="axis">
	<rect x="249" fill="#454545" width="2" height="500"/>
	<rect y="249" fill="#454545" width="500" height="2"/>
	<rect x="-77.2" y="182.4" display="none" fill="#4154A4" width="62.9" height="62.9"/>
	<rect x="245.7" y="186.6" fill="#454546" width="8.5" height="1"/>
	<rect x="186.1" y="245.3" fill="#454545" width="2" height="8.5"/>
	<polygon fill="#454545" points="9.9,259.5 -1.5,250 9.9,240.5 11.1,242.1 1.7,250 11.1,257.9 	"/>
</g>
<g id="lines">
	<g>
		<g>
			<g>
				<path fill="#ED1A46" d="M187.5,376.4c-2,0-4-0.9-6-2.8l1.4-1.5c1.6,1.5,3.1,2.2,4.6,2.2V376.4z"/>
				<path fill="#ED1A46" d="M75.6,363.8l-1.8-0.9c1.6-3,3.2-6.6,5-10.9l1.8,0.8C78.9,357.1,77.2,360.7,75.6,363.8z M174.4,363.7
					c-1.6-3.1-3.3-6.7-5.1-11l1.8-0.8c1.8,4.3,3.4,7.8,5,10.9L174.4,363.7z M85,341.4l-1.9-0.7c1.2-3.4,2.5-7.1,4-11.4L89,330
					C87.6,334.3,86.3,338.1,85,341.4z M165,341.3c-1.2-3.4-2.5-7.1-4-11.4l1.9-0.6c1.4,4.3,2.7,8,4,11.4L165,341.3z M92.8,318.6
					l-1.9-0.6l3.7-11.5l1.9,0.6L92.8,318.6z M157.2,318.5l-3.7-11.5l1.9-0.6l3.7,11.5L157.2,318.5z M100.3,295.7l-1.9-0.6
					c1.5-4.3,2.8-8,4-11.4l1.9,0.7C103,287.7,101.8,291.4,100.3,295.7z M149.7,295.6c-1.4-4.3-2.7-8-4-11.4l1.9-0.7
					c1.2,3.4,2.5,7.1,4,11.4L149.7,295.6z M108.6,273.1l-1.8-0.8c1.8-4.3,3.5-7.9,5.1-11l1.8,0.9C112,265.3,110.4,268.8,108.6,273.1
					z M141.4,273c-1.8-4.3-3.4-7.8-5-10.8l1.8-0.9c1.6,3.1,3.3,6.7,5.1,11L141.4,273z M120.4,252.8l-1.3-1.5c4-3.5,7.9-3.6,11.9,0
					l-1.3,1.5C126.4,249.9,123.6,249.9,120.4,252.8z"/>
				<path fill="#ED1A46" d="M62.5,376.4v-2c1.4,0,2.9-0.7,4.6-2.2l1.3,1.5C66.4,375.5,64.5,376.4,62.5,376.4z"/>
			</g>
		</g>
		<g>
			<g>
				<path fill="#ED1A46" d="M312.5,376.4c-2,0-4-0.9-6-2.8l1.4-1.5c1.6,1.5,3.1,2.2,4.6,2.2V376.4z"/>
				<path fill="#ED1A46" d="M200.6,363.8l-1.8-0.9c1.6-3,3.2-6.6,5-10.9l1.8,0.8C203.9,357.1,202.2,360.7,200.6,363.8z M299.4,363.7
					c-1.6-3.1-3.3-6.7-5.1-11l1.8-0.8c1.8,4.3,3.4,7.8,5,10.9L299.4,363.7z M210,341.4l-1.9-0.7c1.2-3.4,2.5-7.1,4-11.4l1.9,0.6
					C212.6,334.3,211.3,338.1,210,341.4z M290,341.3c-1.2-3.4-2.5-7.1-4-11.4l1.9-0.6c1.4,4.3,2.7,8,4,11.4L290,341.3z M217.8,318.6
					l-1.9-0.6l3.7-11.5l1.9,0.6L217.8,318.6z M282.2,318.5l-3.7-11.5l1.9-0.6l3.7,11.5L282.2,318.5z M225.3,295.7l-1.9-0.6
					c1.5-4.3,2.8-8,4-11.4l1.9,0.7C228,287.7,226.8,291.4,225.3,295.7z M274.7,295.6c-1.4-4.3-2.7-8-4-11.4l1.9-0.7
					c1.2,3.4,2.5,7.1,4,11.4L274.7,295.6z M233.6,273.1l-1.8-0.8c1.8-4.3,3.5-7.9,5.1-11l1.8,0.9C237,265.3,235.4,268.8,233.6,273.1
					z M266.4,273c-1.8-4.3-3.4-7.8-5-10.8l1.8-0.9c1.7,3.1,3.3,6.7,5.1,11L266.4,273z M245.4,252.8l-1.3-1.5c4-3.5,7.9-3.6,11.9,0
					l-1.3,1.5C251.4,249.9,248.6,249.9,245.4,252.8z"/>
				<path fill="#ED1A46" d="M187.5,376.4v-2c1.4,0,2.9-0.7,4.6-2.2l1.3,1.5C191.4,375.5,189.5,376.4,187.5,376.4z"/>
			</g>
		</g>
		<g>
			<g>
				<path fill="#ED1A46" d="M62.5,376.4c-2,0-4-0.9-6-2.8l1.4-1.5c1.6,1.5,3.1,2.2,4.6,2.2V376.4z"/>
				<path fill="#ED1A46" d="M49.4,363.7c-1.6-3.1-3.3-6.7-5.1-11l1.8-0.8c1.8,4.3,3.4,7.8,5,10.9L49.4,363.7z M40,341.3
					c-1.2-3.4-2.5-7.1-4-11.4l1.9-0.6c1.4,4.3,2.7,8,4,11.4L40,341.3z M32.2,318.5L28.5,307l1.9-0.6l3.7,11.5L32.2,318.5z
					 M24.7,295.6c-1.4-4.3-2.7-8-4-11.4l1.9-0.7c1.2,3.4,2.5,7.1,4,11.4L24.7,295.6z M16.4,273.1c-1.8-4.3-3.4-7.8-5.1-10.8l1.8-0.9
					c1.7,3.1,3.3,6.7,5.1,11L16.4,273.1z"/>
				<path fill="#ED1A46" d="M4.6,252.7c-1.7-1.5-3.2-2.2-4.6-2.2v-2c2,0,3.9,0.9,6,2.8L4.6,252.7z"/>
			</g>
		</g>
		<g>
			<g>
				<path fill="#ED1A46" d="M437.5,376.4c-2,0-4-0.9-6-2.8l1.4-1.5c1.6,1.5,3.1,2.2,4.6,2.2V376.4z"/>
				<path fill="#ED1A46" d="M325.6,363.8l-1.8-0.9c1.6-3,3.2-6.6,5-10.9l1.8,0.8C328.9,357.1,327.2,360.7,325.6,363.8z M424.4,363.7
					c-1.6-3.1-3.3-6.7-5.1-11l1.8-0.8c1.8,4.3,3.4,7.8,5,10.9L424.4,363.7z M335,341.4l-1.9-0.7c1.2-3.4,2.5-7.1,4-11.4l1.9,0.6
					C337.6,334.3,336.3,338.1,335,341.4z M415,341.3c-1.2-3.4-2.5-7.1-4-11.4l1.9-0.6c1.4,4.3,2.7,8,4,11.4L415,341.3z M342.8,318.6
					l-1.9-0.6l3.7-11.5l1.9,0.6L342.8,318.6z M407.2,318.5l-3.7-11.5l1.9-0.6l3.7,11.5L407.2,318.5z M350.3,295.7l-1.9-0.6
					c1.4-4.3,2.7-8,4-11.4l1.9,0.7C353,287.7,351.7,291.4,350.3,295.7z M399.7,295.6c-1.4-4.3-2.7-8-4-11.4l1.9-0.7
					c1.2,3.4,2.5,7.1,4,11.4L399.7,295.6z M358.6,273.1l-1.8-0.8c1.8-4.3,3.5-7.9,5.1-11l1.8,0.9C362,265.3,360.4,268.8,358.6,273.1
					z M391.4,273c-1.8-4.3-3.4-7.8-5-10.8l1.8-0.9c1.7,3.1,3.3,6.7,5.1,11L391.4,273z M370.4,252.8l-1.3-1.5c4-3.5,7.9-3.6,11.9,0
					l-1.3,1.5C376.4,249.9,373.6,249.9,370.4,252.8z"/>
				<path fill="#ED1A46" d="M312.5,376.4v-2c1.4,0,2.9-0.7,4.6-2.2l1.3,1.5C316.4,375.5,314.5,376.4,312.5,376.4z"/>
			</g>
		</g>
		<g>
			<g>
				<path fill="#ED1A46" d="M495.4,252.8l-1.4-1.5c2-1.8,4-2.8,6-2.8v2C498.5,250.6,497,251.3,495.4,252.8z"/>
				<path fill="#ED1A46" d="M450.5,363.7l-1.8-0.9c1.6-3,3.3-6.6,5-10.8l1.8,0.8C453.8,357,452.1,360.6,450.5,363.7z M459.9,341.4
					l-1.9-0.7c1.2-3.4,2.5-7.1,4-11.4l1.9,0.6C462.5,334.3,461.2,338,459.9,341.4z M467.7,318.6l-1.9-0.6l3.7-11.5l1.9,0.6
					L467.7,318.6z M475.3,295.7l-1.9-0.6c1.5-4.3,2.8-8,4-11.4l1.9,0.7C478,287.7,476.7,291.4,475.3,295.7z M483.5,273.1l-1.8-0.8
					c1.8-4.3,3.5-7.9,5.1-11l1.8,0.9C487,265.3,485.3,268.8,483.5,273.1z"/>
				<path fill="#ED1A46" d="M437.5,376.4v-2c1.4,0,2.9-0.7,4.6-2.2l1.3,1.5C441.4,375.5,439.5,376.4,437.5,376.4z"/>
			</g>
		</g>
	</g>
	<g>
		<g>
			<g>
				<path fill="#ED1A46" d="M187.5,313.9c-2,0-4-0.9-6-2.8l1.4-1.5c1.6,1.5,3.1,2.2,4.6,2.2V313.9z"/>
				<path fill="#ED1A46" d="M75.6,301.3l-1.8-0.9c1.6-3,3.2-6.6,5-10.9l1.8,0.8C78.9,294.6,77.2,298.2,75.6,301.3z M174.4,301.2
					c-1.6-3.1-3.3-6.7-5.1-11l1.8-0.8c1.8,4.3,3.4,7.8,5,10.9L174.4,301.2z M85,278.9l-1.9-0.7c1.2-3.4,2.5-7.1,4-11.4l1.9,0.6
					C87.5,271.8,86.2,275.6,85,278.9z M165,278.8c-1.2-3.4-2.5-7.1-4-11.4l1.9-0.6c1.4,4.3,2.7,8,4,11.4L165,278.8z M92.8,256.1
					l-1.9-0.6l3.7-11.5l1.9,0.6L92.8,256.1z M157.2,256l-3.7-11.5l1.9-0.6l3.7,11.5L157.2,256z M100.3,233.2l-1.9-0.6
					c1.4-4.3,2.7-8,4-11.4l1.9,0.7C103,225.2,101.7,228.9,100.3,233.2z M149.7,233.1c-1.5-4.3-2.7-8-4-11.4l1.9-0.7
					c1.2,3.4,2.5,7.1,4,11.4L149.7,233.1z M108.6,210.6l-1.8-0.8c1.8-4.3,3.5-8,5.1-11l1.8,0.9C112,202.8,110.4,206.3,108.6,210.6z
					 M141.4,210.5c-1.8-4.3-3.4-7.8-5-10.8l1.8-0.9c1.6,3.1,3.3,6.7,5.1,11L141.4,210.5z M120.4,190.3l-1.3-1.5
					c4-3.6,7.9-3.6,11.9-0.1l-1.3,1.5C126.4,187.4,123.6,187.4,120.4,190.3z"/>
				<path fill="#ED1A46" d="M62.5,313.9v-2c1.4,0,2.9-0.7,4.6-2.2l1.3,1.5C66.4,313,64.5,313.9,62.5,313.9z"/>
			</g>
		</g>
		<g>
			<g>
				<path fill="#ED1A46" d="M312.5,313.9c-2,0-4-0.9-6-2.8l1.4-1.5c1.6,1.5,3.1,2.2,4.6,2.2V313.9z"/>
				<path fill="#ED1A46" d="M200.6,301.3l-1.8-0.9c1.6-3,3.2-6.6,5-10.9l1.8,0.8C203.9,294.6,202.2,298.2,200.6,301.3z M299.4,301.2
					c-1.6-3.1-3.3-6.7-5.1-11l1.8-0.8c1.8,4.3,3.4,7.8,5,10.9L299.4,301.2z M210,278.9l-1.9-0.7c1.2-3.4,2.5-7.1,4-11.4l1.9,0.6
					C212.5,271.8,211.2,275.6,210,278.9z M290,278.8c-1.2-3.4-2.5-7.1-4-11.4l1.9-0.6c1.5,4.3,2.7,8,4,11.4L290,278.8z M217.8,256.1
					l-1.9-0.6l3.7-11.5l1.9,0.6L217.8,256.1z M282.2,256l-3.7-11.5l1.9-0.6l3.7,11.5L282.2,256z M225.3,233.2l-1.9-0.6
					c1.4-4.3,2.7-8,4-11.4l1.9,0.7C228,225.2,226.7,228.9,225.3,233.2z M274.7,233.1c-1.4-4.3-2.7-8-4-11.4l1.9-0.7
					c1.2,3.4,2.5,7.1,4,11.4L274.7,233.1z M233.6,210.6l-1.8-0.8c1.8-4.3,3.5-8,5.1-11l1.8,0.9C237,202.8,235.4,206.3,233.6,210.6z
					 M266.4,210.5c-1.8-4.3-3.4-7.8-5-10.8l1.8-0.9c1.6,3.1,3.3,6.7,5.1,11L266.4,210.5z M245.4,190.3l-1.3-1.5
					c4-3.6,7.9-3.6,11.9-0.1l-1.3,1.5C251.4,187.4,248.6,187.4,245.4,190.3z"/>
				<path fill="#ED1A46" d="M187.5,313.9v-2c1.4,0,2.9-0.7,4.6-2.2l1.3,1.5C191.4,313,189.5,313.9,187.5,313.9z"/>
			</g>
		</g>
		<g>
			<g>
				<path fill="#ED1A46" d="M62.5,313.9c-2,0-4-0.9-6-2.8l1.4-1.5c1.6,1.5,3.1,2.2,4.6,2.2V313.9z"/>
				<path fill="#ED1A46" d="M49.4,301.2c-1.6-3.1-3.3-6.7-5.1-11l1.8-0.8c1.8,4.3,3.4,7.8,5,10.9L49.4,301.2z M40,278.8
					c-1.2-3.4-2.5-7.1-4-11.4l1.9-0.6c1.4,4.3,2.7,8,4,11.4L40,278.8z M32.2,256l-3.7-11.5l1.9-0.6l3.7,11.5L32.2,256z M24.7,233.1
					c-1.4-4.3-2.7-8-4-11.4l1.9-0.7c1.2,3.4,2.5,7.1,4,11.4L24.7,233.1z M16.4,210.6c-1.8-4.3-3.4-7.8-5-10.8l1.8-0.9
					c1.7,3.1,3.3,6.7,5.1,11L16.4,210.6z"/>
				<path fill="#ED1A46" d="M4.6,190.2C2.9,188.7,1.4,188,0,188v-2c2,0,3.9,0.9,6,2.8L4.6,190.2z"/>
			</g>
		</g>
		<g>
			<g>
				<path fill="#ED1A46" d="M437.5,313.9c-2,0-4-0.9-6-2.8l1.4-1.5c1.6,1.5,3.1,2.2,4.6,2.2V313.9z"/>
				<path fill="#ED1A46" d="M325.6,301.3l-1.8-0.9c1.6-3,3.2-6.6,5-10.9l1.8,0.8C328.9,294.6,327.2,298.2,325.6,301.3z M424.4,301.2
					c-1.6-3.1-3.3-6.7-5.1-11l1.8-0.8c1.8,4.3,3.4,7.8,5,10.9L424.4,301.2z M335,278.9l-1.9-0.7c1.2-3.4,2.5-7.1,4-11.4l1.9,0.6
					C337.5,271.8,336.2,275.6,335,278.9z M415,278.8c-1.2-3.4-2.5-7.1-4-11.4l1.9-0.6c1.5,4.3,2.7,8,4,11.4L415,278.8z M342.8,256.1
					l-1.9-0.6l3.7-11.5l1.9,0.6L342.8,256.1z M407.2,256l-3.7-11.5l1.9-0.6l3.7,11.5L407.2,256z M350.3,233.2l-1.9-0.6
					c1.5-4.3,2.8-8,4-11.4l1.9,0.7C353,225.2,351.7,228.9,350.3,233.2z M399.7,233.1c-1.4-4.3-2.7-8-4-11.4l1.9-0.7
					c1.2,3.4,2.5,7.1,4,11.4L399.7,233.1z M358.6,210.6l-1.8-0.8c1.8-4.3,3.5-7.9,5.1-11l1.8,0.9C362,202.8,360.4,206.3,358.6,210.6
					z M391.4,210.5c-1.8-4.3-3.4-7.8-5-10.8l1.8-0.9c1.6,3.1,3.3,6.7,5.1,11L391.4,210.5z M370.4,190.3l-1.3-1.5
					c4-3.6,7.9-3.6,11.9-0.1l-1.3,1.5C376.4,187.4,373.6,187.4,370.4,190.3z"/>
				<path fill="#ED1A46" d="M312.5,313.9v-2c1.4,0,2.9-0.7,4.6-2.2l1.3,1.5C316.4,313,314.5,313.9,312.5,313.9z"/>
			</g>
		</g>
		<g>
			<g>
				<path fill="#ED1A46" d="M495.4,190.3l-1.4-1.5c2-1.8,4-2.8,6-2.8v2C498.5,188.1,497,188.8,495.4,190.3z"/>
				<path fill="#ED1A46" d="M450.5,301.2l-1.8-0.9c1.6-3,3.3-6.6,5-10.8l1.8,0.8C453.8,294.5,452.1,298.1,450.5,301.2z M459.9,278.9
					l-1.9-0.7c1.2-3.4,2.5-7.1,4-11.4l1.9,0.6C462.5,271.8,461.2,275.5,459.9,278.9z M467.7,256.1l-1.9-0.6l3.7-11.5l1.9,0.6
					L467.7,256.1z M475.3,233.2l-1.9-0.6c1.5-4.3,2.8-8,4-11.4l1.9,0.7C478,225.2,476.7,228.9,475.3,233.2z M483.5,210.6l-1.8-0.8
					c1.8-4.3,3.5-7.9,5.1-11l1.8,0.9C487,202.8,485.3,206.3,483.5,210.6z"/>
				<path fill="#ED1A46" d="M437.5,313.9v-2c1.4,0,2.9-0.7,4.6-2.2l1.3,1.5C441.4,313,439.5,313.9,437.5,313.9z"/>
			</g>
		</g>
	</g>
	<g>
		<g>
			<path fill="#2576BC" d="M313.9,437.1h-2c0-10-31.6-20.3-62.1-30.2c-32.8-10.7-63.7-20.7-63.7-32.3c0-11.5,30.9-21.6,63.7-32.3
				c30.5-9.9,62.1-20.2,62.1-30.2h2c0,11.5-30.8,21.5-63.5,32.1c-29.2,9.5-62.3,20.3-62.3,30.4c0,10.1,33.1,20.9,62.3,30.4
				C283.1,415.6,313.9,425.6,313.9,437.1z"/>
			<path fill="#2576BC" d="M313.9,312.1h-2c0-10-31.6-20.3-62.1-30.2c-32.8-10.7-63.7-20.7-63.7-32.3s30.9-21.6,63.7-32.3
				c30.5-9.9,62.1-20.2,62.1-30.2h2c0,11.5-30.8,21.5-63.5,32.1c-29.2,9.5-62.3,20.3-62.3,30.4s33.1,20.9,62.3,30.4
				C283.1,290.6,313.9,300.6,313.9,312.1z"/>
			<path fill="#2576BC" d="M188.1,499.6h-2c0-11.5,30.9-21.6,63.7-32.3c30.5-9.9,62.1-20.2,62.1-30.2h2c0,11.5-30.8,21.5-63.5,32.1
				C221.2,478.7,188.1,489.5,188.1,499.6z"/>
			<path fill="#2576BC" d="M313.9,187.1h-2c0-10-31.6-20.3-62.1-30.2c-32.8-10.7-63.7-20.7-63.7-32.3S217,103,249.8,92.3
				c30.5-9.9,62.1-20.2,62.1-30.2h2c0,11.5-30.8,21.5-63.5,32.1c-29.2,9.5-62.3,20.3-62.3,30.4s33.1,20.9,62.3,30.4
				C283.1,165.6,313.9,175.6,313.9,187.1z"/>
			<path fill="#2576BC" d="M313.9,62.1h-2c0-10-31.6-20.3-62.1-30.2C217,21.2,186.1,11.1,186.1-0.4h2c0,10.1,33.1,20.9,62.3,30.4
				C283.1,40.6,313.9,50.6,313.9,62.1z"/>
		</g>
	</g>
	<g>
		<g enable-background="new    ">
			<path fill="#454545" d="M265.1,23.3v-2.8h-4.8v-0.9l4.6-6.6h1.5v6.5h1.5v1.1h-1.5v2.8H265.1z M265.1,19.4v-3.5c0-0.5,0-1.1,0-1.6
				h0c-0.3,0.6-0.6,1.1-0.9,1.5l-2.5,3.5v0H265.1z"/>
		</g>
	</g>
	<g enable-background="new    ">
		<path d="M182.1,235.5v1h-4v-1H182.1z"/>
		<path d="M186.4,231.2L186.4,231.2l-1.8,1l-0.3-1.1l2.3-1.2h1.2v10.4h-1.4V231.2z"/>
	</g>
	<g enable-background="new    ">
		<path d="M263.4,183L263.4,183l-1.8,1l-0.3-1.1l2.3-1.2h1.2v10.4h-1.4V183z"/>
	</g>
	<g enable-background="new    ">
		<path fill="#454545" d="M264.1,493.6v1h-4v-1H264.1z"/>
		<path fill="#454545" d="M269.6,498.5v-2.8h-4.8v-0.9l4.6-6.6h1.5v6.5h1.5v1.1h-1.5v2.8H269.6z M269.6,494.6v-3.5
			c0-0.5,0-1.1,0-1.6h0c-0.3,0.6-0.6,1.1-0.9,1.5l-2.5,3.5v0H269.6z"/>
	</g>
	<g enable-background="new    ">
		<path fill="#050505" d="M274.8,260.5c0,3.5-1.3,5.5-3.6,5.5c-2,0-3.4-1.9-3.4-5.3c0-3.5,1.5-5.4,3.6-5.4
			C273.5,255.2,274.8,257.2,274.8,260.5z M269.1,260.7c0,2.7,0.8,4.2,2.1,4.2c1.4,0,2.1-1.7,2.1-4.3c0-2.6-0.7-4.2-2.1-4.2
			C270,256.3,269.1,257.8,269.1,260.7z"/>
	</g>
</g>
<polygon fill="#454545" points="490.1,259.1 488.9,257.5 498.3,249.6 488.9,241.7 490.1,240.1 501.5,249.6 "/>
<polygon fill="#454545" points="250,501.2 240.5,489.8 242.1,488.6 250,498 257.9,488.6 259.5,489.8 "/>
<polygon fill="#454545" points="257.9,11 250,1.6 242.1,11 240.5,9.8 250,-1.6 259.5,9.8 "/>
<g>
	<g enable-background="new    ">
		<path fill="#454545" d="M231.4,5.6l1.7,4.6c0.2,0.5,0.4,1.1,0.5,1.6h0c0.1-0.5,0.3-1.1,0.5-1.6l1.5-4.5h1.5l-2.1,5.5
			c-1,2.7-1.7,4-2.7,4.8c-0.7,0.6-1.4,0.8-1.7,0.9l-0.4-1.2c0.4-0.1,0.8-0.3,1.2-0.7c0.4-0.3,0.9-0.8,1.2-1.6
			c0.1-0.1,0.1-0.3,0.1-0.3s0-0.2-0.1-0.4l-2.9-7.1H231.4z"/>
	</g>
</g>
<g>
	<g enable-background="new    ">
		<path fill="#454545" d="M488.9,230.2l1.1,1.7c0.3,0.4,0.5,0.8,0.8,1.3h0c0.3-0.5,0.5-0.9,0.8-1.3l1.1-1.6h1.5l-2.6,3.7l2.7,4h-1.6
			l-1.1-1.7c-0.3-0.4-0.6-0.9-0.8-1.3h0c-0.3,0.5-0.5,0.9-0.8,1.3l-1.1,1.7h-1.6l2.8-4l-2.6-3.8H488.9z"/>
	</g>
</g>
</svg>
