<?xml version="1.0" encoding="utf-8"?>
<!-- Generator: Adobe Illustrator 18.0.0, SVG Export Plug-In . SVG Version: 6.00 Build 0)  -->
<!DOCTYPE svg PUBLIC "-//W3C//DTD SVG 1.1//EN" "http://www.w3.org/Graphics/SVG/1.1/DTD/svg11.dtd">
<svg version="1.1" xmlns="http://www.w3.org/2000/svg" xmlns:xlink="http://www.w3.org/1999/xlink" x="0px" y="0px"
	 viewBox="0 0 500 500" enable-background="new 0 0 500 500" xml:space="preserve">
<g id="Vrstva_1" display="none">
	
		<image display="inline" overflow="visible" width="503" height="688" xlink:href="6A90A407.jpg"  transform="matrix(1 0 0 1 -582 -39)">
	</image>
</g>
<g id="my">
	<g display="none">
		<path display="inline" fill="none" stroke="#EBE724" stroke-miterlimit="10" d="M281,250.4c10.1,30.9,20.1,61.7,30.7,61.7"/>
		<path display="inline" fill="none" stroke="#EBE724" stroke-miterlimit="10" d="M281,250.4c-10.1-31.2-20.3-62.4-31-62.4"/>
		<path display="inline" fill="none" stroke="#EBE724" stroke-miterlimit="10" d="M188.3,312.1c10.5,0,20.6-30.8,30.7-61.7"/>
		<path display="inline" fill="none" stroke="#EBE724" stroke-miterlimit="10" d="M250,187.9c-10.7,0-20.9,31.3-31,62.4"/>
		<path display="inline" fill="none" stroke="#EBE724" stroke-miterlimit="10" d="M404.3,250.4c10.1,30.9,20.1,61.7,30.7,61.7"/>
		<path display="inline" fill="none" stroke="#EBE724" stroke-miterlimit="10" d="M404.3,250.4c-10.1-31.2-20.3-62.4-31-62.4"/>
		<path display="inline" fill="none" stroke="#EBE724" stroke-miterlimit="10" d="M311.7,312.1c10.5,0,20.6-30.8,30.7-61.7"/>
		<path display="inline" fill="none" stroke="#EBE724" stroke-miterlimit="10" d="M373.3,187.9c-10.7,0-20.9,31.3-31,62.4"/>
		<path display="inline" fill="none" stroke="#EBE724" stroke-miterlimit="10" d="M157.7,250.4c10.1,30.9,20.1,61.7,30.7,61.7"/>
		<path display="inline" fill="none" stroke="#EBE724" stroke-miterlimit="10" d="M157.7,250.4c-10.1-31.2-20.3-62.4-31-62.4"/>
		<path display="inline" fill="none" stroke="#EBE724" stroke-miterlimit="10" d="M65,312.1c10.5,0,20.6-30.8,30.7-61.7"/>
		<path display="inline" fill="none" stroke="#EBE724" stroke-miterlimit="10" d="M126.7,187.9c-10.7,0-20.9,31.3-31,62.4"/>
		<path display="inline" fill="none" stroke="#EBE724" stroke-miterlimit="10" d="M34.3,250.4c10.1,30.9,20.1,61.7,30.7,61.7"/>
		<path display="inline" fill="none" stroke="#EBE724" stroke-miterlimit="10" d="M34.3,250.4c-10.1-31.2-20.3-62.4-31-62.4"/>
		<path display="inline" fill="none" stroke="#EBE724" stroke-miterlimit="10" d="M435,312.1c10.5,0,20.6-30.8,30.7-61.7"/>
		<path display="inline" fill="none" stroke="#EBE724" stroke-miterlimit="10" d="M496.7,187.9c-10.7,0-20.9,31.3-31,62.4"/>
	</g>
	<g display="none">
		<path display="inline" fill="none" stroke="#EBE724" stroke-miterlimit="10" d="M281,312c10.1,30.9,20.1,61.7,30.7,61.7"/>
		<path display="inline" fill="none" stroke="#EBE724" stroke-miterlimit="10" d="M281,312c-10.1-31.2-20.3-62.4-31-62.4"/>
		<path display="inline" fill="none" stroke="#EBE724" stroke-miterlimit="10" d="M188.3,373.8c10.5,0,20.6-30.8,30.7-61.7"/>
		<path display="inline" fill="none" stroke="#EBE724" stroke-miterlimit="10" d="M250,249.6c-10.7,0-20.9,31.3-31,62.4"/>
		<path display="inline" fill="none" stroke="#EBE724" stroke-miterlimit="10" d="M404.3,312c10.1,30.9,20.1,61.7,30.7,61.7"/>
		<path display="inline" fill="none" stroke="#EBE724" stroke-miterlimit="10" d="M404.3,312c-10.1-31.2-20.3-62.4-31-62.4"/>
		<path display="inline" fill="none" stroke="#EBE724" stroke-miterlimit="10" d="M311.7,373.8c10.5,0,20.6-30.8,30.7-61.7"/>
		<path display="inline" fill="none" stroke="#EBE724" stroke-miterlimit="10" d="M373.3,249.6c-10.7,0-20.9,31.3-31,62.4"/>
		<path display="inline" fill="none" stroke="#EBE724" stroke-miterlimit="10" d="M157.7,312c10.1,30.9,20.1,61.7,30.7,61.7"/>
		<path display="inline" fill="none" stroke="#EBE724" stroke-miterlimit="10" d="M157.7,312c-10.1-31.2-20.3-62.4-31-62.4"/>
		<path display="inline" fill="none" stroke="#EBE724" stroke-miterlimit="10" d="M65,373.8c10.5,0,20.6-30.8,30.7-61.7"/>
		<path display="inline" fill="none" stroke="#EBE724" stroke-miterlimit="10" d="M126.7,249.6c-10.7,0-20.9,31.3-31,62.4"/>
		<path display="inline" fill="none" stroke="#EBE724" stroke-miterlimit="10" d="M34.3,312C44.4,343,54.5,373.8,65,373.8"/>
		<path display="inline" fill="none" stroke="#EBE724" stroke-miterlimit="10" d="M34.3,312c-10.1-31.2-20.3-62.4-31-62.4"/>
		<path display="inline" fill="none" stroke="#EBE724" stroke-miterlimit="10" d="M435,373.8c10.5,0,20.6-30.8,30.7-61.7"/>
		<path display="inline" fill="none" stroke="#EBE724" stroke-miterlimit="10" d="M496.7,249.6c-10.7,0-20.9,31.3-31,62.4"/>
	</g>
	<g display="none">
		<path display="inline" fill="none" stroke="#EBE724" stroke-miterlimit="10" d="M249.9,219.4c30.9-10.1,61.7-20.1,61.7-30.7"/>
		<path display="inline" fill="none" stroke="#EBE724" stroke-miterlimit="10" d="M249.9,219.4c-31.2,10.1-62.4,20.3-62.4,31"/>
		<path display="inline" fill="none" stroke="#EBE724" stroke-miterlimit="10" d="M311.7,312c0-10.5-30.8-20.6-61.7-30.7"/>
		<path display="inline" fill="none" stroke="#EBE724" stroke-miterlimit="10" d="M187.5,250.4c0,10.7,31.3,20.9,62.4,31"/>
		<path display="inline" fill="none" stroke="#EBE724" stroke-miterlimit="10" d="M249.9,96c30.9-10.1,61.7-20.1,61.7-30.7"/>
		<path display="inline" fill="none" stroke="#EBE724" stroke-miterlimit="10" d="M249.9,96c-31.2,10.1-62.4,20.3-62.4,31"/>
		<path display="inline" fill="none" stroke="#EBE724" stroke-miterlimit="10" d="M311.7,188.7c0-10.5-30.8-20.6-61.7-30.7"/>
		<path display="inline" fill="none" stroke="#EBE724" stroke-miterlimit="10" d="M187.5,127c0,10.7,31.3,20.9,62.4,31"/>
		<path display="inline" fill="none" stroke="#EBE724" stroke-miterlimit="10" d="M249.9,342.7c30.9-10.1,61.7-20.1,61.7-30.7"/>
		<path display="inline" fill="none" stroke="#EBE724" stroke-miterlimit="10" d="M249.9,342.7c-31.2,10.1-62.4,20.3-62.4,31"/>
		<path display="inline" fill="none" stroke="#EBE724" stroke-miterlimit="10" d="M311.7,435.4c0-10.5-30.8-20.6-61.7-30.7"/>
		<path display="inline" fill="none" stroke="#EBE724" stroke-miterlimit="10" d="M187.5,373.7c0,10.7,31.3,20.9,62.4,31"/>
		<path display="inline" fill="none" stroke="#EBE724" stroke-miterlimit="10" d="M249.9,466c30.9-10.1,61.7-20.1,61.7-30.7"/>
		<path display="inline" fill="none" stroke="#EBE724" stroke-miterlimit="10" d="M249.9,466c-31.2,10.1-62.4,20.3-62.4,31"/>
		<path display="inline" fill="none" stroke="#EBE724" stroke-miterlimit="10" d="M311.7,65.4c0-10.5-30.8-20.6-61.7-30.7"/>
		<path display="inline" fill="none" stroke="#EBE724" stroke-miterlimit="10" d="M187.5,3.7c0,10.7,31.3,20.9,62.4,31"/>
	</g>
	<path display="none" fill="none" stroke="#EBE724" stroke-miterlimit="10" d="M30.8-272.6c-21.3,0-40.5,124.2-61.7,124.2"/>
	<g opacity="0.4">
		<g>
			<path fill="#2576BC" d="M187.1,375c0,21.6,125.8,41,125.8,62.5v-125C312.9,334,187.1,353.4,187.1,375z"/>
			<path fill="#2576BC" d="M187.1,500h125.8v-62.5C312.9,459,187.1,478.4,187.1,500z"/>
			<path fill="#2576BC" d="M312.9,0H187.1c0,21.6,125.8,41,125.8,62.5v0c0,21.5-125.8,40.9-125.8,62.5s125.8,41,125.8,62.5v0
				c0,21.5-125.8,40.9-125.8,62.5c0,21.6,125.8,41,125.8,62.5V250v250H500V0H312.9z"/>
		</g>
	</g>
	<path opacity="0.4" fill="#61BB46" d="M437.5,312.9c-21.5,0-40.9-125.8-62.5-125.8c-21.6,0-41,125.8-62.5,125.8
		c-21.5,0-40.9-125.8-62.5-125.8c-21.6,0-41,125.8-62.5,125.8c-21.5,0-40.9-125.8-62.5-125.8c-21.6,0-41,125.8-62.5,125.8
		C41,312.9,21.6,187.1,0,187.1v125.8L0,500h500l0-187.1V187.1C478.4,187.1,459,312.9,437.5,312.9z"/>
</g>
<g id="axis">
	<line fill="none" stroke="#454545" stroke-width="2" stroke-miterlimit="10" x1="250" y1="0" x2="250" y2="500"/>
	<line fill="none" stroke="#454545" stroke-width="2" stroke-miterlimit="10" x1="0" y1="250" x2="500" y2="250"/>
	<rect x="-77.2" y="182.4" display="none" fill="#4154A4" width="62.9" height="62.9"/>
	<g>
		<text transform="matrix(1 0 0 1 259.6195 13.3335)" fill="#454545" font-family="'MyriadPro-Regular'" font-size="16">4</text>
	</g>
	<line fill="none" stroke="#454546" stroke-miterlimit="10" x1="245.7" y1="187.1" x2="254.2" y2="187.1"/>
	<line fill="none" stroke="#454545" stroke-width="2" stroke-miterlimit="10" x1="245.7" y1="500" x2="254.3" y2="500"/>
	<line fill="none" stroke="#454545" stroke-width="2" stroke-miterlimit="10" x1="245.7" y1="0" x2="254.3" y2="0"/>
	<line fill="none" stroke="#454545" stroke-width="2" stroke-miterlimit="10" x1="187.1" y1="253.8" x2="187.1" y2="245.3"/>
	<text transform="matrix(1 0 0 1 177.7079 240.3277)" fill="#454545" font-family="'MyriadPro-Regular'" font-size="16">-1</text>
	<text transform="matrix(1 0 0 1 259.62 192.0777)" fill="#454545" font-family="'MyriadPro-Regular'" font-size="16">1</text>
	<text transform="matrix(1 0 0 1 254.7078 495.3277)" fill="#454545" font-family="'MyriadPro-Regular'" font-size="16">-4</text>
</g>
<g id="lines">
	<g>
		<g>
			<g>
				<path fill="none" stroke="#ED1A46" stroke-width="2" stroke-miterlimit="10" d="M187.5,375.4c-1.8,0-3.6-0.9-5.3-2.5"/>
				<path fill="none" stroke="#ED1A46" stroke-width="2" stroke-miterlimit="10" stroke-dasharray="12.0374,12.0374" d="
					M175.3,363.2c-16.8-31.6-32.8-113.6-50.3-113.6c-18.5,0-35.4,92.2-53.3,118.8"/>
				<path fill="none" stroke="#ED1A46" stroke-width="2" stroke-miterlimit="10" d="M67.8,372.9c-1.8,1.6-3.5,2.5-5.3,2.5"/>
			</g>
		</g>
		<g>
			<g>
				<path fill="none" stroke="#ED1A46" stroke-width="2" stroke-miterlimit="10" d="M312.5,375.4c-1.8,0-3.6-0.9-5.3-2.5"/>
				<path fill="none" stroke="#ED1A46" stroke-width="2" stroke-miterlimit="10" stroke-dasharray="12.0374,12.0374" d="
					M300.3,363.2c-16.8-31.6-32.8-113.6-50.3-113.6c-18.5,0-35.4,92.2-53.3,118.8"/>
				<path fill="none" stroke="#ED1A46" stroke-width="2" stroke-miterlimit="10" d="M192.8,372.9c-1.8,1.6-3.5,2.5-5.3,2.5"/>
			</g>
		</g>
		<g>
			<g>
				<path fill="none" stroke="#ED1A46" stroke-width="2" stroke-miterlimit="10" d="M62.5,375.4c-1.8,0-3.6-0.9-5.3-2.5"/>
				<path fill="none" stroke="#ED1A46" stroke-width="2" stroke-miterlimit="10" stroke-dasharray="12.0391,12.0391" d="M50.3,363.2
					c-13.8-26-27.1-86-41.1-106.5"/>
				<path fill="none" stroke="#ED1A46" stroke-width="2" stroke-miterlimit="10" d="M5.3,252c-1.8-1.6-3.5-2.5-5.3-2.5"/>
			</g>
		</g>
		<g>
			<g>
				<path fill="none" stroke="#ED1A46" stroke-width="2" stroke-miterlimit="10" d="M437.5,375.4c-1.8,0-3.6-0.9-5.3-2.5"/>
				<path fill="none" stroke="#ED1A46" stroke-width="2" stroke-miterlimit="10" stroke-dasharray="12.0374,12.0374" d="
					M425.3,363.2c-16.8-31.6-32.8-113.6-50.3-113.6c-18.5,0-35.4,92.2-53.3,118.8"/>
				<path fill="none" stroke="#ED1A46" stroke-width="2" stroke-miterlimit="10" d="M317.8,372.9c-1.8,1.6-3.5,2.5-5.3,2.5"/>
			</g>
		</g>
		<g>
			<g>
				<path fill="none" stroke="#ED1A46" stroke-width="2" stroke-miterlimit="10" d="M500,249.6c-1.8,0-3.6,0.9-5.3,2.5"/>
				<path fill="none" stroke="#ED1A46" stroke-width="2" stroke-miterlimit="10" stroke-dasharray="12.0391,12.0391" d="
					M487.7,261.8c-13.9,26-27.2,85.9-41.1,106.5"/>
				<path fill="none" stroke="#ED1A46" stroke-width="2" stroke-miterlimit="10" d="M442.8,372.9c-1.8,1.6-3.5,2.5-5.3,2.5"/>
			</g>
		</g>
	</g>
	<g>
		<g>
			<g>
				<path fill="none" stroke="#ED1A46" stroke-width="2" stroke-miterlimit="10" d="M187.5,312.9c-1.8,0-3.6-0.9-5.3-2.5"/>
				<path fill="none" stroke="#ED1A46" stroke-width="2" stroke-miterlimit="10" stroke-dasharray="12.0374,12.0374" d="
					M175.3,300.7C158.5,269,142.4,187.1,125,187.1c-18.5,0-35.4,92.2-53.3,118.8"/>
				<path fill="none" stroke="#ED1A46" stroke-width="2" stroke-miterlimit="10" d="M67.8,310.4c-1.8,1.6-3.5,2.5-5.3,2.5"/>
			</g>
		</g>
		<g>
			<g>
				<path fill="none" stroke="#ED1A46" stroke-width="2" stroke-miterlimit="10" d="M312.5,312.9c-1.8,0-3.6-0.9-5.3-2.5"/>
				<path fill="none" stroke="#ED1A46" stroke-width="2" stroke-miterlimit="10" stroke-dasharray="12.0374,12.0374" d="
					M300.3,300.7C283.5,269,267.4,187.1,250,187.1c-18.5,0-35.4,92.2-53.3,118.8"/>
				<path fill="none" stroke="#ED1A46" stroke-width="2" stroke-miterlimit="10" d="M192.8,310.4c-1.8,1.6-3.5,2.5-5.3,2.5"/>
			</g>
		</g>
		<g>
			<g>
				<path fill="none" stroke="#ED1A46" stroke-width="2" stroke-miterlimit="10" d="M62.5,312.9c-1.8,0-3.6-0.9-5.3-2.5"/>
				<path fill="none" stroke="#ED1A46" stroke-width="2" stroke-miterlimit="10" stroke-dasharray="12.0391,12.0391" d="M50.3,300.7
					c-13.8-26-27.1-86-41.1-106.5"/>
				<path fill="none" stroke="#ED1A46" stroke-width="2" stroke-miterlimit="10" d="M5.3,189.5c-1.8-1.6-3.5-2.5-5.3-2.5"/>
			</g>
		</g>
		<g>
			<g>
				<path fill="none" stroke="#ED1A46" stroke-width="2" stroke-miterlimit="10" d="M437.5,312.9c-1.8,0-3.6-0.9-5.3-2.5"/>
				<path fill="none" stroke="#ED1A46" stroke-width="2" stroke-miterlimit="10" stroke-dasharray="12.0374,12.0374" d="
					M425.3,300.7C408.5,269,392.4,187.1,375,187.1c-18.5,0-35.4,92.2-53.3,118.8"/>
				<path fill="none" stroke="#ED1A46" stroke-width="2" stroke-miterlimit="10" d="M317.8,310.4c-1.8,1.6-3.5,2.5-5.3,2.5"/>
			</g>
		</g>
		<g>
			<g>
				<path fill="none" stroke="#ED1A46" stroke-width="2" stroke-miterlimit="10" d="M500,187.1c-1.8,0-3.6,0.9-5.3,2.5"/>
				<path fill="none" stroke="#ED1A46" stroke-width="2" stroke-miterlimit="10" stroke-dasharray="12.0391,12.0391" d="
					M487.7,199.3c-13.9,26-27.2,85.9-41.1,106.5"/>
				<path fill="none" stroke="#ED1A46" stroke-width="2" stroke-miterlimit="10" d="M442.8,310.4c-1.8,1.6-3.5,2.5-5.3,2.5"/>
			</g>
		</g>
	</g>
	<g>
		<g>
			<path fill="none" stroke="#2576BC" stroke-width="2" stroke-miterlimit="10" d="M312.9,312.1c0,21.5-125.8,40.9-125.8,62.5
				c0,21.6,125.8,41,125.8,62.5"/>
			<path fill="none" stroke="#2576BC" stroke-width="2" stroke-miterlimit="10" d="M312.9,187.1c0,21.5-125.8,40.9-125.8,62.5
				c0,21.6,125.8,41,125.8,62.5"/>
			<path fill="none" stroke="#2576BC" stroke-width="2" stroke-miterlimit="10" d="M312.9,437.1c0,21.5-125.8,40.9-125.8,62.5"/>
			<path fill="none" stroke="#2576BC" stroke-width="2" stroke-miterlimit="10" d="M312.9,62.1c0,21.5-125.8,40.9-125.8,62.5
				c0,21.6,125.8,41,125.8,62.5"/>
			<path fill="none" stroke="#2576BC" stroke-width="2" stroke-miterlimit="10" d="M187.1-0.4c0,21.6,125.8,41,125.8,62.5"/>
		</g>
	</g>
</g>
</svg>
